<?xml version="1.0" encoding="UTF-8" standalone="no"?>
<!-- Created with Inkscape (http://www.inkscape.org/) -->

<svg
   width="55.496605mm"
   height="54.150692mm"
   viewBox="0 0 55.496606 54.150692"
   version="1.1"
   id="svg1"
   inkscape:version="1.4-dev (1:1.4.0-dev+202401190506+b37f861054)"
   sodipodi:docname="z_symmetry.svg"
   inkscape:export-filename="z_symmetry.png"
   inkscape:export-xdpi="300"
   inkscape:export-ydpi="300"
   xmlns:inkscape="http://www.inkscape.org/namespaces/inkscape"
   xmlns:sodipodi="http://sodipodi.sourceforge.net/DTD/sodipodi-0.dtd"
   xmlns="http://www.w3.org/2000/svg"
   xmlns:svg="http://www.w3.org/2000/svg"
   xmlns:ns2="http://www.iki.fi/pav/software/textext/">
  <sodipodi:namedview
     id="namedview1"
     pagecolor="#ffffff"
     bordercolor="#000000"
     borderopacity="0.25"
     inkscape:showpageshadow="2"
     inkscape:pageopacity="0.0"
     inkscape:pagecheckerboard="0"
     inkscape:deskcolor="#d1d1d1"
     inkscape:document-units="mm"
     inkscape:zoom="2.4022082"
     inkscape:cx="16.443204"
     inkscape:cy="92.623113"
     inkscape:window-width="2560"
     inkscape:window-height="1368"
     inkscape:window-x="0"
     inkscape:window-y="0"
     inkscape:window-maximized="1"
     inkscape:current-layer="layer1" />
  <defs
     id="defs1">
    <inkscape:path-effect
       effect="powerclip"
       message=""
       id="path-effect66"
       is_visible="true"
       lpeversion="1"
       inverse="true"
       flatten="false"
       hide_clip="false" />
    <marker
       style="overflow:visible"
       id="Triangle"
       refX="0"
       refY="0"
       orient="auto-start-reverse"
       inkscape:stockid="Triangle arrow"
       markerWidth="1"
       markerHeight="1"
       viewBox="0 0 1 1"
       inkscape:isstock="true"
       inkscape:collect="always"
       preserveAspectRatio="xMidYMid">
      <path
         transform="scale(0.5)"
         style="fill:context-stroke;fill-rule:evenodd;stroke:context-stroke;stroke-width:1pt"
         d="M 5.77,0 -2.88,5 V -5 Z"
         id="path135" />
    </marker>
    <inkscape:path-effect
       effect="powerclip"
       message=""
       id="path-effect57"
       is_visible="true"
       lpeversion="1"
       inverse="true"
       flatten="false"
       hide_clip="false" />
    <inkscape:path-effect
       effect="powerclip"
       message=""
       id="path-effect40"
       is_visible="true"
       lpeversion="1"
       inverse="true"
       flatten="false"
       hide_clip="false" />
    <inkscape:path-effect
       effect="powerclip"
       message=""
       id="path-effect15"
       is_visible="true"
       lpeversion="1"
       inverse="true"
       flatten="false"
       hide_clip="false" />
    <clipPath
       clipPathUnits="userSpaceOnUse"
       id="clipPath93">
      <path
         fill="none"
         stroke="#0071bc"
         stroke-width="0.198437"
         stroke-linecap="round"
         stroke-linejoin="round"
         stroke-miterlimit="10"
         d="m 102.1407,153.03366 c 1.83127,-0.0572 3.66892,-0.15026 5.4883,-0.42283 1.92641,-0.28931 3.81842,-0.76982 5.63186,-1.64381 1.80707,-0.87146 3.40434,-2.19207 4.88014,-3.73724 1.43462,-1.50118 2.69001,-3.34476 3.79421,-5.22173 1.13648,-1.93059 2.18972,-3.9335 3.16736,-5.99558 1.00737,-2.1243 1.97228,-4.27794 2.92868,-6.43814 0.93772,-2.11772 1.87672,-4.23242 2.85182,-6.32332 0.95301,-2.04439 1.98288,-4.0741 3.1886,-5.90455 0.62472,-0.94834 1.31314,-1.7935 2.08353,-2.55622 0.74959,-0.742 1.65461,-1.15976 2.60167,-1.24829 0.96066,-0.0895 1.87205,0.49568 2.64669,1.12992 0.79249,0.64893 1.45246,1.56086 2.06443,2.45003 1.26262,1.83043 2.27848,3.9168 3.27184,5.97939 0.96277,1.99937 1.85252,4.05336 2.75582,6.0942 0.95132,2.14959 1.90221,4.30019 2.90534,6.41437 0.97254,2.05147 1.9918,4.07562 3.12318,5.99761 1.15984,1.97154 2.43095,3.82576 3.88977,5.46703 1.43462,1.61244 3.07265,2.86932 4.84872,3.80705 1.70896,0.90282 3.5844,1.39545 5.42248,1.67162 1.88946,0.28476 3.78487,0.40615 5.68664,0.47443"
         id="path94"
         style="fill:#ffcccc;fill-opacity:1;stroke:#5d5d5d;stroke-width:0.797999;stroke-dasharray:none;stroke-opacity:1"
         sodipodi:nodetypes="ccccccccccccccccccccc" />
    </clipPath>
    <g
       id="id-e4d9abdf-6bbd-4142-9bf5-18e34651ed3f">
      <symbol
         overflow="visible"
         id="id-f67988ce-1b9d-404a-b255-69bf21c692bd">
        <path
           style="stroke:none"
           d=""
           id="id-0f4a74ee-e13e-4290-98e2-f2538ca3b6cd" />
      </symbol>
      <symbol
         overflow="visible"
         id="id-20273d3e-0967-4ca5-bfd0-9246ae4e0084">
        <path
           style="stroke:none"
           d="m 1.328125,-0.828125 c 0.53125,-0.578125 0.828125,-0.828125 1.1875,-1.140625 0,0 0.609375,-0.53125 0.96875,-0.890625 C 4.4375,-3.78125 4.65625,-4.265625 4.65625,-4.3125 c 0,-0.09375 -0.09375,-0.09375 -0.109375,-0.09375 -0.078125,0 -0.09375,0.015625 -0.15625,0.109375 -0.296875,0.484375 -0.5,0.640625 -0.734375,0.640625 -0.25,0 -0.359375,-0.15625 -0.515625,-0.328125 -0.1875,-0.21875 -0.359375,-0.421875 -0.6875,-0.421875 -0.75,0 -1.203125,0.921875 -1.203125,1.140625 0,0.046875 0.03125,0.109375 0.109375,0.109375 0.09375,0 0.109375,-0.046875 0.140625,-0.109375 0.1875,-0.46875 0.765625,-0.46875 0.84375,-0.46875 0.203125,0 0.390625,0.0625 0.625,0.140625 0.40625,0.15625 0.515625,0.15625 0.765625,0.15625 -0.359375,0.421875 -1.1875,1.140625 -1.375,1.296875 l -0.90625,0.84375 C 0.78125,-0.625 0.421875,-0.0625 0.421875,0.015625 c 0,0.09375 0.109375,0.09375 0.125,0.09375 0.078125,0 0.09375,-0.015625 0.15625,-0.125 0.234375,-0.359375 0.53125,-0.625 0.859375,-0.625 0.21875,0 0.328125,0.09375 0.578125,0.375 0.15625,0.21875 0.34375,0.375 0.625,0.375 1,0 1.578125,-1.265625 1.578125,-1.53125 0,-0.046875 -0.046875,-0.109375 -0.125,-0.109375 -0.09375,0 -0.109375,0.0625 -0.140625,0.140625 C 3.84375,-0.75 3.203125,-0.5625 2.875,-0.5625 c -0.1875,0 -0.375,-0.0625 -0.578125,-0.125 -0.34375,-0.125 -0.5,-0.171875 -0.703125,-0.171875 -0.015625,0 -0.171875,0 -0.265625,0.03125 z m 0,0"
           id="id-82efb623-32fb-4710-bc35-b895332acee8" />
      </symbol>
      <symbol
         overflow="visible"
         id="id-b5698854-3995-48cb-9e2d-076da333420c">
        <path
           style="stroke:none"
           d=""
           id="id-e7d30890-743b-4604-8950-94a1132b1a41" />
      </symbol>
      <symbol
         overflow="visible"
         id="id-0b6cb207-3bf8-4565-982c-a21812b59cdb">
        <path
           style="stroke:none"
           d="m 2.703125,-2.78125 c -0.125,0.0625 -0.1875,0.171875 -0.1875,0.3125 0,0.1875 0.125,0.328125 0.328125,0.328125 0.1875,0 0.328125,-0.125 0.328125,-0.34375 0,-0.625 -0.96875,-0.625 -1.15625,-0.625 -1.046875,0 -1.6875,0.796875 -1.6875,1.609375 0,0.875 0.734375,1.5625 1.65625,1.5625 1.03125,0 1.28125,-0.8125 1.28125,-0.90625 0,-0.078125 -0.09375,-0.078125 -0.125,-0.078125 -0.09375,0 -0.09375,0.015625 -0.125,0.125 C 2.859375,-0.375 2.484375,-0.15625 2.0625,-0.15625 c -0.484375,0 -1.109375,-0.359375 -1.109375,-1.359375 0,-0.875 0.4375,-1.375 1.078125,-1.375 0.09375,0 0.421875,0 0.671875,0.109375 z m 0,0"
           id="id-d2dc7187-54cb-4fe7-918b-101e2fa1c0bf" />
      </symbol>
      <symbol
         overflow="visible"
         id="id-d49c93e5-cb36-4ada-b36b-5d1e400805a0">
        <path
           style="stroke:none"
           d="m 1.390625,-1.59375 c 0,-0.578125 0.265625,-1.28125 0.9375,-1.28125 -0.0625,0.046875 -0.125,0.140625 -0.125,0.25 0,0.234375 0.1875,0.3125 0.3125,0.3125 0.171875,0 0.328125,-0.109375 0.328125,-0.3125 0,-0.234375 -0.234375,-0.453125 -0.5625,-0.453125 -0.34375,0 -0.734375,0.21875 -0.9375,0.75 v -0.75 L 0.34375,-3 v 0.25 c 0.46875,0 0.515625,0.046875 0.515625,0.390625 v 1.8125 C 0.859375,-0.25 0.796875,-0.25 0.34375,-0.25 V 0 c 0.03125,0 0.5,-0.03125 0.796875,-0.03125 0.296875,0 0.59375,0.015625 0.90625,0.03125 V -0.25 H 1.90625 c -0.515625,0 -0.515625,-0.078125 -0.515625,-0.3125 z m 0,0"
           id="id-31ec00f8-c913-4d62-8568-4561429be2dc" />
      </symbol>
      <symbol
         overflow="visible"
         id="id-cec0ed1c-c9d0-4efe-95b8-cdb1206634a7">
        <path
           style="stroke:none"
           d="m 1.46875,-4.296875 c 0,-0.203125 -0.171875,-0.40625 -0.40625,-0.40625 -0.203125,0 -0.390625,0.171875 -0.390625,0.40625 0,0.25 0.203125,0.40625 0.390625,0.40625 0.234375,0 0.40625,-0.171875 0.40625,-0.40625 z M 0.40625,-3 v 0.25 c 0.4375,0 0.5,0.046875 0.5,0.390625 v 1.8125 C 0.90625,-0.25 0.84375,-0.25 0.390625,-0.25 V 0 c 0.015625,0 0.5,-0.03125 0.78125,-0.03125 0.25,0 0.5,0.015625 0.734375,0.03125 V -0.25 C 1.5,-0.25 1.4375,-0.25 1.4375,-0.546875 v -2.53125 z m 0,0"
           id="id-66802831-02dd-4a5e-acaa-ecf62226d9d5" />
      </symbol>
      <symbol
         overflow="visible"
         id="id-993d7281-2da6-44de-b674-975fcf61b191">
        <path
           style="stroke:none"
           d="M 1.40625,-2.75 H 2.484375 V -3 H 1.40625 v -1.28125 h -0.25 c 0,0.625 -0.28125,1.3125 -0.953125,1.328125 V -2.75 H 0.84375 v 1.875 c 0,0.78125 0.59375,0.9375 0.984375,0.9375 0.46875,0 0.78125,-0.390625 0.78125,-0.9375 V -1.265625 H 2.375 v 0.375 c 0,0.484375 -0.21875,0.734375 -0.5,0.734375 -0.46875,0 -0.46875,-0.578125 -0.46875,-0.703125 z m 0,0"
           id="id-84cd6be8-5640-4857-bf35-d94cbbf1aad7" />
      </symbol>
    </g>
    <clipPath
       clipPathUnits="userSpaceOnUse"
       id="clipPath14">
      <rect
         style="display:block;fill:#008080;fill-opacity:0.198198;stroke:#000000;stroke-width:0.3;stroke-opacity:1"
         id="rect15"
         width="27.803858"
         height="25.311634"
         x="94.528183"
         y="135.57808" />
    </clipPath>
    <clipPath
       clipPathUnits="userSpaceOnUse"
       id="clipPath40">
      <rect
         style="display:none;fill:#000000;fill-opacity:1;stroke:none;stroke-width:0.3;stroke-opacity:1"
         id="rect40"
         width="35.906197"
         height="31.941097"
         x="122.59756"
         y="124.51395"
         d="m 122.59756,124.51395 h 35.90619 v 31.94109 h -35.90619 z" />
      <path
         id="lpe_path-effect40"
         style="fill:#000000;fill-opacity:1;stroke:none;stroke-width:0.3;stroke-opacity:1"
         class="powerclip"
         d="m 96.741701,123.54853 h 64.313709 v 29.5924 H 96.741701 Z m 25.855859,0.96542 v 31.94109 h 35.90619 v -31.94109 z" />
    </clipPath>
    <clipPath
       clipPathUnits="userSpaceOnUse"
       id="clipath_lpe_path-effect57">
      <rect
         style="display:block;fill:#000000;fill-opacity:1;stroke:none;stroke-width:0.3;stroke-opacity:1"
         id="rect58"
         width="35.906197"
         height="31.941097"
         x="122.59756"
         y="124.51395" />
    </clipPath>
    <clipPath
       clipPathUnits="userSpaceOnUse"
       id="clipPath65">
      <rect
         style="display:none;fill:#008080;fill-opacity:0.38964;stroke:#005f5f;stroke-width:0.23;stroke-dasharray:none;stroke-dashoffset:0;stroke-opacity:1"
         id="rect66"
         width="34.143932"
         height="36.787334"
         x="135.51236"
         y="160.24596"
         d="m 135.51236,160.24596 h 34.14393 v 36.78733 h -34.14393 z" />
      <path
         id="lpe_path-effect66"
         style="fill:#008080;fill-opacity:0.38964;stroke:#005f5f;stroke-width:0.23;stroke-dasharray:none;stroke-dashoffset:0;stroke-opacity:1"
         class="powerclip"
         d="m 96.741701,159.53189 h 64.313709 v 29.5924 H 96.741701 Z m 38.770659,0.71407 v 36.78733 h 34.14393 v -36.78733 z" />
    </clipPath>
    <g
       id="g10">
      <symbol
         overflow="visible"
         id="symbol9">
        <path
           style="stroke:none"
           d=""
           id="path9" />
      </symbol>
      <symbol
         overflow="visible"
         id="symbol10">
        <path
           style="stroke:none"
           d="m 6.84375,-3.265625 c 0.15625,0 0.34375,0 0.34375,-0.1875 C 7.1875,-3.65625 7,-3.65625 6.859375,-3.65625 h -5.96875 c -0.140625,0 -0.328125,0 -0.328125,0.203125 0,0.1875 0.1875,0.1875 0.328125,0.1875 z m 0.015625,1.9375 c 0.140625,0 0.328125,0 0.328125,-0.203125 0,-0.1875 -0.1875,-0.1875 -0.34375,-0.1875 H 0.890625 c -0.140625,0 -0.328125,0 -0.328125,0.1875 0,0.203125 0.1875,0.203125 0.328125,0.203125 z m 0,0"
           id="path10" />
      </symbol>
    </g>
    <g
       id="g14">
      <g
         id="g11">
        <path
           d="m 5.140625,-6.8125 c 0,0 0,-0.109375 -0.125,-0.109375 -0.15625,0 -1.09375,0.09375 -1.265625,0.109375 -0.078125,0.015625 -0.140625,0.0625 -0.140625,0.1875 0,0.125 0.09375,0.125 0.234375,0.125 0.484375,0 0.5,0.0625 0.5,0.171875 L 4.3125,-6.125 3.71875,-3.765625 C 3.53125,-4.140625 3.25,-4.40625 2.796875,-4.40625 c -1.15625,0 -2.390625,1.46875 -2.390625,2.921875 0,0.9375 0.546875,1.59375 1.3125,1.59375 0.203125,0 0.703125,-0.046875 1.296875,-0.75 0.078125,0.421875 0.4375,0.75 0.90625,0.75 0.359375,0 0.578125,-0.234375 0.75,-0.546875 0.15625,-0.359375 0.296875,-0.96875 0.296875,-0.984375 0,-0.109375 -0.09375,-0.109375 -0.125,-0.109375 -0.09375,0 -0.109375,0.046875 -0.140625,0.1875 -0.171875,0.640625 -0.34375,1.234375 -0.75,1.234375 -0.28125,0 -0.296875,-0.265625 -0.296875,-0.453125 0,-0.25 0.015625,-0.3125 0.046875,-0.484375 z m -2.0625,5.625 C 3.015625,-1 3.015625,-0.984375 2.875,-0.8125 2.4375,-0.265625 2.03125,-0.109375 1.75,-0.109375 c -0.5,0 -0.640625,-0.546875 -0.640625,-0.9375 0,-0.5 0.3125,-1.71875 0.546875,-2.1875 0.3125,-0.578125 0.75,-0.953125 1.15625,-0.953125 0.640625,0 0.78125,0.8125 0.78125,0.875 0,0.0625 -0.015625,0.125 -0.03125,0.171875 z m 0,0"
           id="path11" />
      </g>
      <g
         id="g12">
        <path
           d="m 0.875,-0.59375 c -0.03125,0.15625 -0.09375,0.390625 -0.09375,0.4375 0,0.171875 0.140625,0.265625 0.296875,0.265625 0.125,0 0.296875,-0.078125 0.375,-0.28125 0,-0.015625 0.125,-0.484375 0.1875,-0.734375 l 0.21875,-0.890625 C 1.90625,-2.03125 1.96875,-2.25 2.03125,-2.46875 c 0.03125,-0.171875 0.109375,-0.46875 0.125,-0.5 0.140625,-0.3125 0.671875,-1.21875 1.625,-1.21875 0.453125,0 0.53125,0.375 0.53125,0.703125 0,0.609375 -0.484375,1.890625 -0.640625,2.3125 C 3.578125,-0.9375 3.5625,-0.8125 3.5625,-0.703125 c 0,0.46875 0.359375,0.8125 0.828125,0.8125 0.9375,0 1.296875,-1.453125 1.296875,-1.53125 0,-0.109375 -0.078125,-0.109375 -0.109375,-0.109375 -0.109375,0 -0.109375,0.03125 -0.15625,0.1875 -0.203125,0.671875 -0.53125,1.234375 -1.015625,1.234375 -0.171875,0 -0.234375,-0.09375 -0.234375,-0.328125 0,-0.25 0.078125,-0.484375 0.171875,-0.703125 0.1875,-0.53125 0.609375,-1.625 0.609375,-2.203125 0,-0.65625 -0.421875,-1.0625 -1.140625,-1.0625 -0.90625,0 -1.390625,0.640625 -1.5625,0.875 -0.046875,-0.5625 -0.453125,-0.875 -0.921875,-0.875 -0.453125,0 -0.640625,0.390625 -0.734375,0.5625 C 0.421875,-3.5 0.296875,-2.90625 0.296875,-2.875 c 0,0.109375 0.09375,0.109375 0.109375,0.109375 0.109375,0 0.109375,-0.015625 0.171875,-0.234375 0.171875,-0.703125 0.375,-1.1875 0.734375,-1.1875 0.1875,0 0.296875,0.125 0.296875,0.453125 0,0.21875 -0.03125,0.328125 -0.15625,0.84375 z m 0,0"
           id="path12" />
      </g>
      <g
         id="g13">
        <path
           d="m 3.875,8.515625 -1.75,-3.875 C 2.046875,4.484375 2,4.484375 1.96875,4.484375 c 0,0 -0.0625,0 -0.171875,0.078125 l -0.9375,0.71875 c -0.125,0.109375 -0.125,0.125 -0.125,0.15625 0,0.0625 0.015625,0.109375 0.09375,0.109375 0.0625,0 0.234375,-0.140625 0.34375,-0.21875 C 1.21875,5.28125 1.375,5.171875 1.484375,5.09375 l 1.96875,4.3125 C 3.515625,9.5625 3.5625,9.5625 3.65625,9.5625 c 0.15625,0 0.1875,-0.046875 0.25,-0.1875 L 8.4375,0 C 8.5,-0.140625 8.5,-0.171875 8.5,-0.203125 8.5,-0.296875 8.421875,-0.40625 8.296875,-0.40625 c -0.078125,0 -0.140625,0.0625 -0.21875,0.21875 z m 0,0"
           id="path13" />
      </g>
    </g>
  </defs>
  <g
     inkscape:label="Layer 1"
     inkscape:groupmode="layer"
     id="layer1"
     transform="translate(-101.14815,-133.02849)">
    <rect
       style="fill:none;stroke:#000000;stroke-width:0.599999;stroke-dasharray:none;stroke-opacity:1"
       id="rect57"
       width="54.896606"
       height="19.957386"
       x="101.44815"
       y="133.32849" />
    <text
       xml:space="preserve"
       style="font-size:4.07351px;line-height:90%;font-family:sans-serif;text-decoration-color:#000000;fill:#000000;stroke-width:0.264583;-inkscape-stroke:none;stop-color:#000000"
       x="127.76581"
       y="158.43275"
       id="text45"><tspan
         sodipodi:role="line"
         id="tspan45"
         style="stroke-width:0.264583"
         x="127.76581"
         y="158.43275">0</tspan></text>
    <path
       fill="none"
       stroke="#0071bc"
       stroke-width="0.198437"
       stroke-linecap="round"
       stroke-linejoin="round"
       stroke-miterlimit="10"
       d="m 102.1407,153.0336 c 1.33826,-0.0272 2.68117,-0.0715 4.01074,-0.20118 1.40778,-0.13765 2.79042,-0.36627 4.11564,-0.78211 1.32057,-0.41464 2.48782,-1.04298 3.5663,-1.77816 1.04839,-0.71426 1.9658,-1.59142 2.77273,-2.48447 0.83051,-0.91857 1.6002,-1.87154 2.31464,-2.85267 0.73616,-1.01073 1.4413,-2.03542 2.14021,-3.06323 0.68527,-1.0076 1.37147,-2.01377 2.08405,-3.00861 0.69644,-0.97271 1.44905,-1.93843 2.33016,-2.80935 0.45653,-0.45122 0.95962,-0.85334 1.5226,-1.21624 0.54779,-0.35304 1.20916,-0.55181 1.90125,-0.59393 0.70203,-0.0426 1.36805,0.23584 1.93414,0.53761 0.57914,0.30876 1.06143,0.74265 1.50864,1.16571 0.9227,0.87091 1.66507,1.8636 2.39099,2.84497 0.70357,0.95129 1.35379,1.92857 2.0139,2.89959 0.6952,1.02276 1.39009,2.046 2.12316,3.05192 0.71071,0.97608 1.45556,1.93916 2.28235,2.85363 0.84759,0.93805 1.77649,1.82028 2.84256,2.60119 1.04839,0.76719 2.24543,1.3652 3.54334,1.81137 1.24887,0.42956 2.6194,0.66395 3.96263,0.79535 1.38078,0.13549 2.76591,0.19324 4.15568,0.22573"
       id="path60"
       style="fill:none;fill-opacity:0.38964;stroke:#005f5f;stroke-width:0.797998;stroke-dasharray:none;stroke-opacity:1"
       sodipodi:nodetypes="ccccccccccccccccccccc" />
    <g
       transform="matrix(0.458139,0,0,0.458139,120.53776,155.26828)"
       ns2:version="1.9.0"
       ns2:texconverter="pdflatex"
       ns2:pdfconverter="inkscape"
       ns2:text="\\definecolor{mycyan}{RGB}{0, 95, 95}\r\n$\\color{mycyan}{z_\\beta}$"
       ns2:preamble="/home/matteo/.config/inkscape/extensions/textext/default_packages.tex"
       ns2:scale="1.2986617853854339"
       ns2:alignment="middle center"
       ns2:stroke-to-path="0"
       ns2:inkscapeversion="1.4-dev"
       ns2:jacobian_sqrt="0.458139"
       id="g92">
      <defs
         id="id-5b7cb6f2-b217-466b-aa7b-fb58a9d07bf6">
        <g
           id="id-db2b6f10-bea4-4cc2-b974-edbab7f7b06d">
          <g
             id="id-60cb7a5a-5146-49eb-b727-cffc8d69a182">
            <path
               d="m 1.328125,-0.828125 c 0.53125,-0.578125 0.828125,-0.828125 1.1875,-1.140625 0,0 0.609375,-0.53125 0.96875,-0.890625 C 4.4375,-3.78125 4.65625,-4.265625 4.65625,-4.3125 c 0,-0.09375 -0.09375,-0.09375 -0.109375,-0.09375 -0.078125,0 -0.09375,0.015625 -0.15625,0.109375 -0.296875,0.484375 -0.5,0.640625 -0.734375,0.640625 -0.25,0 -0.359375,-0.15625 -0.515625,-0.328125 -0.1875,-0.21875 -0.359375,-0.421875 -0.6875,-0.421875 -0.75,0 -1.203125,0.921875 -1.203125,1.140625 0,0.046875 0.03125,0.109375 0.109375,0.109375 0.09375,0 0.109375,-0.046875 0.140625,-0.109375 0.1875,-0.46875 0.765625,-0.46875 0.84375,-0.46875 0.203125,0 0.390625,0.0625 0.625,0.140625 0.40625,0.15625 0.515625,0.15625 0.765625,0.15625 -0.359375,0.421875 -1.1875,1.140625 -1.375,1.296875 l -0.90625,0.84375 C 0.78125,-0.625 0.421875,-0.0625 0.421875,0.015625 c 0,0.09375 0.109375,0.09375 0.125,0.09375 0.078125,0 0.09375,-0.015625 0.15625,-0.125 0.234375,-0.359375 0.53125,-0.625 0.859375,-0.625 0.21875,0 0.328125,0.09375 0.578125,0.375 0.15625,0.21875 0.34375,0.375 0.625,0.375 1,0 1.578125,-1.265625 1.578125,-1.53125 0,-0.046875 -0.046875,-0.109375 -0.125,-0.109375 -0.09375,0 -0.109375,0.0625 -0.140625,0.140625 C 3.84375,-0.75 3.203125,-0.5625 2.875,-0.5625 c -0.1875,0 -0.375,-0.0625 -0.578125,-0.125 -0.34375,-0.125 -0.5,-0.171875 -0.703125,-0.171875 -0.015625,0 -0.171875,0 -0.265625,0.03125 z m 0,0"
               id="id-e35d9654-426f-4847-b9fa-31bf60dfbfe3" />
          </g>
          <g
             id="id-573bda4a-1cf7-4bc8-b99a-a07d1f1c2b81">
            <path
               d="m 4.40625,-3.9375 c 0,-0.625 -0.53125,-0.96875 -1.140625,-0.96875 -0.953125,0 -1.65625,1.078125 -1.828125,1.78125 L 0.34375,1.265625 c -0.015625,0.046875 0.046875,0.09375 0.09375,0.09375 0.0625,0 0.125,-0.015625 0.140625,-0.0625 L 1.03125,-0.5625 c 0.15625,0.328125 0.484375,0.625 1.046875,0.625 0.984375,0 2.078125,-0.703125 2.078125,-1.765625 0,-0.421875 -0.1875,-0.828125 -0.546875,-1.0625 C 3.953125,-2.984375 4.40625,-3.375 4.40625,-3.9375 Z m -1.375,1.15625 C 2.921875,-2.75 2.875,-2.71875 2.671875,-2.71875 2.5625,-2.71875 2.390625,-2.734375 2.34375,-2.765625 2.421875,-2.796875 2.609375,-2.8125 2.671875,-2.8125 c 0.109375,0 0.265625,0.015625 0.359375,0.03125 z M 3.953125,-4.0625 c 0,0.359375 -0.1875,0.90625 -0.609375,1.15625 C 3.203125,-2.953125 3.078125,-3 2.6875,-3 c -0.25,0 -0.59375,0.015625 -0.59375,0.265625 0,0.171875 0.21875,0.203125 0.5625,0.203125 0.25,0 0.453125,-0.046875 0.671875,-0.109375 0.203125,0.15625 0.3125,0.4375 0.3125,0.75 0,1 -0.6875,1.765625 -1.53125,1.765625 -0.546875,0 -0.921875,-0.328125 -0.921875,-0.890625 0,-0.0625 0,-0.140625 0.015625,-0.203125 l 0.46875,-1.84375 c 0.15625,-0.671875 0.78125,-1.65625 1.578125,-1.65625 0.421875,0 0.703125,0.21875 0.703125,0.65625 z m 0,0"
               id="id-41ae51cc-8be4-4165-a557-860ce4eea2ab" />
          </g>
        </g>
      </defs>
      <g
         fill="#005f5f"
         fill-opacity="1"
         id="id-a564047d-268b-4845-8244-a7cb20f9060a"
         transform="translate(-149.134,-130.359)">
        <g
           transform="translate(148.712,134.765)"
           id="g4">
          <path
             d="m 1.328125,-0.828125 c 0.53125,-0.578125 0.828125,-0.828125 1.1875,-1.140625 0,0 0.609375,-0.53125 0.96875,-0.890625 C 4.4375,-3.78125 4.65625,-4.265625 4.65625,-4.3125 c 0,-0.09375 -0.09375,-0.09375 -0.109375,-0.09375 -0.078125,0 -0.09375,0.015625 -0.15625,0.109375 -0.296875,0.484375 -0.5,0.640625 -0.734375,0.640625 -0.25,0 -0.359375,-0.15625 -0.515625,-0.328125 -0.1875,-0.21875 -0.359375,-0.421875 -0.6875,-0.421875 -0.75,0 -1.203125,0.921875 -1.203125,1.140625 0,0.046875 0.03125,0.109375 0.109375,0.109375 0.09375,0 0.109375,-0.046875 0.140625,-0.109375 0.1875,-0.46875 0.765625,-0.46875 0.84375,-0.46875 0.203125,0 0.390625,0.0625 0.625,0.140625 0.40625,0.15625 0.515625,0.15625 0.765625,0.15625 -0.359375,0.421875 -1.1875,1.140625 -1.375,1.296875 l -0.90625,0.84375 C 0.78125,-0.625 0.421875,-0.0625 0.421875,0.015625 c 0,0.09375 0.109375,0.09375 0.125,0.09375 0.078125,0 0.09375,-0.015625 0.15625,-0.125 0.234375,-0.359375 0.53125,-0.625 0.859375,-0.625 0.21875,0 0.328125,0.09375 0.578125,0.375 0.15625,0.21875 0.34375,0.375 0.625,0.375 1,0 1.578125,-1.265625 1.578125,-1.53125 0,-0.046875 -0.046875,-0.109375 -0.125,-0.109375 -0.09375,0 -0.109375,0.0625 -0.140625,0.140625 C 3.84375,-0.75 3.203125,-0.5625 2.875,-0.5625 c -0.1875,0 -0.375,-0.0625 -0.578125,-0.125 -0.34375,-0.125 -0.5,-0.171875 -0.703125,-0.171875 -0.015625,0 -0.171875,0 -0.265625,0.03125 z m 0,0"
             id="id-b39a9461-7b3b-40d7-886e-0b61c9a843c0" />
        </g>
      </g>
      <g
         fill="#005f5f"
         fill-opacity="1"
         id="id-97a1f931-5656-475e-8f03-58e45f8db000"
         transform="translate(-149.134,-130.359)">
        <g
           transform="translate(153.345,136.259)"
           id="g5">
          <path
             d="m 4.40625,-3.9375 c 0,-0.625 -0.53125,-0.96875 -1.140625,-0.96875 -0.953125,0 -1.65625,1.078125 -1.828125,1.78125 L 0.34375,1.265625 c -0.015625,0.046875 0.046875,0.09375 0.09375,0.09375 0.0625,0 0.125,-0.015625 0.140625,-0.0625 L 1.03125,-0.5625 c 0.15625,0.328125 0.484375,0.625 1.046875,0.625 0.984375,0 2.078125,-0.703125 2.078125,-1.765625 0,-0.421875 -0.1875,-0.828125 -0.546875,-1.0625 C 3.953125,-2.984375 4.40625,-3.375 4.40625,-3.9375 Z m -1.375,1.15625 C 2.921875,-2.75 2.875,-2.71875 2.671875,-2.71875 2.5625,-2.71875 2.390625,-2.734375 2.34375,-2.765625 2.421875,-2.796875 2.609375,-2.8125 2.671875,-2.8125 c 0.109375,0 0.265625,0.015625 0.359375,0.03125 z M 3.953125,-4.0625 c 0,0.359375 -0.1875,0.90625 -0.609375,1.15625 C 3.203125,-2.953125 3.078125,-3 2.6875,-3 c -0.25,0 -0.59375,0.015625 -0.59375,0.265625 0,0.171875 0.21875,0.203125 0.5625,0.203125 0.25,0 0.453125,-0.046875 0.671875,-0.109375 0.203125,0.15625 0.3125,0.4375 0.3125,0.75 0,1 -0.6875,1.765625 -1.53125,1.765625 -0.546875,0 -0.921875,-0.328125 -0.921875,-0.890625 0,-0.0625 0,-0.140625 0.015625,-0.203125 l 0.46875,-1.84375 c 0.15625,-0.671875 0.78125,-1.65625 1.578125,-1.65625 0.421875,0 0.703125,0.21875 0.703125,0.65625 z m 0,0"
             id="id-757abede-e366-4e66-ad9a-8af7d1d457c1" />
        </g>
      </g>
    </g>
    <path
       style="fill:none;stroke:#000000;stroke-width:0.3;stroke-dasharray:none;stroke-dashoffset:0;stroke-opacity:1"
       d="m 122.38295,134.07279 v 20.4801"
       id="path5" />
    <g
       transform="matrix(0.458139,0,0,0.458139,132.126,183.84332)"
       ns2:version="1.9.0"
       ns2:texconverter="pdflatex"
       ns2:pdfconverter="inkscape"
       ns2:text="\\definecolor{mycyan}{RGB}{0, 95, 95}\r\n$\\color{mycyan}{z_{1-\\beta}}$"
       ns2:preamble="/home/matteo/.config/inkscape/extensions/textext/default_packages.tex"
       ns2:scale="1.2986617853854339"
       ns2:alignment="middle center"
       ns2:stroke-to-path="0"
       ns2:inkscapeversion="1.4-dev"
       ns2:jacobian_sqrt="0.458139"
       id="g35">
      <defs
         id="id-b8b7f8b8-4043-402b-9830-527d1dee7e38">
        <g
           id="id-ef46c62d-388a-4a9d-babc-03c710f02fb3">
          <g
             id="id-b6b45432-9a10-47e7-817c-7548ede105a2">
            <path
               d="m 1.328125,-0.828125 c 0.53125,-0.578125 0.828125,-0.828125 1.1875,-1.140625 0,0 0.609375,-0.53125 0.96875,-0.890625 C 4.4375,-3.78125 4.65625,-4.265625 4.65625,-4.3125 c 0,-0.09375 -0.09375,-0.09375 -0.109375,-0.09375 -0.078125,0 -0.09375,0.015625 -0.15625,0.109375 -0.296875,0.484375 -0.5,0.640625 -0.734375,0.640625 -0.25,0 -0.359375,-0.15625 -0.515625,-0.328125 -0.1875,-0.21875 -0.359375,-0.421875 -0.6875,-0.421875 -0.75,0 -1.203125,0.921875 -1.203125,1.140625 0,0.046875 0.03125,0.109375 0.109375,0.109375 0.09375,0 0.109375,-0.046875 0.140625,-0.109375 0.1875,-0.46875 0.765625,-0.46875 0.84375,-0.46875 0.203125,0 0.390625,0.0625 0.625,0.140625 0.40625,0.15625 0.515625,0.15625 0.765625,0.15625 -0.359375,0.421875 -1.1875,1.140625 -1.375,1.296875 l -0.90625,0.84375 C 0.78125,-0.625 0.421875,-0.0625 0.421875,0.015625 c 0,0.09375 0.109375,0.09375 0.125,0.09375 0.078125,0 0.09375,-0.015625 0.15625,-0.125 0.234375,-0.359375 0.53125,-0.625 0.859375,-0.625 0.21875,0 0.328125,0.09375 0.578125,0.375 0.15625,0.21875 0.34375,0.375 0.625,0.375 1,0 1.578125,-1.265625 1.578125,-1.53125 0,-0.046875 -0.046875,-0.109375 -0.125,-0.109375 -0.09375,0 -0.109375,0.0625 -0.140625,0.140625 C 3.84375,-0.75 3.203125,-0.5625 2.875,-0.5625 c -0.1875,0 -0.375,-0.0625 -0.578125,-0.125 -0.34375,-0.125 -0.5,-0.171875 -0.703125,-0.171875 -0.015625,0 -0.171875,0 -0.265625,0.03125 z m 0,0"
               id="id-37efac59-e6d0-4a64-8c20-0959e669b3d6" />
          </g>
          <g
             id="id-d0e3a7ff-973c-4b4c-a5ae-ad6e9dd28202">
            <path
               d="m 2.328125,-4.4375 c 0,-0.1875 0,-0.1875 -0.203125,-0.1875 -0.453125,0.4375 -1.078125,0.4375 -1.359375,0.4375 v 0.25 c 0.15625,0 0.625,0 1,-0.1875 v 3.546875 c 0,0.234375 0,0.328125 -0.6875,0.328125 H 0.8125 V 0 c 0.125,0 0.984375,-0.03125 1.234375,-0.03125 0.21875,0 1.09375,0.03125 1.25,0.03125 V -0.25 H 3.03125 c -0.703125,0 -0.703125,-0.09375 -0.703125,-0.328125 z m 0,0"
               id="id-8231ea1c-027b-4bfb-9fa2-8e8d5114bf34" />
          </g>
          <g
             id="id-499ce9ea-2bc1-407e-b30e-12fd0cc9fed3">
            <path
               d="m 5.1875,-1.578125 c 0.109375,0 0.28125,0 0.28125,-0.15625 0,-0.1875 -0.171875,-0.1875 -0.28125,-0.1875 H 1.03125 c -0.109375,0 -0.28125,0 -0.28125,0.171875 0,0.171875 0.15625,0.171875 0.28125,0.171875 z m 0,0"
               id="id-8466c04d-af02-44da-ab5a-a7c06b2caa85" />
          </g>
          <g
             id="id-89977c78-7770-4e6a-86a7-4551afbd9811">
            <path
               d="m 4.40625,-3.9375 c 0,-0.625 -0.53125,-0.96875 -1.140625,-0.96875 -0.953125,0 -1.65625,1.078125 -1.828125,1.78125 L 0.34375,1.265625 c -0.015625,0.046875 0.046875,0.09375 0.09375,0.09375 0.0625,0 0.125,-0.015625 0.140625,-0.0625 L 1.03125,-0.5625 c 0.15625,0.328125 0.484375,0.625 1.046875,0.625 0.984375,0 2.078125,-0.703125 2.078125,-1.765625 0,-0.421875 -0.1875,-0.828125 -0.546875,-1.0625 C 3.953125,-2.984375 4.40625,-3.375 4.40625,-3.9375 Z m -1.375,1.15625 C 2.921875,-2.75 2.875,-2.71875 2.671875,-2.71875 2.5625,-2.71875 2.390625,-2.734375 2.34375,-2.765625 2.421875,-2.796875 2.609375,-2.8125 2.671875,-2.8125 c 0.109375,0 0.265625,0.015625 0.359375,0.03125 z M 3.953125,-4.0625 c 0,0.359375 -0.1875,0.90625 -0.609375,1.15625 C 3.203125,-2.953125 3.078125,-3 2.6875,-3 c -0.25,0 -0.59375,0.015625 -0.59375,0.265625 0,0.171875 0.21875,0.203125 0.5625,0.203125 0.25,0 0.453125,-0.046875 0.671875,-0.109375 0.203125,0.15625 0.3125,0.4375 0.3125,0.75 0,1 -0.6875,1.765625 -1.53125,1.765625 -0.546875,0 -0.921875,-0.328125 -0.921875,-0.890625 0,-0.0625 0,-0.140625 0.015625,-0.203125 l 0.46875,-1.84375 c 0.15625,-0.671875 0.78125,-1.65625 1.578125,-1.65625 0.421875,0 0.703125,0.21875 0.703125,0.65625 z m 0,0"
               id="id-5c3dc69d-f9ec-448f-a7e7-691ae1cf78ad" />
          </g>
        </g>
      </defs>
      <g
         fill="#005f5f"
         fill-opacity="1"
         id="id-6d9fd649-8b97-45fd-b7fa-d621a8bee419"
         transform="translate(-149.134,-130.359)">
        <g
           transform="translate(148.712,134.765)"
           id="g31">
          <path
             d="m 1.328125,-0.828125 c 0.53125,-0.578125 0.828125,-0.828125 1.1875,-1.140625 0,0 0.609375,-0.53125 0.96875,-0.890625 C 4.4375,-3.78125 4.65625,-4.265625 4.65625,-4.3125 c 0,-0.09375 -0.09375,-0.09375 -0.109375,-0.09375 -0.078125,0 -0.09375,0.015625 -0.15625,0.109375 -0.296875,0.484375 -0.5,0.640625 -0.734375,0.640625 -0.25,0 -0.359375,-0.15625 -0.515625,-0.328125 -0.1875,-0.21875 -0.359375,-0.421875 -0.6875,-0.421875 -0.75,0 -1.203125,0.921875 -1.203125,1.140625 0,0.046875 0.03125,0.109375 0.109375,0.109375 0.09375,0 0.109375,-0.046875 0.140625,-0.109375 0.1875,-0.46875 0.765625,-0.46875 0.84375,-0.46875 0.203125,0 0.390625,0.0625 0.625,0.140625 0.40625,0.15625 0.515625,0.15625 0.765625,0.15625 -0.359375,0.421875 -1.1875,1.140625 -1.375,1.296875 l -0.90625,0.84375 C 0.78125,-0.625 0.421875,-0.0625 0.421875,0.015625 c 0,0.09375 0.109375,0.09375 0.125,0.09375 0.078125,0 0.09375,-0.015625 0.15625,-0.125 0.234375,-0.359375 0.53125,-0.625 0.859375,-0.625 0.21875,0 0.328125,0.09375 0.578125,0.375 0.15625,0.21875 0.34375,0.375 0.625,0.375 1,0 1.578125,-1.265625 1.578125,-1.53125 0,-0.046875 -0.046875,-0.109375 -0.125,-0.109375 -0.09375,0 -0.109375,0.0625 -0.140625,0.140625 C 3.84375,-0.75 3.203125,-0.5625 2.875,-0.5625 c -0.1875,0 -0.375,-0.0625 -0.578125,-0.125 -0.34375,-0.125 -0.5,-0.171875 -0.703125,-0.171875 -0.015625,0 -0.171875,0 -0.265625,0.03125 z m 0,0"
             id="id-70f0679b-2fb4-459a-9de5-6064487622c2" />
        </g>
      </g>
      <g
         fill="#005f5f"
         fill-opacity="1"
         id="id-6bbfe07e-f2d6-45bb-8501-1e86472e587d"
         transform="translate(-149.134,-130.359)">
        <g
           transform="translate(153.345,136.259)"
           id="g32">
          <path
             d="m 2.328125,-4.4375 c 0,-0.1875 0,-0.1875 -0.203125,-0.1875 -0.453125,0.4375 -1.078125,0.4375 -1.359375,0.4375 v 0.25 c 0.15625,0 0.625,0 1,-0.1875 v 3.546875 c 0,0.234375 0,0.328125 -0.6875,0.328125 H 0.8125 V 0 c 0.125,0 0.984375,-0.03125 1.234375,-0.03125 0.21875,0 1.09375,0.03125 1.25,0.03125 V -0.25 H 3.03125 c -0.703125,0 -0.703125,-0.09375 -0.703125,-0.328125 z m 0,0"
             id="id-96b12e52-e183-4298-8ae7-b5ff68e2e77d" />
        </g>
      </g>
      <g
         fill="#005f5f"
         fill-opacity="1"
         id="id-1e0a123d-de6f-40af-ad08-adf432c518a8"
         transform="translate(-149.134,-130.359)">
        <g
           transform="translate(157.317,136.259)"
           id="g33">
          <path
             d="m 5.1875,-1.578125 c 0.109375,0 0.28125,0 0.28125,-0.15625 0,-0.1875 -0.171875,-0.1875 -0.28125,-0.1875 H 1.03125 c -0.109375,0 -0.28125,0 -0.28125,0.171875 0,0.171875 0.15625,0.171875 0.28125,0.171875 z m 0,0"
             id="id-5658b598-e229-4758-81d5-190a2d0642d2" />
        </g>
      </g>
      <g
         fill="#005f5f"
         fill-opacity="1"
         id="id-2026296b-4984-4acb-9454-cc4d01b139ca"
         transform="translate(-149.134,-130.359)">
        <g
           transform="translate(163.543,136.259)"
           id="g34">
          <path
             d="m 4.40625,-3.9375 c 0,-0.625 -0.53125,-0.96875 -1.140625,-0.96875 -0.953125,0 -1.65625,1.078125 -1.828125,1.78125 L 0.34375,1.265625 c -0.015625,0.046875 0.046875,0.09375 0.09375,0.09375 0.0625,0 0.125,-0.015625 0.140625,-0.0625 L 1.03125,-0.5625 c 0.15625,0.328125 0.484375,0.625 1.046875,0.625 0.984375,0 2.078125,-0.703125 2.078125,-1.765625 0,-0.421875 -0.1875,-0.828125 -0.546875,-1.0625 C 3.953125,-2.984375 4.40625,-3.375 4.40625,-3.9375 Z m -1.375,1.15625 C 2.921875,-2.75 2.875,-2.71875 2.671875,-2.71875 2.5625,-2.71875 2.390625,-2.734375 2.34375,-2.765625 2.421875,-2.796875 2.609375,-2.8125 2.671875,-2.8125 c 0.109375,0 0.265625,0.015625 0.359375,0.03125 z M 3.953125,-4.0625 c 0,0.359375 -0.1875,0.90625 -0.609375,1.15625 C 3.203125,-2.953125 3.078125,-3 2.6875,-3 c -0.25,0 -0.59375,0.015625 -0.59375,0.265625 0,0.171875 0.21875,0.203125 0.5625,0.203125 0.25,0 0.453125,-0.046875 0.671875,-0.109375 0.203125,0.15625 0.3125,0.4375 0.3125,0.75 0,1 -0.6875,1.765625 -1.53125,1.765625 -0.546875,0 -0.921875,-0.328125 -0.921875,-0.890625 0,-0.0625 0,-0.140625 0.015625,-0.203125 l 0.46875,-1.84375 c 0.15625,-0.671875 0.78125,-1.65625 1.578125,-1.65625 0.421875,0 0.703125,0.21875 0.703125,0.65625 z m 0,0"
             id="id-7c933a03-fb7f-49d7-8712-aa612cf1a054" />
        </g>
      </g>
    </g>
    <path
       fill="none"
       stroke="#0071bc"
       stroke-width="0.198437"
       stroke-linecap="round"
       stroke-linejoin="round"
       stroke-miterlimit="10"
       d="m 102.1407,147.74193 c 1.33826,-0.0272 2.68117,-0.0715 4.01074,-0.20118 1.40778,-0.13765 2.79042,-0.36627 4.11564,-0.78211 1.32057,-0.41464 2.48782,-1.04298 3.5663,-1.77816 1.04839,-0.71426 1.9658,-1.59142 2.77273,-2.48447 0.83051,-0.91857 1.6002,-1.87154 2.31464,-2.85267 0.73616,-1.01073 1.4413,-2.03542 2.14021,-3.06323 0.68527,-1.0076 1.37147,-2.01377 2.08405,-3.00861 0.69644,-0.97271 1.44905,-1.93843 2.33016,-2.80935 0.45653,-0.45122 0.95962,-0.85334 1.5226,-1.21624 0.54779,-0.35304 1.20916,-0.55181 1.90125,-0.59393 0.70203,-0.0426 1.36805,0.23584 1.93414,0.53761 0.57914,0.30876 1.06143,0.74265 1.50864,1.16571 0.9227,0.87091 1.66507,1.8636 2.39099,2.84497 0.70357,0.95129 1.35379,1.92857 2.0139,2.89959 0.6952,1.02276 1.39009,2.046 2.12316,3.05192 0.71071,0.97608 1.45556,1.93916 2.28235,2.85363 0.84759,0.93805 1.77649,1.82028 2.84256,2.60119 1.04839,0.76719 2.24543,1.3652 3.54334,1.81137 1.24887,0.42956 2.6194,0.66395 3.96263,0.79535 1.38078,0.13549 2.76591,0.19324 4.15568,0.22573"
       id="path36"
       style="fill:#008080;fill-opacity:0.38964;stroke:#005f5f;stroke-width:0.797998;stroke-dasharray:none;stroke-opacity:1"
       sodipodi:nodetypes="ccccccccccccccccccccc"
       clip-path="url(#clipPath40)"
       inkscape:path-effect="#path-effect40"
       inkscape:original-d="m 102.1407,147.74193 c 1.33826,-0.0272 2.68117,-0.0715 4.01074,-0.20118 1.40778,-0.13765 2.79042,-0.36627 4.11564,-0.78211 1.32057,-0.41464 2.48782,-1.04298 3.5663,-1.77816 1.04839,-0.71426 1.9658,-1.59142 2.77273,-2.48447 0.83051,-0.91857 1.6002,-1.87154 2.31464,-2.85267 0.73616,-1.01073 1.4413,-2.03542 2.14021,-3.06323 0.68527,-1.0076 1.37147,-2.01377 2.08405,-3.00861 0.69644,-0.97271 1.44905,-1.93843 2.33016,-2.80935 0.45653,-0.45122 0.95962,-0.85334 1.5226,-1.21624 0.54779,-0.35304 1.20916,-0.55181 1.90125,-0.59393 0.70203,-0.0426 1.36805,0.23584 1.93414,0.53761 0.57914,0.30876 1.06143,0.74265 1.50864,1.16571 0.9227,0.87091 1.66507,1.8636 2.39099,2.84497 0.70357,0.95129 1.35379,1.92857 2.0139,2.89959 0.6952,1.02276 1.39009,2.046 2.12316,3.05192 0.71071,0.97608 1.45556,1.93916 2.28235,2.85363 0.84759,0.93805 1.77649,1.82028 2.84256,2.60119 1.04839,0.76719 2.24543,1.3652 3.54334,1.81137 1.24887,0.42956 2.6194,0.66395 3.96263,0.79535 1.38078,0.13549 2.76591,0.19324 4.15568,0.22573"
       transform="translate(0,5.2916667)" />
    <rect
       style="fill:none;stroke:#000000;stroke-width:0.599999;stroke-dasharray:none;stroke-opacity:1"
       id="rect41"
       width="54.896606"
       height="21.224016"
       x="101.44815"
       y="160.63683" />
    <text
       xml:space="preserve"
       style="font-size:4.07351px;line-height:90%;font-family:sans-serif;text-decoration-color:#000000;fill:#000000;stroke-width:0.264583;-inkscape-stroke:none;stop-color:#000000"
       x="127.76581"
       y="187.00772"
       id="text41"><tspan
         sodipodi:role="line"
         id="tspan41"
         style="stroke-width:0.264583"
         x="127.76581"
         y="187.00772">0</tspan></text>
    <path
       fill="none"
       stroke="#0071bc"
       stroke-width="0.198437"
       stroke-linecap="round"
       stroke-linejoin="round"
       stroke-miterlimit="10"
       d="m 102.1407,181.60861 c 1.33826,-0.0272 2.68117,-0.0715 4.01074,-0.20118 1.40778,-0.13765 2.79042,-0.36627 4.11564,-0.78211 1.32057,-0.41464 2.48782,-1.04298 3.5663,-1.77816 1.04839,-0.71426 1.9658,-1.59142 2.77273,-2.48447 0.83051,-0.91857 1.6002,-1.87154 2.31464,-2.85267 0.73616,-1.01073 1.4413,-2.03542 2.14021,-3.06323 0.68527,-1.0076 1.37147,-2.01377 2.08405,-3.00861 0.69644,-0.97271 1.44905,-1.93843 2.33016,-2.80935 0.45653,-0.45122 0.95962,-0.85334 1.5226,-1.21624 0.54779,-0.35304 1.20916,-0.55181 1.90125,-0.59393 0.70203,-0.0426 1.36805,0.23584 1.93414,0.53761 0.57914,0.30876 1.06143,0.74265 1.50864,1.16571 0.9227,0.87091 1.66507,1.8636 2.39099,2.84497 0.70357,0.95129 1.35379,1.92857 2.0139,2.89959 0.6952,1.02276 1.39009,2.046 2.12316,3.05192 0.71071,0.97608 1.45556,1.93916 2.28235,2.85363 0.84759,0.93805 1.77649,1.82028 2.84256,2.60119 1.04839,0.76719 2.24543,1.3652 3.54334,1.81137 1.24887,0.42956 2.6194,0.66395 3.96263,0.79535 1.38078,0.13549 2.76591,0.19324 4.15568,0.22573"
       id="path41"
       style="fill:none;fill-opacity:0.38964;stroke:#005f5f;stroke-width:0.797998;stroke-dasharray:none;stroke-opacity:1"
       sodipodi:nodetypes="ccccccccccccccccccccc" />
    <path
       style="fill:none;stroke:#8c8c8c;stroke-width:0.3;stroke-dasharray:0.3, 0.3;stroke-dashoffset:0;stroke-opacity:1"
       d="M 122.43802,161.93188 V 183.1279"
       id="path49" />
    <path
       style="fill:none;stroke:#000000;stroke-width:0.3;stroke-dasharray:none;stroke-dashoffset:0;stroke-opacity:1"
       d="M 135.39815,161.93188 V 183.1279"
       id="path59" />
    <path
       style="fill:none;stroke:#005f5f;stroke-width:0.23;stroke-dasharray:none;stroke-dashoffset:0;stroke-opacity:1"
       d="m 128.88478,134.18293 v 20.36996"
       id="path61" />
    <path
       style="fill:none;stroke:#000000;stroke-width:0.600001;stroke-dasharray:none;stroke-opacity:1"
       d="m 128.89855,152.53547 v 2.3952"
       id="path58" />
    <path
       style="fill:none;stroke:#005f5f;stroke-width:0.23;stroke-dasharray:none;stroke-dashoffset:0;stroke-opacity:0.265766"
       d="m 128.89855,162.97821 v 20.14967"
       id="path62" />
    <path
       style="fill:none;stroke:#000000;stroke-width:0.600001;stroke-dasharray:none;stroke-opacity:1"
       d="m 128.89855,181.11048 v 2.3952"
       id="path50" />
    <path
       style="fill:none;stroke:#000000;stroke-width:0.300001;stroke-dasharray:none;stroke-dashoffset:0;stroke-opacity:1;marker-end:url(#Triangle)"
       d="m 128.68028,161.86007 h -4.94305"
       id="path63" />
    <path
       style="fill:none;stroke:#000000;stroke-width:0.300001;stroke-dasharray:none;stroke-dashoffset:0;stroke-opacity:1;marker-end:url(#Triangle)"
       d="m 129.05751,161.86007 h 4.96585"
       id="path64" />
    <path
       fill="none"
       stroke="#0071bc"
       stroke-width="0.198437"
       stroke-linecap="round"
       stroke-linejoin="round"
       stroke-miterlimit="10"
       d="m 102.1407,183.72529 c 1.33826,-0.0272 2.68117,-0.0715 4.01074,-0.20118 1.40778,-0.13765 2.79042,-0.36627 4.11564,-0.78211 1.32057,-0.41464 2.48782,-1.04298 3.5663,-1.77816 1.04839,-0.71426 1.9658,-1.59142 2.77273,-2.48447 0.83051,-0.91857 1.6002,-1.87154 2.31464,-2.85267 0.73616,-1.01073 1.4413,-2.03542 2.14021,-3.06323 0.68527,-1.0076 1.37147,-2.01377 2.08405,-3.00861 0.69644,-0.97271 1.44905,-1.93843 2.33016,-2.80935 0.45653,-0.45122 0.95962,-0.85334 1.5226,-1.21624 0.54779,-0.35304 1.20916,-0.55181 1.90125,-0.59393 0.70203,-0.0426 1.36805,0.23584 1.93414,0.53761 0.57914,0.30876 1.06143,0.74265 1.50864,1.16571 0.9227,0.87091 1.66507,1.8636 2.39099,2.84497 0.70357,0.95129 1.35379,1.92857 2.0139,2.89959 0.6952,1.02276 1.39009,2.046 2.12316,3.05192 0.71071,0.97608 1.45556,1.93916 2.28235,2.85363 0.84759,0.93805 1.77649,1.82028 2.84256,2.60119 1.04839,0.76719 2.24543,1.3652 3.54334,1.81137 1.24887,0.42956 2.6194,0.66395 3.96263,0.79535 1.38078,0.13549 2.76591,0.19324 4.15568,0.22573"
       id="path65"
       style="fill:#008080;fill-opacity:0.38964;stroke:#005f5f;stroke-width:0.797998;stroke-dasharray:none;stroke-opacity:1"
       sodipodi:nodetypes="ccccccccccccccccccccc"
       clip-path="url(#clipPath65)"
       inkscape:path-effect="#path-effect66"
       inkscape:original-d="m 102.1407,183.72529 c 1.33826,-0.0272 2.68117,-0.0715 4.01074,-0.20118 1.40778,-0.13765 2.79042,-0.36627 4.11564,-0.78211 1.32057,-0.41464 2.48782,-1.04298 3.5663,-1.77816 1.04839,-0.71426 1.9658,-1.59142 2.77273,-2.48447 0.83051,-0.91857 1.6002,-1.87154 2.31464,-2.85267 0.73616,-1.01073 1.4413,-2.03542 2.14021,-3.06323 0.68527,-1.0076 1.37147,-2.01377 2.08405,-3.00861 0.69644,-0.97271 1.44905,-1.93843 2.33016,-2.80935 0.45653,-0.45122 0.95962,-0.85334 1.5226,-1.21624 0.54779,-0.35304 1.20916,-0.55181 1.90125,-0.59393 0.70203,-0.0426 1.36805,0.23584 1.93414,0.53761 0.57914,0.30876 1.06143,0.74265 1.50864,1.16571 0.9227,0.87091 1.66507,1.8636 2.39099,2.84497 0.70357,0.95129 1.35379,1.92857 2.0139,2.89959 0.6952,1.02276 1.39009,2.046 2.12316,3.05192 0.71071,0.97608 1.45556,1.93916 2.28235,2.85363 0.84759,0.93805 1.77649,1.82028 2.84256,2.60119 1.04839,0.76719 2.24543,1.3652 3.54334,1.81137 1.24887,0.42956 2.6194,0.66395 3.96263,0.79535 1.38078,0.13549 2.76591,0.19324 4.15568,0.22573"
       transform="translate(0,-2.1166667)" />
    <text
       xml:space="preserve"
       style="font-size:5.79435px;line-height:90%;font-family:Calibri;-inkscape-font-specification:'Calibri, Normal';text-align:center;text-decoration-color:#000000;text-anchor:middle;fill:#000000;stroke-width:0.264583;-inkscape-stroke:none;stop-color:#000000"
       x="125.86466"
       y="178.9977"
       id="text76"><tspan
         sodipodi:role="line"
         id="tspan76"
         style="font-style:normal;font-variant:normal;font-weight:bold;font-stretch:normal;font-family:FreeSerif;-inkscape-font-specification:'FreeSerif Bold';stroke-width:0.264583"
         x="125.86466"
         y="178.9977">1 − <tspan
   style="font-style:italic"
   id="tspan78">β</tspan></tspan></text>
    <text
       xml:space="preserve"
       style="font-size:5.79435px;line-height:90%;font-family:Calibri;-inkscape-font-specification:'Calibri, Normal';text-align:center;text-decoration-color:#000000;text-anchor:middle;fill:#000000;stroke-width:0.264583;-inkscape-stroke:none;stop-color:#000000"
       x="119.58746"
       y="150.50819"
       id="text77"><tspan
         sodipodi:role="line"
         id="tspan77"
         style="font-style:normal;font-variant:normal;font-weight:bold;font-stretch:normal;font-family:FreeSerif;-inkscape-font-specification:'FreeSerif Bold';stroke-width:0.264583"
         x="119.58746"
         y="150.50819"><tspan
           style="font-style:italic"
           id="tspan79">β</tspan></tspan></text>
    <g
       transform="matrix(0.458139,0,0,0.458139,120.538,183.84332)"
       ns2:version="1.9.0"
       ns2:texconverter="pdflatex"
       ns2:pdfconverter="inkscape"
       ns2:text="\\definecolor{mycyan}{RGB}{160, 160, 160}\r\n$\\color{mycyan}{z_\\beta}$"
       ns2:preamble="/home/matteo/.config/inkscape/extensions/textext/default_packages.tex"
       ns2:scale="1.2986617853854339"
       ns2:alignment="middle center"
       ns2:stroke-to-path="0"
       ns2:inkscapeversion="1.4-dev"
       ns2:jacobian_sqrt="0.458139"
       id="g90">
      <defs
         id="id-35018215-fe2c-436d-aef2-98aab599b72f">
        <g
           id="id-bf4df243-d189-49d0-94c3-8119c190c2c3">
          <g
             id="id-b0617304-317c-41f1-8858-3d809ebbfea3">
            <path
               d="m 1.328125,-0.828125 c 0.53125,-0.578125 0.828125,-0.828125 1.1875,-1.140625 0,0 0.609375,-0.53125 0.96875,-0.890625 C 4.4375,-3.78125 4.65625,-4.265625 4.65625,-4.3125 c 0,-0.09375 -0.09375,-0.09375 -0.109375,-0.09375 -0.078125,0 -0.09375,0.015625 -0.15625,0.109375 -0.296875,0.484375 -0.5,0.640625 -0.734375,0.640625 -0.25,0 -0.359375,-0.15625 -0.515625,-0.328125 -0.1875,-0.21875 -0.359375,-0.421875 -0.6875,-0.421875 -0.75,0 -1.203125,0.921875 -1.203125,1.140625 0,0.046875 0.03125,0.109375 0.109375,0.109375 0.09375,0 0.109375,-0.046875 0.140625,-0.109375 0.1875,-0.46875 0.765625,-0.46875 0.84375,-0.46875 0.203125,0 0.390625,0.0625 0.625,0.140625 0.40625,0.15625 0.515625,0.15625 0.765625,0.15625 -0.359375,0.421875 -1.1875,1.140625 -1.375,1.296875 l -0.90625,0.84375 C 0.78125,-0.625 0.421875,-0.0625 0.421875,0.015625 c 0,0.09375 0.109375,0.09375 0.125,0.09375 0.078125,0 0.09375,-0.015625 0.15625,-0.125 0.234375,-0.359375 0.53125,-0.625 0.859375,-0.625 0.21875,0 0.328125,0.09375 0.578125,0.375 0.15625,0.21875 0.34375,0.375 0.625,0.375 1,0 1.578125,-1.265625 1.578125,-1.53125 0,-0.046875 -0.046875,-0.109375 -0.125,-0.109375 -0.09375,0 -0.109375,0.0625 -0.140625,0.140625 C 3.84375,-0.75 3.203125,-0.5625 2.875,-0.5625 c -0.1875,0 -0.375,-0.0625 -0.578125,-0.125 -0.34375,-0.125 -0.5,-0.171875 -0.703125,-0.171875 -0.015625,0 -0.171875,0 -0.265625,0.03125 z m 0,0"
               id="id-5590797d-7e24-4680-8dc0-60a23d56b2ad" />
          </g>
          <g
             id="id-f41351fe-ef94-4a03-88e4-f0e68a987c5e">
            <path
               d="m 4.40625,-3.9375 c 0,-0.625 -0.53125,-0.96875 -1.140625,-0.96875 -0.953125,0 -1.65625,1.078125 -1.828125,1.78125 L 0.34375,1.265625 c -0.015625,0.046875 0.046875,0.09375 0.09375,0.09375 0.0625,0 0.125,-0.015625 0.140625,-0.0625 L 1.03125,-0.5625 c 0.15625,0.328125 0.484375,0.625 1.046875,0.625 0.984375,0 2.078125,-0.703125 2.078125,-1.765625 0,-0.421875 -0.1875,-0.828125 -0.546875,-1.0625 C 3.953125,-2.984375 4.40625,-3.375 4.40625,-3.9375 Z m -1.375,1.15625 C 2.921875,-2.75 2.875,-2.71875 2.671875,-2.71875 2.5625,-2.71875 2.390625,-2.734375 2.34375,-2.765625 2.421875,-2.796875 2.609375,-2.8125 2.671875,-2.8125 c 0.109375,0 0.265625,0.015625 0.359375,0.03125 z M 3.953125,-4.0625 c 0,0.359375 -0.1875,0.90625 -0.609375,1.15625 C 3.203125,-2.953125 3.078125,-3 2.6875,-3 c -0.25,0 -0.59375,0.015625 -0.59375,0.265625 0,0.171875 0.21875,0.203125 0.5625,0.203125 0.25,0 0.453125,-0.046875 0.671875,-0.109375 0.203125,0.15625 0.3125,0.4375 0.3125,0.75 0,1 -0.6875,1.765625 -1.53125,1.765625 -0.546875,0 -0.921875,-0.328125 -0.921875,-0.890625 0,-0.0625 0,-0.140625 0.015625,-0.203125 l 0.46875,-1.84375 c 0.15625,-0.671875 0.78125,-1.65625 1.578125,-1.65625 0.421875,0 0.703125,0.21875 0.703125,0.65625 z m 0,0"
               id="id-606ba738-dfe5-436c-a9c8-e36294244cf3" />
          </g>
        </g>
      </defs>
      <g
         fill="#a0a0a0"
         fill-opacity="1"
         id="id-d2bc183c-2996-4f41-8783-fc8dac570c3f"
         transform="translate(-149.134,-130.359)">
        <g
           transform="translate(148.712,134.765)"
           id="g88">
          <path
             d="m 1.328125,-0.828125 c 0.53125,-0.578125 0.828125,-0.828125 1.1875,-1.140625 0,0 0.609375,-0.53125 0.96875,-0.890625 C 4.4375,-3.78125 4.65625,-4.265625 4.65625,-4.3125 c 0,-0.09375 -0.09375,-0.09375 -0.109375,-0.09375 -0.078125,0 -0.09375,0.015625 -0.15625,0.109375 -0.296875,0.484375 -0.5,0.640625 -0.734375,0.640625 -0.25,0 -0.359375,-0.15625 -0.515625,-0.328125 -0.1875,-0.21875 -0.359375,-0.421875 -0.6875,-0.421875 -0.75,0 -1.203125,0.921875 -1.203125,1.140625 0,0.046875 0.03125,0.109375 0.109375,0.109375 0.09375,0 0.109375,-0.046875 0.140625,-0.109375 0.1875,-0.46875 0.765625,-0.46875 0.84375,-0.46875 0.203125,0 0.390625,0.0625 0.625,0.140625 0.40625,0.15625 0.515625,0.15625 0.765625,0.15625 -0.359375,0.421875 -1.1875,1.140625 -1.375,1.296875 l -0.90625,0.84375 C 0.78125,-0.625 0.421875,-0.0625 0.421875,0.015625 c 0,0.09375 0.109375,0.09375 0.125,0.09375 0.078125,0 0.09375,-0.015625 0.15625,-0.125 0.234375,-0.359375 0.53125,-0.625 0.859375,-0.625 0.21875,0 0.328125,0.09375 0.578125,0.375 0.15625,0.21875 0.34375,0.375 0.625,0.375 1,0 1.578125,-1.265625 1.578125,-1.53125 0,-0.046875 -0.046875,-0.109375 -0.125,-0.109375 -0.09375,0 -0.109375,0.0625 -0.140625,0.140625 C 3.84375,-0.75 3.203125,-0.5625 2.875,-0.5625 c -0.1875,0 -0.375,-0.0625 -0.578125,-0.125 -0.34375,-0.125 -0.5,-0.171875 -0.703125,-0.171875 -0.015625,0 -0.171875,0 -0.265625,0.03125 z m 0,0"
             id="id-c1bb6f51-cbc8-4fa9-9e03-d6ae879039f8" />
        </g>
      </g>
      <g
         fill="#a0a0a0"
         fill-opacity="1"
         id="id-1b6b37ef-7c13-4b07-bad9-bb723e8fb76a"
         transform="translate(-149.134,-130.359)">
        <g
           transform="translate(153.345,136.259)"
           id="g89">
          <path
             d="m 4.40625,-3.9375 c 0,-0.625 -0.53125,-0.96875 -1.140625,-0.96875 -0.953125,0 -1.65625,1.078125 -1.828125,1.78125 L 0.34375,1.265625 c -0.015625,0.046875 0.046875,0.09375 0.09375,0.09375 0.0625,0 0.125,-0.015625 0.140625,-0.0625 L 1.03125,-0.5625 c 0.15625,0.328125 0.484375,0.625 1.046875,0.625 0.984375,0 2.078125,-0.703125 2.078125,-1.765625 0,-0.421875 -0.1875,-0.828125 -0.546875,-1.0625 C 3.953125,-2.984375 4.40625,-3.375 4.40625,-3.9375 Z m -1.375,1.15625 C 2.921875,-2.75 2.875,-2.71875 2.671875,-2.71875 2.5625,-2.71875 2.390625,-2.734375 2.34375,-2.765625 2.421875,-2.796875 2.609375,-2.8125 2.671875,-2.8125 c 0.109375,0 0.265625,0.015625 0.359375,0.03125 z M 3.953125,-4.0625 c 0,0.359375 -0.1875,0.90625 -0.609375,1.15625 C 3.203125,-2.953125 3.078125,-3 2.6875,-3 c -0.25,0 -0.59375,0.015625 -0.59375,0.265625 0,0.171875 0.21875,0.203125 0.5625,0.203125 0.25,0 0.453125,-0.046875 0.671875,-0.109375 0.203125,0.15625 0.3125,0.4375 0.3125,0.75 0,1 -0.6875,1.765625 -1.53125,1.765625 -0.546875,0 -0.921875,-0.328125 -0.921875,-0.890625 0,-0.0625 0,-0.140625 0.015625,-0.203125 l 0.46875,-1.84375 c 0.15625,-0.671875 0.78125,-1.65625 1.578125,-1.65625 0.421875,0 0.703125,0.21875 0.703125,0.65625 z m 0,0"
             id="id-caa6f5a2-5ccc-4152-8b03-1a4cf1101c5d" />
        </g>
      </g>
    </g>
    <g
       transform="matrix(0.319583,0,0,0.458139,141.75878,184.6096)"
       ns2:version="1.9.0"
       ns2:texconverter="pdflatex"
       ns2:pdfconverter="inkscape"
       ns2:text="\\definecolor{myred}{RGB}{160, 160, 160}\r\n$\\color{myred}{=}$"
       ns2:preamble="/home/matteo/.config/inkscape/extensions/textext/default_packages.tex"
       ns2:scale="1.084648803879863"
       ns2:alignment="middle center"
       ns2:stroke-to-path="0"
       ns2:inkscapeversion="1.4-dev"
       ns2:jacobian_sqrt="0.3826400868139668"
       id="g43">
      <defs
         id="id-534b5906-a5af-4a52-8d26-8a1710c29083">
        <g
           id="id-31fb5120-c4a4-4c5c-a097-3c84b597b20f">
          <g
             id="id-9b1966bb-7162-4dcb-b4c5-1943db878813">
            <path
               d="m 6.84375,-3.265625 c 0.15625,0 0.34375,0 0.34375,-0.1875 C 7.1875,-3.65625 7,-3.65625 6.859375,-3.65625 h -5.96875 c -0.140625,0 -0.328125,0 -0.328125,0.203125 0,0.1875 0.1875,0.1875 0.328125,0.1875 z m 0.015625,1.9375 c 0.140625,0 0.328125,0 0.328125,-0.203125 0,-0.1875 -0.1875,-0.1875 -0.34375,-0.1875 H 0.890625 c -0.140625,0 -0.328125,0 -0.328125,0.1875 0,0.203125 0.1875,0.203125 0.328125,0.203125 z m 0,0"
               id="id-a9179634-48b8-4411-8ed8-c0797e628689" />
          </g>
        </g>
      </defs>
      <g
         fill="#a0a0a0"
         fill-opacity="1"
         id="id-d5ee77a4-e152-4e4a-a454-e9b7023f78a2"
         transform="translate(-149.275,-131.109)">
        <g
           transform="translate(148.712,134.765)"
           id="g111">
          <path
             d="m 6.84375,-3.265625 c 0.15625,0 0.34375,0 0.34375,-0.1875 C 7.1875,-3.65625 7,-3.65625 6.859375,-3.65625 h -5.96875 c -0.140625,0 -0.328125,0 -0.328125,0.203125 0,0.1875 0.1875,0.1875 0.328125,0.1875 z m 0.015625,1.9375 c 0.140625,0 0.328125,0 0.328125,-0.203125 0,-0.1875 -0.1875,-0.1875 -0.34375,-0.1875 H 0.890625 c -0.140625,0 -0.328125,0 -0.328125,0.1875 0,0.203125 0.1875,0.203125 0.328125,0.203125 z m 0,0"
             id="id-329a22a9-039f-4f1b-b426-f1ebe279e639" />
        </g>
      </g>
    </g>
    <g
       transform="matrix(0.458139,0,0,0.458139,146.31139,183.85338)"
       ns2:version="1.9.0"
       ns2:texconverter="pdflatex"
       ns2:pdfconverter="inkscape"
       ns2:text="\\definecolor{mycyan}{RGB}{160, 160, 160}\r\n$\\color{mycyan}{z_\\beta}$"
       ns2:preamble="/home/matteo/.config/inkscape/extensions/textext/default_packages.tex"
       ns2:scale="1.2986617853854339"
       ns2:alignment="middle center"
       ns2:stroke-to-path="0"
       ns2:inkscapeversion="1.4-dev"
       ns2:jacobian_sqrt="0.458139"
       id="g110">
      <defs
         id="id-9f8fedc3-b5b6-4627-908e-d0a2b65b12e4">
        <g
           id="id-34210881-d43d-46ec-a5d6-f9237dd27d60">
          <g
             id="id-1f984e72-e732-44ee-a627-c6bad59ccf58">
            <path
               d="m 1.328125,-0.828125 c 0.53125,-0.578125 0.828125,-0.828125 1.1875,-1.140625 0,0 0.609375,-0.53125 0.96875,-0.890625 C 4.4375,-3.78125 4.65625,-4.265625 4.65625,-4.3125 c 0,-0.09375 -0.09375,-0.09375 -0.109375,-0.09375 -0.078125,0 -0.09375,0.015625 -0.15625,0.109375 -0.296875,0.484375 -0.5,0.640625 -0.734375,0.640625 -0.25,0 -0.359375,-0.15625 -0.515625,-0.328125 -0.1875,-0.21875 -0.359375,-0.421875 -0.6875,-0.421875 -0.75,0 -1.203125,0.921875 -1.203125,1.140625 0,0.046875 0.03125,0.109375 0.109375,0.109375 0.09375,0 0.109375,-0.046875 0.140625,-0.109375 0.1875,-0.46875 0.765625,-0.46875 0.84375,-0.46875 0.203125,0 0.390625,0.0625 0.625,0.140625 0.40625,0.15625 0.515625,0.15625 0.765625,0.15625 -0.359375,0.421875 -1.1875,1.140625 -1.375,1.296875 l -0.90625,0.84375 C 0.78125,-0.625 0.421875,-0.0625 0.421875,0.015625 c 0,0.09375 0.109375,0.09375 0.125,0.09375 0.078125,0 0.09375,-0.015625 0.15625,-0.125 0.234375,-0.359375 0.53125,-0.625 0.859375,-0.625 0.21875,0 0.328125,0.09375 0.578125,0.375 0.15625,0.21875 0.34375,0.375 0.625,0.375 1,0 1.578125,-1.265625 1.578125,-1.53125 0,-0.046875 -0.046875,-0.109375 -0.125,-0.109375 -0.09375,0 -0.109375,0.0625 -0.140625,0.140625 C 3.84375,-0.75 3.203125,-0.5625 2.875,-0.5625 c -0.1875,0 -0.375,-0.0625 -0.578125,-0.125 -0.34375,-0.125 -0.5,-0.171875 -0.703125,-0.171875 -0.015625,0 -0.171875,0 -0.265625,0.03125 z m 0,0"
               id="id-bf1e7a6e-c984-4b10-bc68-a669a4032656" />
          </g>
          <g
             id="id-356c108d-7bfb-43e5-846f-709b4fb2e46e">
            <path
               d="m 4.40625,-3.9375 c 0,-0.625 -0.53125,-0.96875 -1.140625,-0.96875 -0.953125,0 -1.65625,1.078125 -1.828125,1.78125 L 0.34375,1.265625 c -0.015625,0.046875 0.046875,0.09375 0.09375,0.09375 0.0625,0 0.125,-0.015625 0.140625,-0.0625 L 1.03125,-0.5625 c 0.15625,0.328125 0.484375,0.625 1.046875,0.625 0.984375,0 2.078125,-0.703125 2.078125,-1.765625 0,-0.421875 -0.1875,-0.828125 -0.546875,-1.0625 C 3.953125,-2.984375 4.40625,-3.375 4.40625,-3.9375 Z m -1.375,1.15625 C 2.921875,-2.75 2.875,-2.71875 2.671875,-2.71875 2.5625,-2.71875 2.390625,-2.734375 2.34375,-2.765625 2.421875,-2.796875 2.609375,-2.8125 2.671875,-2.8125 c 0.109375,0 0.265625,0.015625 0.359375,0.03125 z M 3.953125,-4.0625 c 0,0.359375 -0.1875,0.90625 -0.609375,1.15625 C 3.203125,-2.953125 3.078125,-3 2.6875,-3 c -0.25,0 -0.59375,0.015625 -0.59375,0.265625 0,0.171875 0.21875,0.203125 0.5625,0.203125 0.25,0 0.453125,-0.046875 0.671875,-0.109375 0.203125,0.15625 0.3125,0.4375 0.3125,0.75 0,1 -0.6875,1.765625 -1.53125,1.765625 -0.546875,0 -0.921875,-0.328125 -0.921875,-0.890625 0,-0.0625 0,-0.140625 0.015625,-0.203125 l 0.46875,-1.84375 c 0.15625,-0.671875 0.78125,-1.65625 1.578125,-1.65625 0.421875,0 0.703125,0.21875 0.703125,0.65625 z m 0,0"
               id="id-0acddc87-a5cf-41f2-b867-08596dd96133" />
          </g>
        </g>
      </defs>
      <g
         fill="#a0a0a0"
         fill-opacity="1"
         id="id-c54debc5-26b4-4a81-b55d-0c41f8a62dca"
         transform="translate(-149.134,-130.359)">
        <g
           transform="translate(148.712,134.765)"
           id="g112">
          <path
             d="m 1.328125,-0.828125 c 0.53125,-0.578125 0.828125,-0.828125 1.1875,-1.140625 0,0 0.609375,-0.53125 0.96875,-0.890625 C 4.4375,-3.78125 4.65625,-4.265625 4.65625,-4.3125 c 0,-0.09375 -0.09375,-0.09375 -0.109375,-0.09375 -0.078125,0 -0.09375,0.015625 -0.15625,0.109375 -0.296875,0.484375 -0.5,0.640625 -0.734375,0.640625 -0.25,0 -0.359375,-0.15625 -0.515625,-0.328125 -0.1875,-0.21875 -0.359375,-0.421875 -0.6875,-0.421875 -0.75,0 -1.203125,0.921875 -1.203125,1.140625 0,0.046875 0.03125,0.109375 0.109375,0.109375 0.09375,0 0.109375,-0.046875 0.140625,-0.109375 0.1875,-0.46875 0.765625,-0.46875 0.84375,-0.46875 0.203125,0 0.390625,0.0625 0.625,0.140625 0.40625,0.15625 0.515625,0.15625 0.765625,0.15625 -0.359375,0.421875 -1.1875,1.140625 -1.375,1.296875 l -0.90625,0.84375 C 0.78125,-0.625 0.421875,-0.0625 0.421875,0.015625 c 0,0.09375 0.109375,0.09375 0.125,0.09375 0.078125,0 0.09375,-0.015625 0.15625,-0.125 0.234375,-0.359375 0.53125,-0.625 0.859375,-0.625 0.21875,0 0.328125,0.09375 0.578125,0.375 0.15625,0.21875 0.34375,0.375 0.625,0.375 1,0 1.578125,-1.265625 1.578125,-1.53125 0,-0.046875 -0.046875,-0.109375 -0.125,-0.109375 -0.09375,0 -0.109375,0.0625 -0.140625,0.140625 C 3.84375,-0.75 3.203125,-0.5625 2.875,-0.5625 c -0.1875,0 -0.375,-0.0625 -0.578125,-0.125 -0.34375,-0.125 -0.5,-0.171875 -0.703125,-0.171875 -0.015625,0 -0.171875,0 -0.265625,0.03125 z m 0,0"
             id="id-2277333e-4467-4765-a482-fb4be572cca9" />
        </g>
      </g>
      <g
         fill="#a0a0a0"
         fill-opacity="1"
         id="id-fb7f1cf0-621d-4266-b06c-e5bb44f0749f"
         transform="translate(-149.134,-130.359)">
        <g
           transform="translate(153.345,136.259)"
           id="g113">
          <path
             d="m 4.40625,-3.9375 c 0,-0.625 -0.53125,-0.96875 -1.140625,-0.96875 -0.953125,0 -1.65625,1.078125 -1.828125,1.78125 L 0.34375,1.265625 c -0.015625,0.046875 0.046875,0.09375 0.09375,0.09375 0.0625,0 0.125,-0.015625 0.140625,-0.0625 L 1.03125,-0.5625 c 0.15625,0.328125 0.484375,0.625 1.046875,0.625 0.984375,0 2.078125,-0.703125 2.078125,-1.765625 0,-0.421875 -0.1875,-0.828125 -0.546875,-1.0625 C 3.953125,-2.984375 4.40625,-3.375 4.40625,-3.9375 Z m -1.375,1.15625 C 2.921875,-2.75 2.875,-2.71875 2.671875,-2.71875 2.5625,-2.71875 2.390625,-2.734375 2.34375,-2.765625 2.421875,-2.796875 2.609375,-2.8125 2.671875,-2.8125 c 0.109375,0 0.265625,0.015625 0.359375,0.03125 z M 3.953125,-4.0625 c 0,0.359375 -0.1875,0.90625 -0.609375,1.15625 C 3.203125,-2.953125 3.078125,-3 2.6875,-3 c -0.25,0 -0.59375,0.015625 -0.59375,0.265625 0,0.171875 0.21875,0.203125 0.5625,0.203125 0.25,0 0.453125,-0.046875 0.671875,-0.109375 0.203125,0.15625 0.3125,0.4375 0.3125,0.75 0,1 -0.6875,1.765625 -1.53125,1.765625 -0.546875,0 -0.921875,-0.328125 -0.921875,-0.890625 0,-0.0625 0,-0.140625 0.015625,-0.203125 l 0.46875,-1.84375 c 0.15625,-0.671875 0.78125,-1.65625 1.578125,-1.65625 0.421875,0 0.703125,0.21875 0.703125,0.65625 z m 0,0"
             id="id-40a3f5e2-278b-4c93-8ad9-6a936d3bbf5f" />
        </g>
      </g>
    </g>
    <g
       transform="matrix(0.319583,0,0,0.458139,144.66207,184.92929)"
       ns2:version="1.9.0"
       ns2:texconverter="pdflatex"
       ns2:pdfconverter="inkscape"
       ns2:text="\\definecolor{myred}{RGB}{160, 160, 160}\r\n$\\color{myred}{-}$"
       ns2:preamble="/home/matteo/.config/inkscape/extensions/textext/default_packages.tex"
       ns2:scale="1.084648803879863"
       ns2:alignment="middle center"
       ns2:stroke-to-path="0"
       ns2:inkscapeversion="1.4-dev"
       ns2:jacobian_sqrt="0.3826400868139668"
       id="g119">
      <defs
         id="id-7e55b4a0-e4d2-4bbb-a930-b4356b48c394">
        <g
           id="id-7a6402b5-8a07-4032-a6df-87f919af7c12">
          <g
             id="id-ce2646a4-945f-42ee-9fcf-8acbf3e26f8d">
            <path
               d="m 6.5625,-2.296875 c 0.171875,0 0.359375,0 0.359375,-0.203125 0,-0.1875 -0.1875,-0.1875 -0.359375,-0.1875 H 1.171875 c -0.171875,0 -0.34375,0 -0.34375,0.1875 0,0.203125 0.171875,0.203125 0.34375,0.203125 z m 0,0"
               id="id-783ac641-fcf7-43bf-97c1-fa88b057fe50" />
          </g>
        </g>
      </defs>
      <g
         fill="#a0a0a0"
         fill-opacity="1"
         id="id-7181863c-681e-4167-80b4-d3b441c6dc89"
         transform="translate(-149.54,-132.077)">
        <g
           transform="matrix(0.70307768,0,0,1,148.95789,134.765)"
           id="g118"
           style="stroke-width:1.19261">
          <path
             d="m 6.5625,-2.296875 c 0.171875,0 0.359375,0 0.359375,-0.203125 0,-0.1875 -0.1875,-0.1875 -0.359375,-0.1875 H 1.171875 c -0.171875,0 -0.34375,0 -0.34375,0.1875 0,0.203125 0.171875,0.203125 0.34375,0.203125 z m 0,0"
             id="id-d3a5d63a-512f-448b-842c-985ccf9291a1"
             style="stroke-width:1.19261" />
        </g>
      </g>
    </g>
    <text
       xml:space="preserve"
       style="font-size:5.79435px;line-height:90%;font-family:Calibri;-inkscape-font-specification:'Calibri, Normal';text-align:center;text-decoration-color:#000000;text-anchor:middle;fill:#000000;stroke-width:0.264583;-inkscape-stroke:none;stop-color:#000000"
       x="131.33902"
       y="150.58827"
       id="text120"><tspan
         sodipodi:role="line"
         id="tspan120"
         style="font-style:normal;font-variant:normal;font-weight:bold;font-stretch:normal;font-family:FreeSerif;-inkscape-font-specification:'FreeSerif Bold';fill:#a0a0a0;fill-opacity:0.627451;stroke-width:0.264583"
         x="131.33902"
         y="150.58827">1 − <tspan
   style="font-style:italic;fill:#a0a0a0;fill-opacity:0.627451"
   id="tspan119">β</tspan></tspan></text>
    <text
       xml:space="preserve"
       style="font-size:5.79435px;line-height:90%;font-family:Calibri;-inkscape-font-specification:'Calibri, Normal';text-align:center;text-decoration-color:#000000;text-anchor:middle;fill:#000000;stroke-width:0.264583;-inkscape-stroke:none;stop-color:#000000"
       x="138.07581"
       y="179.23502"
       id="text122"><tspan
         sodipodi:role="line"
         id="tspan122"
         style="font-style:normal;font-variant:normal;font-weight:bold;font-stretch:normal;font-family:FreeSerif;-inkscape-font-specification:'FreeSerif Bold';fill:#a0a0a0;fill-opacity:0.627451;stroke-width:0.264583"
         x="138.07581"
         y="179.23502"><tspan
           style="font-style:italic;fill:#a0a0a0;fill-opacity:0.627451"
           id="tspan121">β</tspan></tspan></text>
  </g>
</svg>
