<?xml version="1.0" encoding="UTF-8" standalone="no"?>
<!-- Created with Inkscape (http://www.inkscape.org/) -->

<svg
   width="76.01062mm"
   height="61.498276mm"
   viewBox="0 0 76.010619 61.498276"
   version="1.1"
   id="svg1"
   inkscape:version="1.4-dev (1:1.4.0-dev+202401190506+b37f861054)"
   sodipodi:docname="normal_dist_standard.svg"
   inkscape:export-filename="normal_dist_standard.png"
   inkscape:export-xdpi="300"
   inkscape:export-ydpi="300"
   xmlns:inkscape="http://www.inkscape.org/namespaces/inkscape"
   xmlns:sodipodi="http://sodipodi.sourceforge.net/DTD/sodipodi-0.dtd"
   xmlns="http://www.w3.org/2000/svg"
   xmlns:svg="http://www.w3.org/2000/svg"
   xmlns:ns13="http://www.iki.fi/pav/software/textext/">
  <sodipodi:namedview
     id="namedview1"
     pagecolor="#ffffff"
     bordercolor="#000000"
     borderopacity="0.25"
     inkscape:showpageshadow="2"
     inkscape:pageopacity="0.0"
     inkscape:pagecheckerboard="0"
     inkscape:deskcolor="#d1d1d1"
     inkscape:document-units="mm"
     inkscape:zoom="3.683802"
     inkscape:cx="133.15048"
     inkscape:cy="115.23421"
     inkscape:window-width="2560"
     inkscape:window-height="1368"
     inkscape:window-x="0"
     inkscape:window-y="0"
     inkscape:window-maximized="1"
     inkscape:current-layer="layer1" />
  <defs
     id="defs1">
    <marker
       style="overflow:visible"
       id="marker56"
       refX="0"
       refY="0"
       orient="auto-start-reverse"
       inkscape:stockid="Triangle arrow"
       markerWidth="1"
       markerHeight="0.60000002"
       viewBox="0 0 1 1"
       inkscape:isstock="true"
       inkscape:collect="always"
       preserveAspectRatio="none">
      <path
         transform="scale(0.5)"
         style="fill:context-stroke;fill-rule:evenodd;stroke:context-stroke;stroke-width:1pt"
         d="M 5.77,0 -2.88,5 V -5 Z"
         id="path56" />
    </marker>
    <marker
       style="overflow:visible"
       id="marker55"
       refX="0"
       refY="0"
       orient="auto-start-reverse"
       inkscape:stockid="Triangle arrow"
       markerWidth="1"
       markerHeight="0.60000002"
       viewBox="0 0 1 1"
       inkscape:isstock="true"
       inkscape:collect="always"
       preserveAspectRatio="none">
      <path
         transform="scale(0.5)"
         style="fill:context-stroke;fill-rule:evenodd;stroke:context-stroke;stroke-width:1pt"
         d="M 5.77,0 -2.88,5 V -5 Z"
         id="path55" />
    </marker>
    <marker
       style="overflow:visible"
       id="Triangle"
       refX="0"
       refY="0"
       orient="auto-start-reverse"
       inkscape:stockid="Triangle arrow"
       markerWidth="0.5"
       markerHeight="0.60000002"
       viewBox="0 0 1 1"
       inkscape:isstock="true"
       inkscape:collect="always"
       preserveAspectRatio="xMidYMid">
      <path
         transform="scale(0.5)"
         style="fill:context-stroke;fill-rule:evenodd;stroke:context-stroke;stroke-width:1pt"
         d="M 5.77,0 -2.88,5 V -5 Z"
         id="path135" />
    </marker>
    <clipPath
       clipPathUnits="userSpaceOnUse"
       id="clipPath93">
      <path
         fill="none"
         stroke="#0071bc"
         stroke-width="0.198437"
         stroke-linecap="round"
         stroke-linejoin="round"
         stroke-miterlimit="10"
         d="m 102.1407,153.03366 c 1.83127,-0.0572 3.66892,-0.15026 5.4883,-0.42283 1.92641,-0.28931 3.81842,-0.76982 5.63186,-1.64381 1.80707,-0.87146 3.40434,-2.19207 4.88014,-3.73724 1.43462,-1.50118 2.69001,-3.34476 3.79421,-5.22173 1.13648,-1.93059 2.18972,-3.9335 3.16736,-5.99558 1.00737,-2.1243 1.97228,-4.27794 2.92868,-6.43814 0.93772,-2.11772 1.87672,-4.23242 2.85182,-6.32332 0.95301,-2.04439 1.98288,-4.0741 3.1886,-5.90455 0.62472,-0.94834 1.31314,-1.7935 2.08353,-2.55622 0.74959,-0.742 1.65461,-1.15976 2.60167,-1.24829 0.96066,-0.0895 1.87205,0.49568 2.64669,1.12992 0.79249,0.64893 1.45246,1.56086 2.06443,2.45003 1.26262,1.83043 2.27848,3.9168 3.27184,5.97939 0.96277,1.99937 1.85252,4.05336 2.75582,6.0942 0.95132,2.14959 1.90221,4.30019 2.90534,6.41437 0.97254,2.05147 1.9918,4.07562 3.12318,5.99761 1.15984,1.97154 2.43095,3.82576 3.88977,5.46703 1.43462,1.61244 3.07265,2.86932 4.84872,3.80705 1.70896,0.90282 3.5844,1.39545 5.42248,1.67162 1.88946,0.28476 3.78487,0.40615 5.68664,0.47443"
         id="path94"
         style="fill:#ffcccc;fill-opacity:1;stroke:#5d5d5d;stroke-width:0.797999;stroke-dasharray:none;stroke-opacity:1"
         sodipodi:nodetypes="ccccccccccccccccccccc" />
    </clipPath>
    <g
       id="id-467b4f67-abcc-4c1b-b706-a04e8849fa6d">
      <symbol
         overflow="visible"
         id="id-27d2ccd2-2400-4ccb-a11e-f44d41e13978">
        <path
           style="stroke:none"
           d=""
           id="id-919ca5a0-c73b-4d79-86f9-1db165a19200" />
      </symbol>
      <symbol
         overflow="visible"
         id="id-8c0578ab-70f2-474a-953a-7785770c45f5">
        <path
           style="stroke:none"
           d="M 4.28125,-5.578125 V -5.875 H 0.6875 v 0.296875 z m 0,0"
           id="id-5543794c-3520-447b-a8a0-5e7ad26a3bd5" />
      </symbol>
      <symbol
         overflow="visible"
         id="id-b4de72f3-2126-447f-9e30-18d2177fd489">
        <path
           style="stroke:none"
           d=""
           id="id-7e86f454-bb5a-4411-ab42-e6ae0f361728" />
      </symbol>
      <symbol
         overflow="visible"
         id="id-96cb22e5-9590-4742-9316-1361a9c9bcd9">
        <path
           style="stroke:none"
           d="M 3.328125,-3.015625 C 3.390625,-3.265625 3.625,-4.1875 4.3125,-4.1875 c 0.046875,0 0.296875,0 0.5,0.125 C 4.53125,-4 4.34375,-3.765625 4.34375,-3.515625 c 0,0.15625 0.109375,0.34375 0.375,0.34375 0.21875,0 0.53125,-0.171875 0.53125,-0.578125 0,-0.515625 -0.578125,-0.65625 -0.921875,-0.65625 -0.578125,0 -0.921875,0.53125 -1.046875,0.75 -0.25,-0.65625 -0.78125,-0.75 -1.078125,-0.75 -1.03125,0 -1.609375,1.28125 -1.609375,1.53125 0,0.109375 0.109375,0.109375 0.125,0.109375 0.078125,0 0.109375,-0.03125 0.125,-0.109375 0.34375,-1.0625 1,-1.3125 1.34375,-1.3125 0.1875,0 0.53125,0.09375 0.53125,0.671875 0,0.3125 -0.171875,0.96875 -0.53125,2.375 -0.15625,0.609375 -0.515625,1.03125 -0.953125,1.03125 -0.0625,0 -0.28125,0 -0.5,-0.125 0.25,-0.0625 0.46875,-0.265625 0.46875,-0.546875 0,-0.265625 -0.21875,-0.34375 -0.359375,-0.34375 -0.3125,0 -0.546875,0.25 -0.546875,0.578125 0,0.453125 0.484375,0.65625 0.921875,0.65625 0.671875,0 1.03125,-0.703125 1.046875,-0.75 0.125,0.359375 0.484375,0.75 1.078125,0.75 1.03125,0 1.59375,-1.28125 1.59375,-1.53125 0,-0.109375 -0.078125,-0.109375 -0.109375,-0.109375 -0.09375,0 -0.109375,0.046875 -0.140625,0.109375 -0.328125,1.078125 -1,1.3125 -1.3125,1.3125 -0.390625,0 -0.546875,-0.3125 -0.546875,-0.65625 0,-0.21875 0.046875,-0.4375 0.15625,-0.875 z m 0,0"
           id="id-60020a2c-6781-412d-86d9-eca547ad4633" />
      </symbol>
      <symbol
         overflow="visible"
         id="id-f148dea6-2b13-4b86-895e-2647203bee98">
        <path
           style="stroke:none"
           d=""
           id="id-5b7cb1df-e5ab-4b81-9475-52174c07b2b8" />
      </symbol>
      <symbol
         overflow="visible"
         id="id-bca8bc9a-f5fa-4b89-bef3-619cfa9a2af4">
        <path
           style="stroke:none"
           d="m 5.734375,-2.109375 c 0,-0.609375 -0.3125,-0.96875 -1.046875,-0.96875 -0.5625,0 -0.9375,0.296875 -1.125,0.65625 -0.140625,-0.5 -0.515625,-0.65625 -1.015625,-0.65625 -0.578125,0 -0.9375,0.3125 -1.140625,0.6875 v -0.6875 L 0.375,-3 v 0.25 c 0.46875,0 0.53125,0.046875 0.53125,0.390625 v 1.8125 C 0.90625,-0.25 0.828125,-0.25 0.375,-0.25 V 0 C 0.390625,0 0.875,-0.03125 1.171875,-0.03125 1.421875,-0.03125 1.90625,0 1.96875,0 v -0.25 c -0.453125,0 -0.515625,0 -0.515625,-0.296875 V -1.8125 c 0,-0.71875 0.578125,-1.0625 1.03125,-1.0625 0.484375,0 0.546875,0.375 0.546875,0.734375 v 1.59375 C 3.03125,-0.25 2.96875,-0.25 2.515625,-0.25 V 0 C 2.53125,0 3.015625,-0.03125 3.3125,-0.03125 3.5625,-0.03125 4.046875,0 4.109375,0 v -0.25 c -0.453125,0 -0.515625,0 -0.515625,-0.296875 V -1.8125 c 0,-0.71875 0.578125,-1.0625 1.03125,-1.0625 0.484375,0 0.546875,0.375 0.546875,0.734375 v 1.59375 C 5.171875,-0.25 5.109375,-0.25 4.65625,-0.25 V 0 c 0.015625,0 0.5,-0.03125 0.796875,-0.03125 C 5.703125,-0.03125 6.1875,0 6.25,0 v -0.25 c -0.453125,0 -0.515625,0 -0.515625,-0.296875 z m 0,0"
           id="id-1bcbf5e3-35c6-45c3-bdfb-38709fb1f37f" />
      </symbol>
      <symbol
         overflow="visible"
         id="id-e331485a-7f60-48b5-8db8-6902d8cfa0bc">
        <path
           style="stroke:none"
           d="m 3.0625,-1.59375 c 0.15625,0 0.203125,0 0.203125,-0.140625 0,-0.625 -0.34375,-1.375 -1.390625,-1.375 -0.90625,0 -1.609375,0.71875 -1.609375,1.578125 0,0.890625 0.78125,1.59375 1.703125,1.59375 0.9375,0 1.296875,-0.75 1.296875,-0.90625 0,-0.015625 -0.015625,-0.09375 -0.125,-0.09375 -0.09375,0 -0.109375,0.046875 -0.125,0.109375 -0.21875,0.5625 -0.75,0.671875 -1,0.671875 C 1.6875,-0.15625 1.375,-0.296875 1.171875,-0.5625 0.90625,-0.890625 0.90625,-1.3125 0.90625,-1.59375 Z M 0.90625,-1.765625 C 0.984375,-2.75 1.609375,-2.90625 1.875,-2.90625 c 0.859375,0 0.890625,0.96875 0.90625,1.140625 z m 0,0"
           id="id-02815891-aaab-4dbf-b7f4-a22c92ab194d" />
      </symbol>
      <symbol
         overflow="visible"
         id="id-7262be65-06a3-4b10-8f1c-85b7c038f3ab">
        <path
           style="stroke:none"
           d="m 2.484375,-4.765625 v 0.25 C 2.953125,-4.515625 3,-4.453125 3,-4.125 v 1.453125 c -0.25,-0.25 -0.59375,-0.40625 -0.96875,-0.40625 -0.9375,0 -1.703125,0.703125 -1.703125,1.578125 0,0.875 0.734375,1.5625 1.609375,1.5625 0.578125,0 0.921875,-0.296875 1.03125,-0.421875 V 0.0625 L 4.046875,0 V -0.25 C 3.578125,-0.25 3.53125,-0.296875 3.53125,-0.640625 V -4.84375 Z m 0.484375,4.03125 C 2.796875,-0.40625 2.4375,-0.125 1.984375,-0.125 1.59375,-0.125 1.3125,-0.359375 1.171875,-0.5625 1.03125,-0.765625 0.953125,-1.046875 0.953125,-1.484375 c 0,-0.171875 0,-0.6875 0.28125,-1.015625 0.28125,-0.3125 0.625,-0.375 0.828125,-0.375 0.328125,0 0.640625,0.15625 0.828125,0.40625 0.078125,0.109375 0.078125,0.109375 0.078125,0.25 z m 0,0"
           id="id-87f33e99-5e5a-445e-b3f2-cdf1182eda15" />
      </symbol>
      <symbol
         overflow="visible"
         id="id-aa312f03-d71c-4658-b8f9-46ac9fe30130">
        <path
           style="stroke:none"
           d="m 1.9375,1.09375 c -0.453125,0 -0.515625,0 -0.515625,-0.296875 v -1.125 C 1.453125,-0.296875 1.78125,0.0625 2.359375,0.0625 3.28125,0.0625 4.0625,-0.625 4.0625,-1.5 c 0,-0.859375 -0.703125,-1.578125 -1.59375,-1.578125 -0.390625,0 -0.796875,0.15625 -1.078125,0.4375 v -0.4375 L 0.34375,-3 v 0.25 c 0.484375,0 0.515625,0.046875 0.515625,0.328125 v 3.21875 c 0,0.296875 -0.0625,0.296875 -0.515625,0.296875 v 0.265625 c 0.015625,0 0.5,-0.03125 0.796875,-0.03125 0.25,0 0.734375,0.015625 0.796875,0.03125 z M 1.421875,-2.328125 C 1.625,-2.671875 2.03125,-2.84375 2.390625,-2.84375 c 0.59375,0 1.046875,0.609375 1.046875,1.34375 0,0.796875 -0.53125,1.375 -1.109375,1.375 -0.625,0 -0.890625,-0.53125 -0.90625,-0.578125 z m 0,0"
           id="id-9eeb13d0-48b8-4eae-8e40-c45dd218c04e" />
      </symbol>
      <symbol
         overflow="visible"
         id="id-dc4d7973-f559-4c0f-94ac-791fd7e0b874">
        <path
           style="stroke:none"
           d="m 2.640625,-2.921875 c 0,-0.125 0,-0.1875 -0.09375,-0.1875 -0.03125,0 -0.046875,0 -0.140625,0.078125 -0.015625,0.015625 -0.078125,0.078125 -0.125,0.109375 -0.21875,-0.140625 -0.46875,-0.1875 -0.734375,-0.1875 -1,0 -1.234375,0.53125 -1.234375,0.875 0,0.21875 0.09375,0.40625 0.265625,0.546875 0.265625,0.21875 0.53125,0.265625 0.96875,0.34375 0.34375,0.0625 0.90625,0.15625 0.90625,0.625 0,0.265625 -0.1875,0.59375 -0.859375,0.59375 -0.671875,0 -0.90625,-0.4375 -1.03125,-0.90625 -0.03125,-0.09375 -0.03125,-0.125 -0.125,-0.125 -0.125,0 -0.125,0.046875 -0.125,0.1875 v 0.859375 C 0.3125,0 0.3125,0.0625 0.40625,0.0625 0.46875,0.0625 0.609375,-0.078125 0.75,-0.234375 1.046875,0.0625 1.421875,0.0625 1.59375,0.0625 c 0.90625,0 1.25,-0.484375 1.25,-0.96875 0,-0.265625 -0.125,-0.484375 -0.3125,-0.640625 -0.265625,-0.25 -0.578125,-0.3125 -0.828125,-0.34375 -0.546875,-0.109375 -1,-0.1875 -1,-0.5625 0,-0.21875 0.1875,-0.484375 0.84375,-0.484375 0.8125,0 0.84375,0.5625 0.859375,0.765625 0,0.078125 0.09375,0.078125 0.109375,0.078125 0.125,0 0.125,-0.046875 0.125,-0.1875 z m 0,0"
           id="id-f08cde7e-d529-4787-abd7-f019c64c1f84" />
      </symbol>
      <symbol
         overflow="visible"
         id="id-57929d94-de92-4ef1-998a-3a8b5e46d02a">
        <path
           style="stroke:none"
           d="M 3.296875,-2.328125 C 3.484375,-2.75 3.84375,-2.75 3.953125,-2.75 V -3 c -0.1875,0.015625 -0.328125,0.03125 -0.53125,0.03125 -0.1875,0 -0.4375,-0.015625 -0.625,-0.03125 v 0.25 c 0.234375,0.015625 0.28125,0.15625 0.28125,0.265625 0,0.078125 -0.03125,0.140625 -0.0625,0.21875 L 2.25,-0.625 1.390625,-2.453125 C 1.359375,-2.5 1.34375,-2.546875 1.34375,-2.59375 1.34375,-2.75 1.578125,-2.75 1.703125,-2.75 V -3 C 1.59375,-3 1.09375,-2.96875 0.90625,-2.96875 0.6875,-2.96875 0.421875,-2.984375 0.21875,-3 v 0.25 c 0.390625,0 0.46875,0.015625 0.5625,0.234375 L 1.953125,0 c -0.0625,0.140625 -0.125,0.265625 -0.1875,0.40625 -0.15625,0.34375 -0.375,0.8125 -0.859375,0.8125 -0.171875,0 -0.21875,-0.03125 -0.296875,-0.078125 0.015625,0 0.203125,-0.0625 0.203125,-0.296875 0,-0.171875 -0.125,-0.296875 -0.296875,-0.296875 -0.1875,0 -0.3125,0.125 -0.3125,0.296875 0,0.328125 0.328125,0.578125 0.703125,0.578125 0.59375,0 0.9375,-0.625 1.03125,-0.828125 z m 0,0"
           id="id-9d8224eb-984e-4f44-b3dc-5a9f23f68ba4" />
      </symbol>
      <symbol
         overflow="visible"
         id="id-a59b43ec-d0d8-404c-a613-5ffc443e7f52">
        <path
           style="stroke:none"
           d="m 2.703125,-2.78125 c -0.125,0.0625 -0.1875,0.171875 -0.1875,0.3125 0,0.1875 0.125,0.328125 0.328125,0.328125 0.1875,0 0.328125,-0.125 0.328125,-0.34375 0,-0.625 -0.96875,-0.625 -1.15625,-0.625 -1.046875,0 -1.6875,0.796875 -1.6875,1.609375 0,0.875 0.734375,1.5625 1.65625,1.5625 1.03125,0 1.28125,-0.8125 1.28125,-0.90625 0,-0.078125 -0.09375,-0.078125 -0.125,-0.078125 -0.09375,0 -0.09375,0.015625 -0.125,0.125 C 2.859375,-0.375 2.484375,-0.15625 2.0625,-0.15625 c -0.484375,0 -1.109375,-0.359375 -1.109375,-1.359375 0,-0.875 0.4375,-1.375 1.078125,-1.375 0.09375,0 0.421875,0 0.671875,0.109375 z m 0,0"
           id="id-a4db823f-968a-4023-bb99-c50ea1c07338" />
      </symbol>
      <symbol
         overflow="visible"
         id="id-bae3e40d-7c78-4ab9-b702-1412d8625477">
        <path
           style="stroke:none"
           d="m 3.59375,-2.109375 c 0,-0.609375 -0.296875,-0.96875 -1.046875,-0.96875 -0.625,0 -0.96875,0.375 -1.125,0.640625 V -4.84375 L 0.375,-4.765625 v 0.25 c 0.46875,0 0.53125,0.0625 0.53125,0.390625 v 3.578125 C 0.90625,-0.25 0.828125,-0.25 0.375,-0.25 V 0 C 0.390625,0 0.875,-0.03125 1.171875,-0.03125 1.421875,-0.03125 1.90625,0 1.96875,0 v -0.25 c -0.453125,0 -0.515625,0 -0.515625,-0.296875 V -1.8125 c 0,-0.71875 0.578125,-1.0625 1.03125,-1.0625 0.484375,0 0.546875,0.375 0.546875,0.734375 v 1.59375 C 3.03125,-0.25 2.96875,-0.25 2.515625,-0.25 V 0 C 2.53125,0 3.015625,-0.03125 3.3125,-0.03125 3.5625,-0.03125 4.046875,0 4.109375,0 v -0.25 c -0.453125,0 -0.515625,0 -0.515625,-0.296875 z m 0,0"
           id="id-ce5817f0-d2ed-47dc-bb12-a5c9708b0996" />
      </symbol>
      <symbol
         overflow="visible"
         id="id-34907f92-f47a-4e06-87f5-27fa0e2ac130">
        <path
           style="stroke:none"
           d=""
           id="id-23fe4caa-79b0-452a-879d-6d04f5bec988" />
      </symbol>
      <symbol
         overflow="visible"
         id="id-f2ad40c8-ac0c-4381-a674-1e8119f819fc">
        <path
           style="stroke:none"
           d="m 6.5625,-2.296875 c 0.171875,0 0.359375,0 0.359375,-0.203125 0,-0.1875 -0.1875,-0.1875 -0.359375,-0.1875 H 1.171875 c -0.171875,0 -0.34375,0 -0.34375,0.1875 0,0.203125 0.171875,0.203125 0.34375,0.203125 z m 0,0"
           id="id-6ba45cfd-7b5c-4ae1-8a65-272d2f9441fd" />
      </symbol>
    </g>
    <marker
       style="overflow:visible"
       id="Triangle-3"
       refX="0"
       refY="0"
       orient="auto-start-reverse"
       inkscape:stockid="Triangle arrow"
       markerWidth="0.5"
       markerHeight="0.60000002"
       viewBox="0 0 1 1"
       inkscape:isstock="true"
       inkscape:collect="always"
       preserveAspectRatio="xMidYMid">
      <path
         transform="scale(0.5)"
         style="fill:context-stroke;fill-rule:evenodd;stroke:context-stroke;stroke-width:1pt"
         d="M 5.77,0 -2.88,5 V -5 Z"
         id="path135-6" />
    </marker>
  </defs>
  <g
     inkscape:label="Layer 1"
     inkscape:groupmode="layer"
     id="layer1"
     transform="translate(-100.806, -105.079)">
    <rect
       style="fill:none;stroke:#000000;stroke-width:0.6;stroke-dasharray:none;stroke-opacity:1"
       id="rect57"
       width="74.787956"
       height="42.863972"
       x="101.44814"
       y="110.4219" />
    <path
       style="fill:none;stroke:#000000;stroke-width:0.600001;stroke-dasharray:none;stroke-opacity:1"
       d="m 138.84217,152.53547 v 2.3952"
       id="path58" />
    <text
       xml:space="preserve"
       style="font-size:4.76944px;line-height:90%;font-family:sans-serif;text-decoration-color:#000000;fill:#000000;stroke-width:0.264583;-inkscape-stroke:none;stop-color:#000000"
       x="138.86234"
       y="108.32256"
       id="text44"><tspan
         sodipodi:role="line"
         id="tspan44"
         style="font-style:normal;font-variant:normal;font-weight:normal;font-stretch:normal;font-size:4.76944px;font-family:Calibri;-inkscape-font-specification:Calibri;text-align:center;text-anchor:middle;stroke-width:0.264583"
         x="138.86234"
         y="108.32256">Standardnormalverteilung</tspan></text>
    <path
       style="fill:none;stroke:#000000;stroke-width:0.3;stroke-dasharray:none;stroke-dashoffset:0;stroke-opacity:1"
       d="m 138.84218,113.26332 v 39.5273"
       id="path46" />
    <path
       fill="none"
       stroke="#0071bc"
       stroke-width="0.198437"
       stroke-linecap="round"
       stroke-linejoin="round"
       stroke-miterlimit="10"
       d="m 102.1407,153.03366 c 1.83127,-0.0572 3.66892,-0.15026 5.4883,-0.42283 1.92641,-0.28931 3.81842,-0.76982 5.63186,-1.64381 1.80707,-0.87146 3.40434,-2.19207 4.88014,-3.73724 1.43462,-1.50118 2.69001,-3.34476 3.79421,-5.22173 1.13648,-1.93059 2.18972,-3.9335 3.16736,-5.99558 1.00737,-2.1243 1.97228,-4.27794 2.92868,-6.43814 0.93772,-2.11772 1.87672,-4.23242 2.85182,-6.32332 0.95301,-2.04439 1.98288,-4.0741 3.1886,-5.90455 0.62472,-0.94834 1.31314,-1.79351 2.08353,-2.55623 0.74959,-0.742 1.65461,-1.15976 2.60167,-1.24829 0.96066,-0.0895 1.87205,0.49568 2.64669,1.12992 0.79249,0.64893 1.45246,1.56087 2.06443,2.45004 1.26262,1.83043 2.27848,3.9168 3.27184,5.97939 0.96277,1.99937 1.85252,4.05336 2.75582,6.0942 0.95132,2.14959 1.90221,4.30019 2.90534,6.41437 0.97254,2.05147 1.9918,4.07562 3.12318,5.99761 1.15984,1.97154 2.43095,3.82576 3.88977,5.46703 1.43462,1.61244 3.07265,2.86932 4.84872,3.80705 1.70896,0.90282 3.5844,1.39545 5.42248,1.67162 1.88946,0.28476 3.78487,0.40615 5.68664,0.47443"
       id="path60"
       style="fill:none;fill-opacity:1;stroke:#5d5d5d;stroke-width:0.798;stroke-dasharray:none;stroke-opacity:1"
       sodipodi:nodetypes="ccccccccccccccccccccc" />
    <path
       style="fill:none;stroke:#00898a;stroke-width:0.600002;stroke-dasharray:none;stroke-opacity:1;marker-start:url(#marker55);marker-end:url(#marker56)"
       d="M 149.91838,135.07326 H 127.82551"
       id="path57" />
    <path
       style="fill:none;stroke:#000000;stroke-width:0.6;stroke-dasharray:none;stroke-opacity:1;marker-end:url(#Triangle)"
       d="m 138.81352,162.82889 v -2.48273"
       id="path97" />
    <text
       xml:space="preserve"
       style="font-size:4.05561px;line-height:90%;font-family:sans-serif;text-decoration-color:#000000;fill:#000000;stroke-width:0.264583;-inkscape-stroke:none;stop-color:#000000"
       x="138.31493"
       y="166.53915"
       id="text99"><tspan
         sodipodi:role="line"
         style="font-style:normal;font-variant:normal;font-weight:normal;font-stretch:normal;font-size:4.05561px;font-family:Calibri;-inkscape-font-specification:Calibri;text-align:center;text-anchor:middle;stroke-width:0.264583"
         x="138.31493"
         y="166.53915"
         id="tspan99">Mittelwert</tspan></text>
    <text
       xml:space="preserve"
       style="font-size:4.05561px;line-height:90%;font-family:sans-serif;text-decoration-color:#000000;fill:#000000;stroke-width:0.264583;-inkscape-stroke:none;stop-color:#000000"
       x="162.16031"
       y="122.29591"
       id="text33"><tspan
         sodipodi:role="line"
         style="font-style:normal;font-variant:normal;font-weight:normal;font-stretch:normal;font-size:4.05561px;font-family:Calibri;-inkscape-font-specification:Calibri;text-align:center;text-anchor:middle;stroke-width:0.264583"
         x="162.16031"
         y="122.29591"
         id="tspan33">Streuung</tspan></text>
    <g
       transform="matrix(0.459239,0,0,0.459239,137.86918,155.60685)"
       ns13:version="1.9.0"
       ns13:texconverter="pdflatex"
       ns13:pdfconverter="inkscape"
       ns13:text="$0$"
       ns13:preamble="/home/matteo/.config/inkscape/extensions/textext/default_packages.tex"
       ns13:scale="1.3017773535552333"
       ns13:alignment="middle center"
       ns13:stroke-to-path="0"
       ns13:inkscapeversion="1.4-dev"
       ns13:jacobian_sqrt="0.459239"
       id="g32">
      <defs
         id="id-e14f1d68-ecc6-4843-a485-6e29e00ad1e3">
        <g
           id="id-51773809-5214-4f3c-9e25-3406c165df77">
          <g
             id="id-56c2bb5a-3281-4225-b381-4850d500865b">
            <path
               d="m 4.578125,-3.1875 c 0,-0.796875 -0.046875,-1.59375 -0.390625,-2.328125 -0.453125,-0.96875 -1.28125,-1.125 -1.6875,-1.125 -0.609375,0 -1.328125,0.265625 -1.75,1.1875 -0.3125,0.6875 -0.359375,1.46875 -0.359375,2.265625 0,0.75 0.03125,1.640625 0.453125,2.40625 0.421875,0.796875 1.15625,1 1.640625,1 0.53125,0 1.296875,-0.203125 1.734375,-1.15625 0.3125,-0.6875 0.359375,-1.46875 0.359375,-2.25 z M 2.484375,0 C 2.09375,0 1.5,-0.25 1.328125,-1.203125 1.21875,-1.796875 1.21875,-2.71875 1.21875,-3.3125 c 0,-0.640625 0,-1.296875 0.078125,-1.828125 0.1875,-1.1875 0.9375,-1.28125 1.1875,-1.28125 0.328125,0 0.984375,0.1875 1.171875,1.171875 0.109375,0.5625 0.109375,1.3125 0.109375,1.9375 0,0.75 0,1.421875 -0.109375,2.0625 C 3.5,-0.296875 2.9375,0 2.484375,0 Z m 0,0"
               id="id-7f781e96-e744-4175-92a9-6d7fe22dc002" />
          </g>
        </g>
      </defs>
      <g
         fill="#000000"
         fill-opacity="1"
         id="id-a6ec56ed-7a92-43e5-b1dd-329bfec3f331"
         transform="translate(-149.103,-128.124)">
        <g
           transform="translate(148.712,134.765)"
           id="g143">
          <path
             d="m 4.578125,-3.1875 c 0,-0.796875 -0.046875,-1.59375 -0.390625,-2.328125 -0.453125,-0.96875 -1.28125,-1.125 -1.6875,-1.125 -0.609375,0 -1.328125,0.265625 -1.75,1.1875 -0.3125,0.6875 -0.359375,1.46875 -0.359375,2.265625 0,0.75 0.03125,1.640625 0.453125,2.40625 0.421875,0.796875 1.15625,1 1.640625,1 0.53125,0 1.296875,-0.203125 1.734375,-1.15625 0.3125,-0.6875 0.359375,-1.46875 0.359375,-2.25 z M 2.484375,0 C 2.09375,0 1.5,-0.25 1.328125,-1.203125 1.21875,-1.796875 1.21875,-2.71875 1.21875,-3.3125 c 0,-0.640625 0,-1.296875 0.078125,-1.828125 0.1875,-1.1875 0.9375,-1.28125 1.1875,-1.28125 0.328125,0 0.984375,0.1875 1.171875,1.171875 0.109375,0.5625 0.109375,1.3125 0.109375,1.9375 0,0.75 0,1.421875 -0.109375,2.0625 C 3.5,-0.296875 2.9375,0 2.484375,0 Z m 0,0"
             id="id-058670ce-bef6-44d9-b37c-8f4574e9df55" />
        </g>
      </g>
    </g>
    <g
       transform="matrix(0.459239,0,0,0.459239,142.24929,131.25406)"
       ns13:version="1.9.0"
       ns13:texconverter="pdflatex"
       ns13:pdfconverter="inkscape"
       ns13:text="\\definecolor{mycyan}{RGB}{0, 137, 138}\n$\\color{mycyan}{1}$"
       ns13:preamble="/home/matteo/.config/inkscape/extensions/textext/default_packages.tex"
       ns13:scale="1.3017773535552333"
       ns13:alignment="middle center"
       ns13:stroke-to-path="0"
       ns13:inkscapeversion="1.4-dev"
       ns13:jacobian_sqrt="0.459239"
       id="g7">
      <defs
         id="id-cbe93444-629c-4b21-a13a-e91be0e38f59">
        <g
           id="id-5fcea9b3-40c8-4a5d-82d5-8e3d656dec09">
          <g
             id="id-5e5b481d-f375-4292-9482-bc28ef989eda">
            <path
               d="m 2.9375,-6.375 c 0,-0.25 0,-0.265625 -0.234375,-0.265625 C 2.078125,-6 1.203125,-6 0.890625,-6 v 0.3125 c 0.203125,0 0.78125,0 1.296875,-0.265625 v 5.171875 c 0,0.359375 -0.03125,0.46875 -0.921875,0.46875 h -0.3125 V 0 c 0.34375,-0.03125 1.203125,-0.03125 1.609375,-0.03125 0.390625,0 1.265625,0 1.609375,0.03125 v -0.3125 h -0.3125 c -0.90625,0 -0.921875,-0.109375 -0.921875,-0.46875 z m 0,0"
               id="id-2e7e29bc-a9b6-402d-9e12-17f9ff0235fa" />
          </g>
        </g>
      </defs>
      <g
         fill="#00898a"
         fill-opacity="1"
         id="id-10297913-797f-4d94-bc65-c1e1198d1b93"
         transform="translate(-149.603,-128.124)">
        <g
           transform="translate(148.712,134.765)"
           id="g144">
          <path
             d="m 2.9375,-6.375 c 0,-0.25 0,-0.265625 -0.234375,-0.265625 C 2.078125,-6 1.203125,-6 0.890625,-6 v 0.3125 c 0.203125,0 0.78125,0 1.296875,-0.265625 v 5.171875 c 0,0.359375 -0.03125,0.46875 -0.921875,0.46875 h -0.3125 V 0 c 0.34375,-0.03125 1.203125,-0.03125 1.609375,-0.03125 0.390625,0 1.265625,0 1.609375,0.03125 v -0.3125 h -0.3125 c -0.90625,0 -0.921875,-0.109375 -0.921875,-0.46875 z m 0,0"
             id="id-7c2bbce9-5991-499e-82eb-4891e45e7874" />
        </g>
      </g>
    </g>
  </g>
  <path
     style="fill:none;stroke:#000000;stroke-width:0.599999;stroke-dasharray:none;stroke-opacity:1;marker-end:url(#Triangle-3)"
     d="m 53.2392,18.278173 -8.74323,7.80978"
     id="path100"
     inkscape:transform-center-x="-6.491881"
     inkscape:transform-center-y="-30.574556" />
</svg>
