<?xml version="1.0" encoding="UTF-8" standalone="no"?>
<!-- Created with Inkscape (http://www.inkscape.org/) -->

<svg
   width="73.560074mm"
   height="56.953278mm"
   viewBox="0 0 73.560073 56.953278"
   version="1.1"
   id="svg1"
   inkscape:version="1.4-dev (1:1.4.0-dev+202401190506+b37f861054)"
   sodipodi:docname="nullconstruction2.svg"
   inkscape:export-filename="nullconstruction2.png"
   inkscape:export-xdpi="300"
   inkscape:export-ydpi="300"
   xmlns:inkscape="http://www.inkscape.org/namespaces/inkscape"
   xmlns:sodipodi="http://sodipodi.sourceforge.net/DTD/sodipodi-0.dtd"
   xmlns="http://www.w3.org/2000/svg"
   xmlns:svg="http://www.w3.org/2000/svg"
   xmlns:ns13="http://www.iki.fi/pav/software/textext/">
  <sodipodi:namedview
     id="namedview1"
     pagecolor="#ffffff"
     bordercolor="#000000"
     borderopacity="0.25"
     inkscape:showpageshadow="2"
     inkscape:pageopacity="0.0"
     inkscape:pagecheckerboard="0"
     inkscape:deskcolor="#d1d1d1"
     inkscape:document-units="mm"
     inkscape:zoom="1.6707527"
     inkscape:cx="150.23169"
     inkscape:cy="58.955465"
     inkscape:window-width="1920"
     inkscape:window-height="1008"
     inkscape:window-x="0"
     inkscape:window-y="0"
     inkscape:window-maximized="1"
     inkscape:current-layer="layer1" />
  <defs
     id="defs1">
    <marker
       style="overflow:visible"
       id="Triangle"
       refX="0"
       refY="0"
       orient="auto-start-reverse"
       inkscape:stockid="Triangle arrow"
       markerWidth="0.5"
       markerHeight="0.60000002"
       viewBox="0 0 1 1"
       inkscape:isstock="true"
       inkscape:collect="always"
       preserveAspectRatio="xMidYMid">
      <path
         transform="scale(0.5)"
         style="fill:context-stroke;fill-rule:evenodd;stroke:context-stroke;stroke-width:1pt"
         d="M 5.77,0 -2.88,5 V -5 Z"
         id="path135" />
    </marker>
    <clipPath
       clipPathUnits="userSpaceOnUse"
       id="clipPath93">
      <path
         fill="none"
         stroke="#0071bc"
         stroke-width="0.198437"
         stroke-linecap="round"
         stroke-linejoin="round"
         stroke-miterlimit="10"
         d="m 102.1407,153.03366 c 1.83127,-0.0572 3.66892,-0.15026 5.4883,-0.42283 1.92641,-0.28931 3.81842,-0.76982 5.63186,-1.64381 1.80707,-0.87146 3.40434,-2.19207 4.88014,-3.73724 1.43462,-1.50118 2.69001,-3.34476 3.79421,-5.22173 1.13648,-1.93059 2.18972,-3.9335 3.16736,-5.99558 1.00737,-2.1243 1.97228,-4.27794 2.92868,-6.43814 0.93772,-2.11772 1.87672,-4.23242 2.85182,-6.32332 0.95301,-2.04439 1.98288,-4.0741 3.1886,-5.90455 0.62472,-0.94834 1.31314,-1.7935 2.08353,-2.55622 0.74959,-0.742 1.65461,-1.15976 2.60167,-1.24829 0.96066,-0.0895 1.87205,0.49568 2.64669,1.12992 0.79249,0.64893 1.45246,1.56086 2.06443,2.45003 1.26262,1.83043 2.27848,3.9168 3.27184,5.97939 0.96277,1.99937 1.85252,4.05336 2.75582,6.0942 0.95132,2.14959 1.90221,4.30019 2.90534,6.41437 0.97254,2.05147 1.9918,4.07562 3.12318,5.99761 1.15984,1.97154 2.43095,3.82576 3.88977,5.46703 1.43462,1.61244 3.07265,2.86932 4.84872,3.80705 1.70896,0.90282 3.5844,1.39545 5.42248,1.67162 1.88946,0.28476 3.78487,0.40615 5.68664,0.47443"
         id="path94"
         style="fill:#ffcccc;fill-opacity:1;stroke:#5d5d5d;stroke-width:0.797999;stroke-dasharray:none;stroke-opacity:1"
         sodipodi:nodetypes="ccccccccccccccccccccc" />
    </clipPath>
    <marker
       style="overflow:visible"
       id="marker55"
       refX="0"
       refY="0"
       orient="auto-start-reverse"
       inkscape:stockid="Triangle arrow"
       markerWidth="1"
       markerHeight="0.60000002"
       viewBox="0 0 1 1"
       inkscape:isstock="true"
       inkscape:collect="always"
       preserveAspectRatio="none">
      <path
         transform="scale(0.5)"
         style="fill:context-stroke;fill-rule:evenodd;stroke:context-stroke;stroke-width:1pt"
         d="M 5.77,0 -2.88,5 V -5 Z"
         id="path55" />
    </marker>
    <marker
       style="overflow:visible"
       id="marker56"
       refX="0"
       refY="0"
       orient="auto-start-reverse"
       inkscape:stockid="Triangle arrow"
       markerWidth="1"
       markerHeight="0.60000002"
       viewBox="0 0 1 1"
       inkscape:isstock="true"
       inkscape:collect="always"
       preserveAspectRatio="none">
      <path
         transform="scale(0.5)"
         style="fill:context-stroke;fill-rule:evenodd;stroke:context-stroke;stroke-width:1pt"
         d="M 5.77,0 -2.88,5 V -5 Z"
         id="path56" />
    </marker>
    <g
       id="id-9edb2c11-4e13-49f9-82ab-bb82d12a4861">
      <symbol
         overflow="visible"
         id="id-1a2f680c-f450-495b-97e3-01804df69a63">
        <path
           style="stroke:none"
           d=""
           id="id-3136745b-5cf9-413e-877d-b43d8bb8de66" />
      </symbol>
      <symbol
         overflow="visible"
         id="id-e478749a-eea1-4bcd-b4ce-a14576128bd9">
        <path
           style="stroke:none"
           d="M 3.890625,-3.734375 C 3.625,-3.71875 3.421875,-3.5 3.421875,-3.28125 c 0,0.140625 0.09375,0.296875 0.3125,0.296875 0.21875,0 0.453125,-0.171875 0.453125,-0.5625 C 4.1875,-4 3.765625,-4.40625 3,-4.40625 c -1.3125,0 -1.6875,1.015625 -1.6875,1.453125 0,0.78125 0.734375,0.921875 1.03125,0.984375 0.515625,0.109375 1.03125,0.21875 1.03125,0.765625 0,0.25 -0.21875,1.09375 -1.421875,1.09375 -0.140625,0 -0.90625,0 -1.140625,-0.53125 0.390625,0.046875 0.640625,-0.25 0.640625,-0.53125 0,-0.21875 -0.171875,-0.34375 -0.375,-0.34375 -0.265625,0 -0.5625,0.203125 -0.5625,0.65625 0,0.5625 0.578125,0.96875 1.421875,0.96875 1.625,0 2.015625,-1.203125 2.015625,-1.65625 0,-0.359375 -0.1875,-0.609375 -0.3125,-0.71875 -0.265625,-0.28125 -0.5625,-0.34375 -1,-0.421875 -0.359375,-0.078125 -0.75,-0.15625 -0.75,-0.609375 C 1.890625,-3.578125 2.125,-4.1875 3,-4.1875 c 0.25,0 0.75,0.078125 0.890625,0.453125 z m 0,0"
           id="id-2f4a4266-8838-48e3-b9e5-b4ff717a73d9" />
      </symbol>
      <symbol
         overflow="visible"
         id="id-cec2baf3-9609-4880-be7e-af7909c306b3">
        <path
           style="stroke:none"
           d="m 1.859375,-2.296875 c 0.296875,0 1.03125,-0.03125 1.53125,-0.234375 0.703125,-0.296875 0.75,-0.890625 0.75,-1.03125 0,-0.4375 -0.375,-0.84375 -1.0625,-0.84375 -1.109375,0 -2.625,0.96875 -2.625,2.71875 0,1.015625 0.59375,1.796875 1.578125,1.796875 1.421875,0 2.25,-1.0625 2.25,-1.171875 0,-0.0625 -0.046875,-0.140625 -0.109375,-0.140625 -0.0625,0 -0.078125,0.03125 -0.140625,0.109375 -0.78125,0.984375 -1.875,0.984375 -1.984375,0.984375 -0.78125,0 -0.875,-0.84375 -0.875,-1.15625 0,-0.125 0.015625,-0.421875 0.15625,-1.03125 z m -0.46875,-0.21875 C 1.78125,-4.03125 2.8125,-4.1875 3.078125,-4.1875 c 0.453125,0 0.734375,0.296875 0.734375,0.625 0,1.046875 -1.59375,1.046875 -2.015625,1.046875 z m 0,0"
           id="id-e86314c3-955f-4f16-96ed-c9c88b1bcc6b" />
      </symbol>
    </g>
  </defs>
  <g
     inkscape:label="Layer 1"
     inkscape:groupmode="layer"
     id="layer1"
     transform="translate(-100.18534,-101.37434)">
    <rect
       style="fill:none;stroke:#000000;stroke-width:0.6;stroke-dasharray:none;stroke-opacity:1"
       id="rect57"
       width="72.373138"
       height="42.863972"
       x="100.48534"
       y="110.4219" />
    <path
       style="fill:none;stroke:#000000;stroke-width:0.600001;stroke-dasharray:none;stroke-opacity:1"
       d="m 138.84217,152.53547 v 2.3952"
       id="path58" />
    <text
       xml:space="preserve"
       style="font-size:4.76944px;line-height:90%;font-family:sans-serif;text-decoration-color:#000000;fill:#000000;stroke-width:0.264583;-inkscape-stroke:none;stop-color:#000000"
       x="136.72314"
       y="104.6184"
       id="text44"><tspan
         sodipodi:role="line"
         id="tspan44"
         style="font-style:normal;font-variant:normal;font-weight:normal;font-stretch:normal;font-size:4.76944px;font-family:Calibri;-inkscape-font-specification:Calibri;text-align:center;text-anchor:middle;stroke-width:0.264583"
         x="136.72314"
         y="104.6184">Theoretische Stichprobenverteilung</tspan><tspan
         sodipodi:role="line"
         style="font-style:normal;font-variant:normal;font-weight:normal;font-stretch:normal;font-size:4.76944px;font-family:Calibri;-inkscape-font-specification:Calibri;text-align:center;text-anchor:middle;stroke-width:0.264583"
         x="136.72314"
         y="109.03373"
         id="tspan23">bei Annahme der Nullhypothese</tspan></text>
    <path
       fill="none"
       stroke="#0071bc"
       stroke-width="0.198437"
       stroke-linecap="round"
       stroke-linejoin="round"
       stroke-miterlimit="10"
       d="m 103.9479,153.03366 c 1.73543,-0.0572 3.47691,-0.15026 5.20107,-0.42283 1.82559,-0.28931 3.61858,-0.76982 5.33711,-1.64381 1.7125,-0.87146 3.22618,-2.19207 4.62474,-3.73724 1.35954,-1.50118 2.54923,-3.34476 3.59564,-5.22173 1.077,-1.93059 2.07512,-3.9335 3.00159,-5.99558 0.95465,-2.1243 1.86906,-4.27794 2.77541,-6.43814 0.88865,-2.11772 1.7785,-4.23242 2.70257,-6.32332 0.90313,-2.04439 1.87911,-4.0741 3.02172,-5.90455 0.59203,-0.94834 1.24442,-1.79351 1.97449,-2.55623 0.71036,-0.742 1.56802,-1.15976 2.46551,-1.24829 0.91039,-0.0895 1.77408,0.49568 2.50818,1.12992 0.75101,0.64893 1.37644,1.56087 1.95638,2.45004 1.19654,1.83043 2.15924,3.9168 3.10061,5.97939 0.91238,1.99937 1.75557,4.05336 2.61159,6.0942 0.90154,2.14959 1.80266,4.30019 2.75329,6.41437 0.92164,2.05147 1.88756,4.07562 2.95973,5.99761 1.09914,1.97154 2.30373,3.82576 3.6862,5.46703 1.35954,1.61244 2.91184,2.86932 4.59496,3.80705 1.61952,0.90282 3.39681,1.39545 5.13869,1.67162 1.79058,0.28476 3.58679,0.40615 5.38903,0.47443"
       id="path60"
       style="fill:none;fill-opacity:1;stroke:#5d5d5d;stroke-width:0.798;stroke-dasharray:none;stroke-opacity:1"
       sodipodi:nodetypes="ccccccccccccccccccccc" />
    <path
       style="fill:none;stroke:#000000;stroke-width:0.600001;stroke-dasharray:none;stroke-opacity:1;marker-end:url(#Triangle)"
       d="m 121.58013,125.18997 3.90516,4.36836"
       id="path1"
       inkscape:transform-center-x="0.55287756"
       inkscape:transform-center-y="3.6721921" />
    <text
       xml:space="preserve"
       style="font-size:3.86681px;line-height:90%;font-family:sans-serif;text-decoration-color:#000000;fill:#000000;stroke-width:0.264583;-inkscape-stroke:none;stop-color:#000000"
       x="107.6591"
       y="119.0899"
       id="text1"><tspan
         sodipodi:role="line"
         style="font-style:normal;font-variant:normal;font-weight:normal;font-stretch:normal;font-size:3.86681px;font-family:Calibri;-inkscape-font-specification:Calibri;stroke-width:0.264583"
         x="107.6591"
         y="119.0899"
         id="tspan3">Normal-</tspan><tspan
         sodipodi:role="line"
         style="font-style:normal;font-variant:normal;font-weight:normal;font-stretch:normal;font-size:3.86681px;font-family:Calibri;-inkscape-font-specification:Calibri;stroke-width:0.264583"
         x="107.6591"
         y="122.66962"
         id="tspan27">verteilung</tspan></text>
    <path
       style="fill:none;stroke:#000000;stroke-width:0.3;stroke-dasharray:none;stroke-dashoffset:0;stroke-opacity:1"
       d="m 138.84603,113.67944 v 39.52731"
       id="path46-0" />
    <text
       xml:space="preserve"
       style="font-size:3.86681px;line-height:90%;font-family:sans-serif;text-decoration-color:#000000;fill:#000000;stroke-width:0.264583;-inkscape-stroke:none;stop-color:#000000"
       x="139.77892"
       y="158.29175"
       id="text4"><tspan
         sodipodi:role="line"
         style="font-style:normal;font-variant:normal;font-weight:normal;font-stretch:normal;font-size:3.86681px;font-family:Calibri;-inkscape-font-specification:Calibri;text-align:end;text-anchor:end;stroke-width:0.264583"
         x="139.77892"
         y="158.29175"
         id="tspan6">0</tspan></text>
    <g
       transform="matrix(0.63138568,0,0,0.63138568,131.35207,133.61873)"
       ns13:version="1.9.0"
       ns13:texconverter="pdflatex"
       ns13:pdfconverter="inkscape"
       ns13:text="\\definecolor{mycyan}{RGB}{0, 137, 138}\r\n$\\color{mycyan}{se}$"
       ns13:preamble="/home/matteo/.config/inkscape/extensions/textext/default_packages.tex"
       ns13:scale="1.375042387340929"
       ns13:alignment="middle center"
       ns13:stroke-to-path="0"
       ns13:inkscapeversion="1.4-dev"
       ns13:jacobian_sqrt="0.485086"
       id="g81"
       style="stroke-width:0.768288">
      <defs
         id="id-9bb41cf9-4bed-408d-809f-2e612fdc317c">
        <g
           id="g29">
          <symbol
             overflow="visible"
             id="symbol27">
            <path
               style="stroke:none"
               d=""
               id="path27" />
          </symbol>
          <symbol
             overflow="visible"
             id="symbol28">
            <path
               style="stroke:none"
               d="M 3.890625,-3.734375 C 3.625,-3.71875 3.421875,-3.5 3.421875,-3.28125 c 0,0.140625 0.09375,0.296875 0.3125,0.296875 0.21875,0 0.453125,-0.171875 0.453125,-0.5625 C 4.1875,-4 3.765625,-4.40625 3,-4.40625 c -1.3125,0 -1.6875,1.015625 -1.6875,1.453125 0,0.78125 0.734375,0.921875 1.03125,0.984375 0.515625,0.109375 1.03125,0.21875 1.03125,0.765625 0,0.25 -0.21875,1.09375 -1.421875,1.09375 -0.140625,0 -0.90625,0 -1.140625,-0.53125 0.390625,0.046875 0.640625,-0.25 0.640625,-0.53125 0,-0.21875 -0.171875,-0.34375 -0.375,-0.34375 -0.265625,0 -0.5625,0.203125 -0.5625,0.65625 0,0.5625 0.578125,0.96875 1.421875,0.96875 1.625,0 2.015625,-1.203125 2.015625,-1.65625 0,-0.359375 -0.1875,-0.609375 -0.3125,-0.71875 -0.265625,-0.28125 -0.5625,-0.34375 -1,-0.421875 -0.359375,-0.078125 -0.75,-0.15625 -0.75,-0.609375 C 1.890625,-3.578125 2.125,-4.1875 3,-4.1875 c 0.25,0 0.75,0.078125 0.890625,0.453125 z m 0,0"
               id="path28" />
          </symbol>
          <symbol
             overflow="visible"
             id="symbol29">
            <path
               style="stroke:none"
               d="m 1.859375,-2.296875 c 0.296875,0 1.03125,-0.03125 1.53125,-0.234375 0.703125,-0.296875 0.75,-0.890625 0.75,-1.03125 0,-0.4375 -0.375,-0.84375 -1.0625,-0.84375 -1.109375,0 -2.625,0.96875 -2.625,2.71875 0,1.015625 0.59375,1.796875 1.578125,1.796875 1.421875,0 2.25,-1.0625 2.25,-1.171875 0,-0.0625 -0.046875,-0.140625 -0.109375,-0.140625 -0.0625,0 -0.078125,0.03125 -0.140625,0.109375 -0.78125,0.984375 -1.875,0.984375 -1.984375,0.984375 -0.78125,0 -0.875,-0.84375 -0.875,-1.15625 0,-0.125 0.015625,-0.421875 0.15625,-1.03125 z m -0.46875,-0.21875 C 1.78125,-4.03125 2.8125,-4.1875 3.078125,-4.1875 c 0.453125,0 0.734375,0.296875 0.734375,0.625 0,1.046875 -1.59375,1.046875 -2.015625,1.046875 z m 0,0"
               id="path29" />
          </symbol>
        </g>
      </defs>
      <g
         id="id-85769bdd-25e7-4f42-a492-88e79232f76c"
         transform="translate(-149.228,-130.359)"
         style="stroke-width:0.768288">
        <g
           style="fill:#00878a;fill-opacity:1;stroke-width:0.768288"
           id="id-b38ebe10-7acc-43dc-bd26-c8e9346b6628">
          <g
             transform="translate(148.712,134.765)"
             id="g16"
             style="stroke-width:0.768288">
            <path
               style="stroke:none;stroke-width:0.768288"
               d="M 3.890625,-3.734375 C 3.625,-3.71875 3.421875,-3.5 3.421875,-3.28125 c 0,0.140625 0.09375,0.296875 0.3125,0.296875 0.21875,0 0.453125,-0.171875 0.453125,-0.5625 C 4.1875,-4 3.765625,-4.40625 3,-4.40625 c -1.3125,0 -1.6875,1.015625 -1.6875,1.453125 0,0.78125 0.734375,0.921875 1.03125,0.984375 0.515625,0.109375 1.03125,0.21875 1.03125,0.765625 0,0.25 -0.21875,1.09375 -1.421875,1.09375 -0.140625,0 -0.90625,0 -1.140625,-0.53125 0.390625,0.046875 0.640625,-0.25 0.640625,-0.53125 0,-0.21875 -0.171875,-0.34375 -0.375,-0.34375 -0.265625,0 -0.5625,0.203125 -0.5625,0.65625 0,0.5625 0.578125,0.96875 1.421875,0.96875 1.625,0 2.015625,-1.203125 2.015625,-1.65625 0,-0.359375 -0.1875,-0.609375 -0.3125,-0.71875 -0.265625,-0.28125 -0.5625,-0.34375 -1,-0.421875 -0.359375,-0.078125 -0.75,-0.15625 -0.75,-0.609375 C 1.890625,-3.578125 2.125,-4.1875 3,-4.1875 c 0.25,0 0.75,0.078125 0.890625,0.453125 z m 0,0"
               id="id-5a25908a-9130-43f5-82ac-bd92aefc4017" />
          </g>
          <g
             transform="translate(153.382,134.765)"
             id="g17"
             style="stroke-width:0.768288">
            <path
               style="stroke:none;stroke-width:0.768288"
               d="m 1.859375,-2.296875 c 0.296875,0 1.03125,-0.03125 1.53125,-0.234375 0.703125,-0.296875 0.75,-0.890625 0.75,-1.03125 0,-0.4375 -0.375,-0.84375 -1.0625,-0.84375 -1.109375,0 -2.625,0.96875 -2.625,2.71875 0,1.015625 0.59375,1.796875 1.578125,1.796875 1.421875,0 2.25,-1.0625 2.25,-1.171875 0,-0.0625 -0.046875,-0.140625 -0.109375,-0.140625 -0.0625,0 -0.078125,0.03125 -0.140625,0.109375 -0.78125,0.984375 -1.875,0.984375 -1.984375,0.984375 -0.78125,0 -0.875,-0.84375 -0.875,-1.15625 0,-0.125 0.015625,-0.421875 0.15625,-1.03125 z m -0.46875,-0.21875 C 1.78125,-4.03125 2.8125,-4.1875 3.078125,-4.1875 c 0.453125,0 0.734375,0.296875 0.734375,0.625 0,1.046875 -1.59375,1.046875 -2.015625,1.046875 z m 0,0"
               id="id-4edc6ba8-3ce4-4ca3-bd43-4742676c2d6b" />
          </g>
        </g>
      </g>
    </g>
    <path
       style="fill:none;stroke:#00898a;stroke-width:0.600002;stroke-dasharray:none;stroke-opacity:1;marker-start:url(#marker55);marker-end:url(#marker56)"
       d="M 149.6835,137.51503 H 127.59063"
       id="path57" />
  </g>
</svg>
