<?xml version="1.0" encoding="UTF-8" standalone="no"?>
<!-- Created with Inkscape (http://www.inkscape.org/) -->

<svg
   width="75.836067mm"
   height="147.47548mm"
   viewBox="0 0 75.836069 147.47548"
   version="1.1"
   id="svg1"
   xml:space="preserve"
   inkscape:version="1.4-dev (1:1.4.0-dev+202401190506+b37f861054)"
   sodipodi:docname="population_stichprobe_inferenz.svg"
   inkscape:export-filename="population_stichprobe_inferenz.png"
   inkscape:export-xdpi="350"
   inkscape:export-ydpi="350"
   xmlns:inkscape="http://www.inkscape.org/namespaces/inkscape"
   xmlns:sodipodi="http://sodipodi.sourceforge.net/DTD/sodipodi-0.dtd"
   xmlns="http://www.w3.org/2000/svg"
   xmlns:svg="http://www.w3.org/2000/svg"><sodipodi:namedview
     id="namedview1"
     pagecolor="#ffffff"
     bordercolor="#000000"
     borderopacity="0.25"
     inkscape:showpageshadow="2"
     inkscape:pageopacity="0.0"
     inkscape:pagecheckerboard="0"
     inkscape:deskcolor="#d1d1d1"
     inkscape:document-units="mm"
     inkscape:zoom="1.6035851"
     inkscape:cx="54.565237"
     inkscape:cy="262.22494"
     inkscape:window-width="2560"
     inkscape:window-height="1368"
     inkscape:window-x="2560"
     inkscape:window-y="0"
     inkscape:window-maximized="1"
     inkscape:current-layer="layer1"
     showguides="false" /><defs
     id="defs1"><marker
       style="overflow:visible"
       id="Triangle"
       refX="0"
       refY="0"
       orient="auto-start-reverse"
       inkscape:stockid="Triangle arrow"
       markerWidth="0.69999999"
       markerHeight="0.69999999"
       viewBox="0 0 1 1"
       inkscape:isstock="true"
       inkscape:collect="always"
       preserveAspectRatio="xMidYMid"><path
         transform="scale(0.5)"
         style="fill:context-stroke;fill-rule:evenodd;stroke:context-stroke;stroke-width:1pt"
         d="M 5.77,0 -2.88,5 V -5 Z"
         id="path135" /></marker></defs><g
     inkscape:label="Layer 1"
     inkscape:groupmode="layer"
     id="layer1"
     transform="translate(-138.18951,-39.236163)"><text
       xml:space="preserve"
       style="font-size:7.75972px;line-height:80%;font-family:sans-serif;text-decoration-color:#000000;fill:#00b91a;fill-opacity:1;stroke-width:0.264583;-inkscape-stroke:none;stop-color:#000000"
       x="151.8531"
       y="44.858929"
       id="text41"><tspan
         sodipodi:role="line"
         id="tspan41"
         style="font-style:normal;font-weight:bold;line-height:80%;fill:#00b91a;fill-opacity:1;stroke-width:0.264583"
         x="151.8531"
         y="44.858929">Population</tspan><tspan
         sodipodi:role="line"
         style="font-style:italic;font-weight:normal;font-size:5.29167px;line-height:80%;fill:#00b91a;fill-opacity:1;stroke-width:0.264583"
         x="151.8531"
         y="51.066704"
         id="tspan200">Populationskennwert</tspan></text><g
       id="g136"
       transform="translate(129.31395,-12.100516)"
       style="fill:#00b91a;fill-opacity:1"><path
         d="m 21.34819,83.904871 h 3.017018 c 1.584546,0 2.869054,1.545719 2.869054,3.452475 v 1.9591 h -8.755126 v -1.9591 c 0,-1.906756 1.284508,-3.452475 2.869054,-3.452475 z"
         fill="#6a6a6a"
         fill-rule="evenodd"
         id="path134"
         style="fill:#00b91a;fill-opacity:1;stroke-width:0.0486747" /><path
         d="m 19.827195,81.052495 c 0,-1.673148 1.356375,-3.029505 3.029504,-3.029505 1.67313,0 3.029505,1.356357 3.029505,3.029505 0,1.673129 -1.356375,3.029504 -3.029505,3.029504 -1.673129,0 -3.029504,-1.356375 -3.029504,-3.029504 z"
         fill="#6a6a6a"
         fill-rule="evenodd"
         id="path136"
         style="fill:#00b91a;fill-opacity:1;stroke-width:0.0486747" /></g><circle
       style="fill:none;fill-opacity:1;stroke:#00b91a;stroke-width:0.8;stroke-dasharray:none;stroke-opacity:1"
       id="circle136"
       cx="171.20834"
       cy="85.75708"
       r="32.618832" /><g
       id="g138"
       transform="translate(151.18208,-22.955287)"
       style="fill:#00b91a;fill-opacity:1"><path
         d="m 21.34819,83.904871 h 3.017018 c 1.584546,0 2.869054,1.545719 2.869054,3.452475 v 1.9591 h -8.755126 v -1.9591 c 0,-1.906756 1.284508,-3.452475 2.869054,-3.452475 z"
         fill="#6a6a6a"
         fill-rule="evenodd"
         id="path137"
         style="fill:#00b91a;fill-opacity:1;stroke-width:0.0486747" /><path
         d="m 19.827195,81.052495 c 0,-1.673148 1.356375,-3.029505 3.029504,-3.029505 1.67313,0 3.029505,1.356357 3.029505,3.029505 0,1.673129 -1.356375,3.029504 -3.029505,3.029504 -1.673129,0 -3.029504,-1.356375 -3.029504,-3.029504 z"
         fill="#6a6a6a"
         fill-rule="evenodd"
         id="path138"
         style="fill:#00b91a;fill-opacity:1;stroke-width:0.0486747" /></g><g
       id="g140"
       transform="translate(166.65207,-15.736235)"
       style="fill:#00b91a;fill-opacity:1"><path
         d="m 21.34819,83.904871 h 3.017018 c 1.584546,0 2.869054,1.545719 2.869054,3.452475 v 1.9591 h -8.755126 v -1.9591 c 0,-1.906756 1.284508,-3.452475 2.869054,-3.452475 z"
         fill="#6a6a6a"
         fill-rule="evenodd"
         id="path139"
         style="fill:#00b91a;fill-opacity:1;stroke-width:0.0486747" /><path
         d="m 19.827195,81.052495 c 0,-1.673148 1.356375,-3.029505 3.029504,-3.029505 1.67313,0 3.029505,1.356357 3.029505,3.029505 0,1.673129 -1.356375,3.029504 -3.029505,3.029504 -1.673129,0 -3.029504,-1.356375 -3.029504,-3.029504 z"
         fill="#6a6a6a"
         fill-rule="evenodd"
         id="path140"
         style="fill:#00b91a;fill-opacity:1;stroke-width:0.0486747" /></g><g
       id="g142"
       transform="translate(123.26615,1.9060863)"
       style="fill:#00b91a;fill-opacity:1"><path
         d="m 21.34819,83.904871 h 3.017018 c 1.584546,0 2.869054,1.545719 2.869054,3.452475 v 1.9591 h -8.755126 v -1.9591 c 0,-1.906756 1.284508,-3.452475 2.869054,-3.452475 z"
         fill="#6a6a6a"
         fill-rule="evenodd"
         id="path141"
         style="fill:#00b91a;fill-opacity:1;stroke-width:0.0486747" /><path
         d="m 19.827195,81.052495 c 0,-1.673148 1.356375,-3.029505 3.029504,-3.029505 1.67313,0 3.029505,1.356357 3.029505,3.029505 0,1.673129 -1.356375,3.029504 -3.029505,3.029504 -1.673129,0 -3.029504,-1.356375 -3.029504,-3.029504 z"
         fill="#6a6a6a"
         fill-rule="evenodd"
         id="path142"
         style="fill:#00b91a;fill-opacity:1;stroke-width:0.0486747" /></g><g
       id="g144"
       transform="translate(141.45469,-10.185186)"
       style="fill:#00b91a;fill-opacity:1"><path
         d="m 21.34819,83.904871 h 3.017018 c 1.584546,0 2.869054,1.545719 2.869054,3.452475 v 1.9591 h -8.755126 v -1.9591 c 0,-1.906756 1.284508,-3.452475 2.869054,-3.452475 z"
         fill="#6a6a6a"
         fill-rule="evenodd"
         id="path143"
         style="fill:#00b91a;fill-opacity:1;stroke-width:0.0486747" /><path
         d="m 19.827195,81.052495 c 0,-1.673148 1.356375,-3.029505 3.029504,-3.029505 1.67313,0 3.029505,1.356357 3.029505,3.029505 0,1.673129 -1.356375,3.029504 -3.029505,3.029504 -1.673129,0 -3.029504,-1.356375 -3.029504,-3.029504 z"
         fill="#6a6a6a"
         fill-rule="evenodd"
         id="path144"
         style="fill:#00b91a;fill-opacity:1;stroke-width:0.0486747" /></g><g
       id="g146"
       transform="translate(170.08199,2.6899683)"
       style="fill:#00b91a;fill-opacity:1"><path
         d="m 21.34819,83.904871 h 3.017018 c 1.584546,0 2.869054,1.545719 2.869054,3.452475 v 1.9591 h -8.755126 v -1.9591 c 0,-1.906756 1.284508,-3.452475 2.869054,-3.452475 z"
         fill="#6a6a6a"
         fill-rule="evenodd"
         id="path145"
         style="fill:#00b91a;fill-opacity:1;stroke-width:0.0486747" /><path
         d="m 19.827195,81.052495 c 0,-1.673148 1.356375,-3.029505 3.029504,-3.029505 1.67313,0 3.029505,1.356357 3.029505,3.029505 0,1.673129 -1.356375,3.029504 -3.029505,3.029504 -1.673129,0 -3.029504,-1.356375 -3.029504,-3.029504 z"
         fill="#6a6a6a"
         fill-rule="evenodd"
         id="path146"
         style="fill:#00b91a;fill-opacity:1;stroke-width:0.0486747" /></g><g
       id="g148"
       transform="translate(141.78435,7.4163465)"
       style="fill:#00b91a;fill-opacity:1"><path
         d="m 21.34819,83.904871 h 3.017018 c 1.584546,0 2.869054,1.545719 2.869054,3.452475 v 1.9591 h -8.755126 v -1.9591 c 0,-1.906756 1.284508,-3.452475 2.869054,-3.452475 z"
         fill="#6a6a6a"
         fill-rule="evenodd"
         id="path147"
         style="fill:#00b91a;fill-opacity:1;stroke-width:0.0486747" /><path
         d="m 19.827195,81.052495 c 0,-1.673148 1.356375,-3.029505 3.029504,-3.029505 1.67313,0 3.029505,1.356357 3.029505,3.029505 0,1.673129 -1.356375,3.029504 -3.029505,3.029504 -1.673129,0 -3.029504,-1.356375 -3.029504,-3.029504 z"
         fill="#6a6a6a"
         fill-rule="evenodd"
         id="path148"
         style="fill:#00b91a;fill-opacity:1;stroke-width:0.0486747" /></g><g
       id="g179"
       transform="translate(137.62322,20.194499)"
       style="fill:#00b91a;fill-opacity:1"><path
         d="m 21.34819,83.904871 h 3.017018 c 1.584546,0 2.869054,1.545719 2.869054,3.452475 v 1.9591 h -8.755126 v -1.9591 c 0,-1.906756 1.284508,-3.452475 2.869054,-3.452475 z"
         fill="#6a6a6a"
         fill-rule="evenodd"
         id="path178"
         style="fill:#00b91a;fill-opacity:1;stroke-width:0.0486747" /><path
         d="m 19.827195,81.052495 c 0,-1.673148 1.356375,-3.029505 3.029504,-3.029505 1.67313,0 3.029505,1.356357 3.029505,3.029505 0,1.673129 -1.356375,3.029504 -3.029505,3.029504 -1.673129,0 -3.029504,-1.356375 -3.029504,-3.029504 z"
         fill="#6a6a6a"
         fill-rule="evenodd"
         id="path179"
         style="fill:#00b91a;fill-opacity:1;stroke-width:0.0486747" /></g><g
       id="g181"
       transform="translate(153.1529,11.297329)"
       style="fill:#00b91a;fill-opacity:1"><path
         d="m 21.34819,83.904871 h 3.017018 c 1.584546,0 2.869054,1.545719 2.869054,3.452475 v 1.9591 h -8.755126 v -1.9591 c 0,-1.906756 1.284508,-3.452475 2.869054,-3.452475 z"
         fill="#6a6a6a"
         fill-rule="evenodd"
         id="path180"
         style="fill:#00b91a;fill-opacity:1;stroke-width:0.0486747" /><path
         d="m 19.827195,81.052495 c 0,-1.673148 1.356375,-3.029505 3.029504,-3.029505 1.67313,0 3.029505,1.356357 3.029505,3.029505 0,1.673129 -1.356375,3.029504 -3.029505,3.029504 -1.673129,0 -3.029504,-1.356375 -3.029504,-3.029504 z"
         fill="#6a6a6a"
         fill-rule="evenodd"
         id="path181"
         style="fill:#00b91a;fill-opacity:1;stroke-width:0.0486747" /></g><g
       id="g185"
       transform="translate(156.16764,-8.1137217)"
       style="fill:#00b91a;fill-opacity:1"><path
         d="m 21.34819,83.904871 h 3.017018 c 1.584546,0 2.869054,1.545719 2.869054,3.452475 v 1.9591 h -8.755126 v -1.9591 c 0,-1.906756 1.284508,-3.452475 2.869054,-3.452475 z"
         fill="#6a6a6a"
         fill-rule="evenodd"
         id="path184"
         style="fill:#00b91a;fill-opacity:1;stroke-width:0.0486747" /><path
         d="m 19.827195,81.052495 c 0,-1.673148 1.356375,-3.029505 3.029504,-3.029505 1.67313,0 3.029505,1.356357 3.029505,3.029505 0,1.673129 -1.356375,3.029504 -3.029505,3.029504 -1.673129,0 -3.029504,-1.356375 -3.029504,-3.029504 z"
         fill="#6a6a6a"
         fill-rule="evenodd"
         id="path185"
         style="fill:#00b91a;fill-opacity:1;stroke-width:0.0486747" /></g><g
       id="g187"
       transform="translate(168.29086,16.249725)"
       style="fill:#00b91a;fill-opacity:1"><path
         d="m 21.34819,83.904871 h 3.017018 c 1.584546,0 2.869054,1.545719 2.869054,3.452475 v 1.9591 h -8.755126 v -1.9591 c 0,-1.906756 1.284508,-3.452475 2.869054,-3.452475 z"
         fill="#6a6a6a"
         fill-rule="evenodd"
         id="path186"
         style="fill:#00b91a;fill-opacity:1;stroke-width:0.0486747" /><path
         d="m 19.827195,81.052495 c 0,-1.673148 1.356375,-3.029505 3.029504,-3.029505 1.67313,0 3.029505,1.356357 3.029505,3.029505 0,1.673129 -1.356375,3.029504 -3.029505,3.029504 -1.673129,0 -3.029504,-1.356375 -3.029504,-3.029504 z"
         fill="#6a6a6a"
         fill-rule="evenodd"
         id="path187"
         style="fill:#00b91a;fill-opacity:1;stroke-width:0.0486747" /></g><g
       id="g189"
       transform="translate(148.60215,24.260145)"
       style="fill:#00b91a;fill-opacity:1"><path
         d="m 21.34819,83.904871 h 3.017018 c 1.584546,0 2.869054,1.545719 2.869054,3.452475 v 1.9591 h -8.755126 v -1.9591 c 0,-1.906756 1.284508,-3.452475 2.869054,-3.452475 z"
         fill="#6a6a6a"
         fill-rule="evenodd"
         id="path188"
         style="fill:#00b91a;fill-opacity:1;stroke-width:0.0486747" /><path
         d="m 19.827195,81.052495 c 0,-1.673148 1.356375,-3.029505 3.029504,-3.029505 1.67313,0 3.029505,1.356357 3.029505,3.029505 0,1.673129 -1.356375,3.029504 -3.029505,3.029504 -1.673129,0 -3.029504,-1.356375 -3.029504,-3.029504 z"
         fill="#6a6a6a"
         fill-rule="evenodd"
         id="path189"
         style="fill:#00b91a;fill-opacity:1;stroke-width:0.0486747" /></g><circle
       style="fill:none;fill-opacity:1;stroke:#000db2;stroke-width:0.8;stroke-dasharray:1.6, 0.8;stroke-dashoffset:0;stroke-opacity:1"
       id="circle189"
       cx="167.85677"
       cy="99.399658"
       r="17.333567" /><path
       style="fill:none;fill-opacity:1;stroke:#000db2;stroke-width:0.8;stroke-dasharray:1.6, 0.8;stroke-dashoffset:0;stroke-opacity:1;marker-start:url(#Triangle)"
       id="circle190"
       sodipodi:type="arc"
       sodipodi:cx="174.82527"
       sodipodi:cy="127.78236"
       sodipodi:rx="32.618832"
       sodipodi:ry="32.618832"
       sodipodi:start="2.4751825"
       sodipodi:end="3.9288859"
       sodipodi:open="true"
       sodipodi:arc-type="arc"
       d="m 149.18537,147.94628 a 32.618832,32.618832 0 0 1 2.61866,-43.27259" /><g
       id="g191"
       transform="translate(142.30105,62.187005)"
       style="fill:#000db2;fill-opacity:1"><path
         d="m 21.34819,83.904871 h 3.017018 c 1.584546,0 2.869054,1.545719 2.869054,3.452475 v 1.9591 h -8.755126 v -1.9591 c 0,-1.906756 1.284508,-3.452475 2.869054,-3.452475 z"
         fill="#6a6a6a"
         fill-rule="evenodd"
         id="path190"
         style="fill:#000db2;fill-opacity:1;stroke-width:0.0486747" /><path
         d="m 19.827195,81.052495 c 0,-1.673148 1.356375,-3.029505 3.029504,-3.029505 1.67313,0 3.029505,1.356357 3.029505,3.029505 0,1.673129 -1.356375,3.029504 -3.029505,3.029504 -1.673129,0 -3.029504,-1.356375 -3.029504,-3.029504 z"
         fill="#6a6a6a"
         fill-rule="evenodd"
         id="path191"
         style="fill:#000db2;fill-opacity:1;stroke-width:0.0486747" /></g><g
       id="g193"
       transform="translate(138.13992,74.965158)"
       style="fill:#000db2;fill-opacity:1"><path
         d="m 21.34819,83.904871 h 3.017018 c 1.584546,0 2.869054,1.545719 2.869054,3.452475 v 1.9591 h -8.755126 v -1.9591 c 0,-1.906756 1.284508,-3.452475 2.869054,-3.452475 z"
         fill="#6a6a6a"
         fill-rule="evenodd"
         id="path192"
         style="fill:#000db2;fill-opacity:1;stroke-width:0.0486747" /><path
         d="m 19.827195,81.052495 c 0,-1.673148 1.356375,-3.029505 3.029504,-3.029505 1.67313,0 3.029505,1.356357 3.029505,3.029505 0,1.673129 -1.356375,3.029504 -3.029505,3.029504 -1.673129,0 -3.029504,-1.356375 -3.029504,-3.029504 z"
         fill="#6a6a6a"
         fill-rule="evenodd"
         id="path193"
         style="fill:#000db2;fill-opacity:1;stroke-width:0.0486747" /></g><g
       id="g195"
       transform="translate(153.6696,66.067988)"
       style="fill:#000db2;fill-opacity:1"><path
         d="m 21.34819,83.904871 h 3.017018 c 1.584546,0 2.869054,1.545719 2.869054,3.452475 v 1.9591 h -8.755126 v -1.9591 c 0,-1.906756 1.284508,-3.452475 2.869054,-3.452475 z"
         fill="#6a6a6a"
         fill-rule="evenodd"
         id="path194"
         style="fill:#000db2;fill-opacity:1;stroke-width:0.0486747" /><path
         d="m 19.827195,81.052495 c 0,-1.673148 1.356375,-3.029505 3.029504,-3.029505 1.67313,0 3.029505,1.356357 3.029505,3.029505 0,1.673129 -1.356375,3.029504 -3.029505,3.029504 -1.673129,0 -3.029504,-1.356375 -3.029504,-3.029504 z"
         fill="#6a6a6a"
         fill-rule="evenodd"
         id="path195"
         style="fill:#000db2;fill-opacity:1;stroke-width:0.0486747" /></g><g
       id="g197"
       transform="translate(149.11885,79.030804)"
       style="fill:#000db2;fill-opacity:1"><path
         d="m 21.34819,83.904871 h 3.017018 c 1.584546,0 2.869054,1.545719 2.869054,3.452475 v 1.9591 h -8.755126 v -1.9591 c 0,-1.906756 1.284508,-3.452475 2.869054,-3.452475 z"
         fill="#6a6a6a"
         fill-rule="evenodd"
         id="path196"
         style="fill:#000db2;fill-opacity:1;stroke-width:0.0486747" /><path
         d="m 19.827195,81.052495 c 0,-1.673148 1.356375,-3.029505 3.029504,-3.029505 1.67313,0 3.029505,1.356357 3.029505,3.029505 0,1.673129 -1.356375,3.029504 -3.029505,3.029504 -1.673129,0 -3.029504,-1.356375 -3.029504,-3.029504 z"
         fill="#6a6a6a"
         fill-rule="evenodd"
         id="path197"
         style="fill:#000db2;fill-opacity:1;stroke-width:0.0486747" /></g><circle
       style="fill:none;fill-opacity:1;stroke:#000db2;stroke-width:0.8;stroke-dasharray:1.6, 0.8;stroke-dashoffset:0;stroke-opacity:1"
       id="circle197"
       cx="168.37347"
       cy="154.17032"
       r="17.333567" /><path
       style="fill:none;fill-opacity:1;stroke:#c89f00;stroke-width:0.800001;stroke-dasharray:none;stroke-opacity:1;marker-start:url(#Triangle)"
       id="path198"
       sodipodi:type="arc"
       sodipodi:cx="-190.77258"
       sodipodi:cy="-100.91888"
       sodipodi:rx="22.802574"
       sodipodi:ry="29.554258"
       sodipodi:start="2.4751825"
       sodipodi:end="3.9288859"
       sodipodi:open="true"
       sodipodi:arc-type="arc"
       d="m -208.69645,-82.649374 a 22.802574,29.554258 0 0 1 1.8306,-39.207086"
       transform="rotate(-171.56218)" /><rect
       style="fill:#ffffff;fill-opacity:1;stroke:#c89f00;stroke-width:0.8;stroke-dasharray:none;stroke-dashoffset:0;stroke-opacity:1"
       id="rect202"
       width="33.037369"
       height="19.657747"
       x="180.58821"
       y="119.88776"
       rx="0.56814164"
       ry="1.3546101" /><text
       xml:space="preserve"
       style="font-size:7.75972px;line-height:0;font-family:sans-serif;text-decoration-color:#000000;fill:#000000;stroke-width:0.264583;-inkscape-stroke:none;stop-color:#000000"
       x="149.6176"
       y="179.29749"
       id="text198"><tspan
         sodipodi:role="line"
         id="tspan198"
         style="font-style:normal;font-weight:bold;line-height:90%;fill:#000db2;fill-opacity:1;stroke-width:0.264583"
         x="149.6176"
         y="179.29749">Stichprobe</tspan><tspan
         sodipodi:role="line"
         style="font-style:italic;font-weight:normal;font-size:5.29167px;line-height:6.98375px;fill:#000db2;fill-opacity:1;stroke-width:0.264583"
         x="149.6176"
         y="185.61351"
         id="tspan199">Stichprobenkennwerte</tspan></text><text
       xml:space="preserve"
       style="font-size:7.75972px;line-height:0;font-family:sans-serif;text-decoration-color:#000000;fill:#00b91a;fill-opacity:1;stroke-width:0.264583;-inkscape-stroke:none;stop-color:#000000"
       x="182.85049"
       y="127.51864"
       id="text202"><tspan
         sodipodi:role="line"
         style="font-style:normal;font-weight:bold;font-size:7.75972px;line-height:80%;fill:#c89f00;fill-opacity:1;stroke-width:0.264583"
         x="182.85049"
         y="127.51864"
         id="tspan203">Inferenz</tspan></text><text
       xml:space="preserve"
       style="font-size:7.75972px;line-height:0.6;font-family:sans-serif;text-decoration-color:#000000;fill:#00b91a;fill-opacity:1;stroke-width:0.264583;-inkscape-stroke:none;stop-color:#000000"
       x="182.85049"
       y="132.8103"
       id="text206"><tspan
         style="font-style:italic;font-weight:normal;font-size:5.29167px;line-height:0.6;fill:#c89f00;fill-opacity:1;stroke-width:0.264583"
         sodipodi:role="line"
         id="tspan207"
         x="182.85049"
         y="132.8103">Inferentielle </tspan><tspan
         sodipodi:role="line"
         style="font-style:italic;font-weight:normal;font-size:5.29167px;line-height:0.6;fill:#c89f00;fill-opacity:1;stroke-width:0.264583"
         x="182.85049"
         y="137.46614"
         id="tspan206">Kennwerte</tspan></text></g></svg>
