<?xml version="1.0" encoding="UTF-8" standalone="no"?>
<!-- Created with Inkscape (http://www.inkscape.org/) -->

<svg
   width="201.13741mm"
   height="160.3856mm"
   viewBox="0 0 201.13741 160.38561"
   version="1.1"
   id="svg1"
   xml:space="preserve"
   inkscape:version="1.4-dev (1:1.4.0-dev+202401190506+b37f861054)"
   sodipodi:docname="zusammenhaenge_unterschiede.svg"
   inkscape:export-filename="zusammenhaenge_unterschiede.png"
   inkscape:export-xdpi="200"
   inkscape:export-ydpi="200"
   xmlns:inkscape="http://www.inkscape.org/namespaces/inkscape"
   xmlns:sodipodi="http://sodipodi.sourceforge.net/DTD/sodipodi-0.dtd"
   xmlns="http://www.w3.org/2000/svg"
   xmlns:svg="http://www.w3.org/2000/svg"><sodipodi:namedview
     id="namedview1"
     pagecolor="#ffffff"
     bordercolor="#000000"
     borderopacity="0.25"
     inkscape:showpageshadow="2"
     inkscape:pageopacity="0.0"
     inkscape:pagecheckerboard="0"
     inkscape:deskcolor="#d1d1d1"
     inkscape:document-units="mm"
     inkscape:zoom="0.87398029"
     inkscape:cx="494.86242"
     inkscape:cy="197.37287"
     inkscape:window-width="1920"
     inkscape:window-height="1008"
     inkscape:window-x="0"
     inkscape:window-y="0"
     inkscape:window-maximized="1"
     inkscape:current-layer="layer1" /><defs
     id="defs1"><marker
       style="overflow:visible"
       id="Triangle"
       refX="0"
       refY="0"
       orient="auto-start-reverse"
       inkscape:stockid="Triangle arrow"
       markerWidth="0.69999999"
       markerHeight="0.69999999"
       viewBox="0 0 1 1"
       inkscape:isstock="true"
       inkscape:collect="always"
       preserveAspectRatio="xMidYMid"><path
         transform="scale(0.5)"
         style="fill:context-stroke;fill-rule:evenodd;stroke:context-stroke;stroke-width:1pt"
         d="M 5.77,0 -2.88,5 V -5 Z"
         id="path135" /></marker></defs><g
     inkscape:label="Layer 1"
     inkscape:groupmode="layer"
     id="layer1"
     transform="translate(-27.031354,-38.374991)"><path
       style="fill:none;stroke:#000000;stroke-width:0.899998;stroke-dasharray:none;marker-end:url(#Triangle)"
       d="m 50.714462,117.54488 -6.824688,12.22685"
       id="path1" /><text
       xml:space="preserve"
       style="font-size:7.05556px;line-height:90%;font-family:sans-serif;text-decoration-color:#000000;fill:#000000;stroke-width:0.264583;-inkscape-stroke:none;stop-color:#000000"
       x="26.421572"
       y="138.57738"
       id="text2"><tspan
         sodipodi:role="line"
         id="tspan2"
         style="font-style:italic;stroke-width:0.264583"
         x="26.421572"
         y="138.57738">Variable X</tspan></text><path
       style="fill:none;stroke:#000000;stroke-width:0.899998;stroke-dasharray:none;marker-end:url(#Triangle)"
       d="m 80.704995,117.54488 6.824688,12.22685"
       id="path2" /><text
       xml:space="preserve"
       style="font-size:7.05556px;line-height:90%;font-family:sans-serif;text-decoration-color:#000000;fill:#000000;stroke-width:0.264583;-inkscape-stroke:none;stop-color:#000000"
       x="74.575745"
       y="138.57738"
       id="text3"><tspan
         sodipodi:role="line"
         id="tspan3"
         style="font-style:italic;stroke-width:0.264583"
         x="74.575745"
         y="138.57738">Variable Y</tspan></text><path
       style="fill:none;stroke:#000000;stroke-width:0.899998;stroke-dasharray:none;marker-end:url(#Triangle)"
       d="M 50.714462,156.37671 43.889774,144.14986"
       id="path3" /><path
       style="fill:none;stroke:#000000;stroke-width:0.899998;stroke-dasharray:none;marker-end:url(#Triangle)"
       d="m 80.704995,156.37671 6.824688,-12.22685"
       id="path4" /><text
       xml:space="preserve"
       style="font-size:7.05556px;line-height:90%;font-family:sans-serif;text-decoration-color:#000000;fill:#000000;stroke-width:0.264583;-inkscape-stroke:none;stop-color:#000000"
       x="66.224136"
       y="164.04538"
       id="text4"><tspan
         sodipodi:role="line"
         id="tspan4"
         style="text-align:center;text-anchor:middle;stroke-width:0.264583"
         x="66.224136"
         y="164.04538">Zusammenhang </tspan><tspan
         sodipodi:role="line"
         style="text-align:center;text-anchor:middle;stroke-width:0.264583"
         x="66.224136"
         y="170.39539"
         id="tspan5">von X und Y</tspan></text><text
       xml:space="preserve"
       style="font-size:7.05556px;line-height:90%;font-family:sans-serif;text-decoration-color:#000000;fill:#000000;stroke-width:0.264583;-inkscape-stroke:none;stop-color:#000000"
       x="146.20885"
       y="124.81911"
       id="text6"><tspan
         sodipodi:role="line"
         id="tspan6"
         style="font-style:normal;text-align:center;text-anchor:middle;stroke-width:0.264583"
         x="146.20885"
         y="124.81911">Gruppe A</tspan><tspan
         sodipodi:role="line"
         style="font-style:normal;text-align:center;text-anchor:middle;stroke-width:0.264583"
         x="146.20885"
         y="131.16911"
         id="tspan10">oder</tspan><tspan
         sodipodi:role="line"
         style="font-style:normal;text-align:center;text-anchor:middle;stroke-width:0.264583"
         x="146.20885"
         y="137.51912"
         id="tspan11">Bedingung A</tspan></text><text
       xml:space="preserve"
       style="font-size:7.05556px;line-height:90%;font-family:sans-serif;text-decoration-color:#000000;fill:#000000;stroke-width:0.264583;-inkscape-stroke:none;stop-color:#000000"
       x="127.49237"
       y="145.98584"
       id="text8"><tspan
         sodipodi:role="line"
         id="tspan8"
         style="font-style:italic;stroke-width:0.264583"
         x="127.49237"
         y="145.98584">Variable X<tspan
   style="font-size:65%;baseline-shift:sub"
   id="tspan9">A</tspan></tspan></text><text
       xml:space="preserve"
       style="font-size:7.05556px;line-height:90%;font-family:sans-serif;text-decoration-color:#000000;fill:#000000;stroke-width:0.264583;-inkscape-stroke:none;stop-color:#000000"
       x="197.53809"
       y="124.81911"
       id="text14"><tspan
         sodipodi:role="line"
         id="tspan12"
         style="font-style:normal;text-align:center;text-anchor:middle;stroke-width:0.264583"
         x="197.53809"
         y="124.81911">Gruppe B</tspan><tspan
         sodipodi:role="line"
         style="font-style:normal;text-align:center;text-anchor:middle;stroke-width:0.264583"
         x="197.53809"
         y="131.16911"
         id="tspan13">oder</tspan><tspan
         sodipodi:role="line"
         style="font-style:normal;text-align:center;text-anchor:middle;stroke-width:0.264583"
         x="197.53809"
         y="137.51912"
         id="tspan14">Bedingung B</tspan></text><text
       xml:space="preserve"
       style="font-size:7.05556px;line-height:90%;font-family:sans-serif;text-decoration-color:#000000;fill:#000000;stroke-width:0.264583;-inkscape-stroke:none;stop-color:#000000"
       x="180.40903"
       y="145.98584"
       id="text16"><tspan
         sodipodi:role="line"
         id="tspan16"
         style="font-style:italic;stroke-width:0.264583"
         x="180.40903"
         y="145.98584">Variable X<tspan
   style="font-size:65%;baseline-shift:sub"
   id="tspan15">B</tspan></tspan></text><path
       style="fill:none;stroke:#000000;stroke-width:0.899997;stroke-dasharray:none;marker-end:url(#Triangle)"
       d="m 145.12155,148.51431 0.0189,6.04577"
       id="path16" /><path
       style="fill:none;stroke:#000000;stroke-width:0.899997;stroke-dasharray:none;marker-end:url(#Triangle)"
       d="m 196.45077,148.51431 0.0189,6.04577"
       id="path17" /><text
       xml:space="preserve"
       style="font-size:7.05556px;line-height:114.1%;font-family:sans-serif;text-decoration-color:#000000;fill:#000000;stroke-width:0.264583;-inkscape-stroke:none;stop-color:#000000"
       x="139.23666"
       y="162.91904"
       id="text18"><tspan
         sodipodi:role="line"
         style="font-style:normal;line-height:114.1%;text-align:center;text-anchor:middle;stroke-width:0.264583"
         x="139.23666"
         y="162.91904"
         id="tspan21">Statistisches Maß</tspan><tspan
         sodipodi:role="line"
         style="font-style:italic;line-height:114.1%;text-align:center;text-anchor:middle;stroke-width:0.264583"
         x="139.23666"
         y="170.98657"
         id="tspan23"><tspan
   style="font-style:normal"
   id="tspan34">zB</tspan> Mittelwert x<tspan
   style="font-size:65%;line-height:114.1%;baseline-shift:sub"
   id="tspan25">A</tspan></tspan></text><text
       xml:space="preserve"
       style="font-size:7.05556px;line-height:114.1%;font-family:sans-serif;text-decoration-color:#000000;fill:#000000;stroke-width:0.264583;-inkscape-stroke:none;stop-color:#000000"
       x="200.62003"
       y="162.91904"
       id="text29"><tspan
         sodipodi:role="line"
         style="font-style:normal;line-height:114.1%;text-align:center;text-anchor:middle;stroke-width:0.264583"
         x="200.62003"
         y="162.91904"
         id="tspan27">Statistisches Maß</tspan><tspan
         sodipodi:role="line"
         style="font-style:italic;line-height:114.1%;text-align:center;text-anchor:middle;stroke-width:0.264583"
         x="200.62003"
         y="170.98657"
         id="tspan29"><tspan
   style="font-style:normal"
   id="tspan33">zB</tspan> Mittelwert x<tspan
   style="font-size:65%;line-height:114.1%;baseline-shift:sub"
   id="tspan28">B</tspan></tspan></text><path
       style="fill:none;stroke:#000000;stroke-width:0.4;stroke-dasharray:none"
       d="m 218.97008,166.62369 h 3.34314"
       id="path29" /><path
       style="fill:none;stroke:#000000;stroke-width:0.900001;stroke-dasharray:none;marker-end:url(#Triangle)"
       d="m 188.42185,183.54442 4.09606,-7.58285"
       id="path31" /><text
       xml:space="preserve"
       style="font-size:7.05556px;line-height:110%;font-family:sans-serif;text-decoration-color:#000000;fill:#000000;stroke-width:0.264583;-inkscape-stroke:none;stop-color:#000000"
       x="169.17047"
       y="189.57123"
       id="text32"><tspan
         sodipodi:role="line"
         id="tspan31"
         style="line-height:110%;text-align:center;text-anchor:middle;stroke-width:0.264583"
         x="169.17047"
         y="189.57123">Unterschied </tspan><tspan
         sodipodi:role="line"
         style="line-height:110%;text-align:center;text-anchor:middle;stroke-width:0.264583"
         x="169.17047"
         y="197.34949"
         id="tspan32">zwischen <tspan
   style="font-style:italic;line-height:110%"
   id="tspan35">x<tspan
   style="font-size:65%;line-height:110%;baseline-shift:sub"
   id="tspan38">A</tspan></tspan> und <tspan
   style="font-style:italic;line-height:110%"
   id="tspan36">x<tspan
   style="font-size:65%;line-height:110%;baseline-shift:sub"
   id="tspan37">B</tspan></tspan></tspan></text><text
       xml:space="preserve"
       style="font-size:7.75972px;line-height:94%;font-family:sans-serif;text-decoration-color:#000000;fill:#000000;stroke-width:0.264583;-inkscape-stroke:none;stop-color:#000000"
       x="35.548645"
       y="43.997757"
       id="text40"><tspan
         sodipodi:role="line"
         id="tspan40"
         style="font-style:normal;font-weight:bold;line-height:94%;stroke-width:0.264583"
         x="35.548645"
         y="43.997757">Zusammenhänge</tspan><tspan
         sodipodi:role="line"
         style="font-style:normal;font-weight:bold;line-height:94%;stroke-width:0.264583"
         x="35.548645"
         y="51.291893"
         id="tspan88">(interindividuell)</tspan></text><text
       xml:space="preserve"
       style="font-size:7.75972px;line-height:90%;font-family:sans-serif;text-decoration-color:#000000;fill:#000000;stroke-width:0.264583;-inkscape-stroke:none;stop-color:#000000"
       x="147.20276"
       y="48.231091"
       id="text41"><tspan
         sodipodi:role="line"
         id="tspan41"
         style="font-style:normal;font-weight:bold;stroke-width:0.264583"
         x="147.20276"
         y="48.231091">Unterschiede</tspan></text><path
       style="fill:none;stroke:#000000;stroke-width:0.899997;stroke-dasharray:none;marker-end:url(#Triangle)"
       d="m 147.01358,110.64956 -2.01241,5.70104"
       id="path41" /><path
       style="fill:none;stroke:#000000;stroke-width:0.899997;stroke-dasharray:none;marker-end:url(#Triangle)"
       d="m 195.56696,110.51307 1.3094,5.9023"
       id="path42" /><path
       style="fill:none;stroke:#000000;stroke-width:0.900001;stroke-dasharray:none;marker-end:url(#Triangle)"
       d="m 147.25946,183.54442 -4.09606,-7.58285"
       id="path43" /><g
       id="g88"
       transform="translate(24.538937,-12.100516)"><path
         d="m 21.34819,83.904871 h 3.017018 c 1.584546,0 2.869054,1.545719 2.869054,3.452475 v 1.9591 h -8.755126 v -1.9591 c 0,-1.906756 1.284508,-3.452475 2.869054,-3.452475 z"
         fill="#6a6a6a"
         fill-rule="evenodd"
         id="path2-6"
         style="fill:#989898;fill-opacity:1;stroke-width:0.0486747" /><path
         d="m 19.827195,81.052495 c 0,-1.673148 1.356375,-3.029505 3.029504,-3.029505 1.67313,0 3.029505,1.356357 3.029505,3.029505 0,1.673129 -1.356375,3.029504 -3.029505,3.029504 -1.673129,0 -3.029504,-1.356375 -3.029504,-3.029504 z"
         fill="#6a6a6a"
         fill-rule="evenodd"
         id="path3-1"
         style="fill:#989898;fill-opacity:1;stroke-width:0.0486747" /></g><circle
       style="fill:none;fill-opacity:1;stroke:#000000;stroke-width:0.8;stroke-dasharray:none;stroke-opacity:1"
       id="path88"
       cx="66.433304"
       cy="85.75708"
       r="32.618832" /><g
       id="g90"
       transform="translate(43.491213,-18.872308)"><path
         d="m 21.34819,83.904871 h 3.017018 c 1.584546,0 2.869054,1.545719 2.869054,3.452475 v 1.9591 h -8.755126 v -1.9591 c 0,-1.906756 1.284508,-3.452475 2.869054,-3.452475 z"
         fill="#6a6a6a"
         fill-rule="evenodd"
         id="path89"
         style="fill:#989898;fill-opacity:1;stroke-width:0.0486747" /><path
         d="m 19.827195,81.052495 c 0,-1.673148 1.356375,-3.029505 3.029504,-3.029505 1.67313,0 3.029505,1.356357 3.029505,3.029505 0,1.673129 -1.356375,3.029504 -3.029505,3.029504 -1.673129,0 -3.029504,-1.356375 -3.029504,-3.029504 z"
         fill="#6a6a6a"
         fill-rule="evenodd"
         id="path90"
         style="fill:#989898;fill-opacity:1;stroke-width:0.0486747" /></g><g
       id="g98"
       transform="translate(62.44349,-12.100516)"><path
         d="m 21.34819,83.904871 h 3.017018 c 1.584546,0 2.869054,1.545719 2.869054,3.452475 v 1.9591 h -8.755126 v -1.9591 c 0,-1.906756 1.284508,-3.452475 2.869054,-3.452475 z"
         fill="#6a6a6a"
         fill-rule="evenodd"
         id="path97"
         style="fill:#989898;fill-opacity:1;stroke-width:0.0486747" /><path
         d="m 19.827195,81.052495 c 0,-1.673148 1.356375,-3.029505 3.029504,-3.029505 1.67313,0 3.029505,1.356357 3.029505,3.029505 0,1.673129 -1.356375,3.029504 -3.029505,3.029504 -1.673129,0 -3.029504,-1.356375 -3.029504,-3.029504 z"
         fill="#6a6a6a"
         fill-rule="evenodd"
         id="path98"
         style="fill:#989898;fill-opacity:1;stroke-width:0.0486747" /></g><g
       id="g101"
       transform="translate(24.538937,8.0078174)"><path
         d="m 21.34819,83.904871 h 3.017018 c 1.584546,0 2.869054,1.545719 2.869054,3.452475 v 1.9591 h -8.755126 v -1.9591 c 0,-1.906756 1.284508,-3.452475 2.869054,-3.452475 z"
         fill="#6a6a6a"
         fill-rule="evenodd"
         id="path100"
         style="fill:#989898;fill-opacity:1;stroke-width:0.0486747" /><path
         d="m 19.827195,81.052495 c 0,-1.673148 1.356375,-3.029505 3.029504,-3.029505 1.67313,0 3.029505,1.356357 3.029505,3.029505 0,1.673129 -1.356375,3.029504 -3.029505,3.029504 -1.673129,0 -3.029504,-1.356375 -3.029504,-3.029504 z"
         fill="#6a6a6a"
         fill-rule="evenodd"
         id="path101"
         style="fill:#989898;fill-opacity:1;stroke-width:0.0486747" /></g><g
       id="g103"
       transform="translate(43.491213,1.2360257)"><path
         d="m 21.34819,83.904871 h 3.017018 c 1.584546,0 2.869054,1.545719 2.869054,3.452475 v 1.9591 h -8.755126 v -1.9591 c 0,-1.906756 1.284508,-3.452475 2.869054,-3.452475 z"
         fill="#6a6a6a"
         fill-rule="evenodd"
         id="path102"
         style="fill:#989898;fill-opacity:1;stroke-width:0.0486747" /><path
         d="m 19.827195,81.052495 c 0,-1.673148 1.356375,-3.029505 3.029504,-3.029505 1.67313,0 3.029505,1.356357 3.029505,3.029505 0,1.673129 -1.356375,3.029504 -3.029505,3.029504 -1.673129,0 -3.029504,-1.356375 -3.029504,-3.029504 z"
         fill="#6a6a6a"
         fill-rule="evenodd"
         id="path103"
         style="fill:#989898;fill-opacity:1;stroke-width:0.0486747" /></g><g
       id="g105"
       transform="translate(62.44349,8.0078174)"><path
         d="m 21.34819,83.904871 h 3.017018 c 1.584546,0 2.869054,1.545719 2.869054,3.452475 v 1.9591 h -8.755126 v -1.9591 c 0,-1.906756 1.284508,-3.452475 2.869054,-3.452475 z"
         fill="#6a6a6a"
         fill-rule="evenodd"
         id="path104"
         style="fill:#989898;fill-opacity:1;stroke-width:0.0486747" /><path
         d="m 19.827195,81.052495 c 0,-1.673148 1.356375,-3.029505 3.029504,-3.029505 1.67313,0 3.029505,1.356357 3.029505,3.029505 0,1.673129 -1.356375,3.029504 -3.029505,3.029504 -1.673129,0 -3.029504,-1.356375 -3.029504,-3.029504 z"
         fill="#6a6a6a"
         fill-rule="evenodd"
         id="path105"
         style="fill:#989898;fill-opacity:1;stroke-width:0.0486747" /></g><g
       id="g107"
       transform="translate(43.491213,19.227694)"><path
         d="m 21.34819,83.904871 h 3.017018 c 1.584546,0 2.869054,1.545719 2.869054,3.452475 v 1.9591 h -8.755126 v -1.9591 c 0,-1.906756 1.284508,-3.452475 2.869054,-3.452475 z"
         fill="#6a6a6a"
         fill-rule="evenodd"
         id="path106"
         style="fill:#989898;fill-opacity:1;stroke-width:0.0486747" /><path
         d="m 19.827195,81.052495 c 0,-1.673148 1.356375,-3.029505 3.029504,-3.029505 1.67313,0 3.029505,1.356357 3.029505,3.029505 0,1.673129 -1.356375,3.029504 -3.029505,3.029504 -1.673129,0 -3.029504,-1.356375 -3.029504,-3.029504 z"
         fill="#6a6a6a"
         fill-rule="evenodd"
         id="path107"
         style="fill:#989898;fill-opacity:1;stroke-width:0.0486747" /></g><text
       xml:space="preserve"
       style="font-size:5.85561px;line-height:90%;font-family:sans-serif;text-decoration-color:#000000;fill:#000000;stroke-width:0.264583;-inkscape-stroke:none;stop-color:#000000"
       x="41.786228"
       y="81.001007"
       id="text108"><tspan
         sodipodi:role="line"
         id="tspan108"
         style="font-style:italic;stroke-width:0.264583"
         x="41.786228"
         y="81.001007">x<tspan
   style="font-size:3.80615px;baseline-shift:sub;stroke-width:0.264583"
   id="tspan107">1</tspan></tspan></text><text
       xml:space="preserve"
       style="font-size:5.85561px;line-height:90%;font-family:sans-serif;text-decoration-color:#000000;fill:#000000;stroke-width:0.264583;-inkscape-stroke:none;stop-color:#000000"
       x="48.114609"
       y="81.001007"
       id="text110"><tspan
         sodipodi:role="line"
         id="tspan110"
         style="font-style:italic;stroke-width:0.264583"
         x="48.114609"
         y="81.001007">y<tspan
   style="font-size:3.80615px;baseline-shift:sub;stroke-width:0.264583"
   id="tspan109">1</tspan></tspan></text><text
       xml:space="preserve"
       style="font-size:5.85561px;line-height:90%;font-family:sans-serif;text-decoration-color:#000000;fill:#000000;stroke-width:0.264583;-inkscape-stroke:none;stop-color:#000000"
       x="60.942348"
       y="74.250206"
       id="text112"><tspan
         sodipodi:role="line"
         id="tspan112"
         style="font-style:italic;stroke-width:0.264583"
         x="60.942348"
         y="74.250206">x<tspan
   style="font-size:3.80615px;baseline-shift:sub;stroke-width:0.264583"
   id="tspan111">2</tspan></tspan></text><text
       xml:space="preserve"
       style="font-size:5.85561px;line-height:90%;font-family:sans-serif;text-decoration-color:#000000;fill:#000000;stroke-width:0.264583;-inkscape-stroke:none;stop-color:#000000"
       x="67.270729"
       y="74.250206"
       id="text114"><tspan
         sodipodi:role="line"
         id="tspan114"
         style="font-style:italic;stroke-width:0.264583"
         x="67.270729"
         y="74.250206">y<tspan
   style="font-size:3.80615px;baseline-shift:sub;stroke-width:0.264583"
   id="tspan113">2</tspan></tspan></text><text
       xml:space="preserve"
       style="font-size:5.85561px;line-height:90%;font-family:sans-serif;text-decoration-color:#000000;fill:#000000;stroke-width:0.264583;-inkscape-stroke:none;stop-color:#000000"
       x="79.809975"
       y="81.058708"
       id="text116"><tspan
         sodipodi:role="line"
         id="tspan116"
         style="font-style:italic;stroke-width:0.264583"
         x="79.809975"
         y="81.058708">x<tspan
   style="font-size:3.80615px;baseline-shift:sub;stroke-width:0.264583"
   id="tspan115">3</tspan></tspan></text><text
       xml:space="preserve"
       style="font-size:5.85561px;line-height:90%;font-family:sans-serif;text-decoration-color:#000000;fill:#000000;stroke-width:0.264583;-inkscape-stroke:none;stop-color:#000000"
       x="86.138351"
       y="81.058708"
       id="text118"><tspan
         sodipodi:role="line"
         id="tspan118"
         style="font-style:italic;stroke-width:0.264583"
         x="86.138351"
         y="81.058708">y<tspan
   style="font-size:3.80615px;baseline-shift:sub;stroke-width:0.264583"
   id="tspan117">3</tspan></tspan></text><text
       xml:space="preserve"
       style="font-size:5.85561px;line-height:90%;font-family:sans-serif;text-decoration-color:#000000;fill:#000000;stroke-width:0.264583;-inkscape-stroke:none;stop-color:#000000"
       x="61.230846"
       y="94.387215"
       id="text120"><tspan
         sodipodi:role="line"
         id="tspan120"
         style="font-style:italic;stroke-width:0.264583"
         x="61.230846"
         y="94.387215">x<tspan
   style="font-size:3.80615px;baseline-shift:sub;stroke-width:0.264583"
   id="tspan119">5</tspan></tspan></text><text
       xml:space="preserve"
       style="font-size:5.85561px;line-height:90%;font-family:sans-serif;text-decoration-color:#000000;fill:#000000;stroke-width:0.264583;-inkscape-stroke:none;stop-color:#000000"
       x="67.559219"
       y="94.387215"
       id="text122"><tspan
         sodipodi:role="line"
         id="tspan122"
         style="font-style:italic;stroke-width:0.264583"
         x="67.559219"
         y="94.387215">y<tspan
   style="font-size:3.80615px;baseline-shift:sub;stroke-width:0.264583"
   id="tspan121">5</tspan></tspan></text><text
       xml:space="preserve"
       style="font-size:5.85561px;line-height:90%;font-family:sans-serif;text-decoration-color:#000000;fill:#000000;stroke-width:0.264583;-inkscape-stroke:none;stop-color:#000000"
       x="79.98307"
       y="101.19572"
       id="text124"><tspan
         sodipodi:role="line"
         id="tspan124"
         style="font-style:italic;stroke-width:0.264583"
         x="79.98307"
         y="101.19572">x<tspan
   style="font-size:3.80615px;baseline-shift:sub;stroke-width:0.264583"
   id="tspan123">6</tspan></tspan></text><text
       xml:space="preserve"
       style="font-size:5.85561px;line-height:90%;font-family:sans-serif;text-decoration-color:#000000;fill:#000000;stroke-width:0.264583;-inkscape-stroke:none;stop-color:#000000"
       x="86.311447"
       y="101.19572"
       id="text126"><tspan
         sodipodi:role="line"
         id="tspan126"
         style="font-style:italic;stroke-width:0.264583"
         x="86.311447"
         y="101.19572">y<tspan
   style="font-size:3.80615px;baseline-shift:sub;stroke-width:0.264583"
   id="tspan125">6</tspan></tspan></text><text
       xml:space="preserve"
       style="font-size:5.85561px;line-height:90%;font-family:sans-serif;text-decoration-color:#000000;fill:#000000;stroke-width:0.264583;-inkscape-stroke:none;stop-color:#000000"
       x="61.288544"
       y="112.33166"
       id="text128"><tspan
         sodipodi:role="line"
         id="tspan128"
         style="font-style:italic;stroke-width:0.264583"
         x="61.288544"
         y="112.33166">x<tspan
   style="font-size:3.80615px;baseline-shift:sub;stroke-width:0.264583"
   id="tspan127">7</tspan></tspan></text><text
       xml:space="preserve"
       style="font-size:5.85561px;line-height:90%;font-family:sans-serif;text-decoration-color:#000000;fill:#000000;stroke-width:0.264583;-inkscape-stroke:none;stop-color:#000000"
       x="67.61692"
       y="112.33166"
       id="text130"><tspan
         sodipodi:role="line"
         id="tspan130"
         style="font-style:italic;stroke-width:0.264583"
         x="67.61692"
         y="112.33166">y<tspan
   style="font-size:3.80615px;baseline-shift:sub;stroke-width:0.264583"
   id="tspan129">7</tspan></tspan></text><text
       xml:space="preserve"
       style="font-size:5.85561px;line-height:90%;font-family:sans-serif;text-decoration-color:#000000;fill:#000000;stroke-width:0.264583;-inkscape-stroke:none;stop-color:#000000"
       x="42.190121"
       y="101.19572"
       id="text132"><tspan
         sodipodi:role="line"
         id="tspan132"
         style="font-style:italic;stroke-width:0.264583"
         x="42.190121"
         y="101.19572">x<tspan
   style="font-size:3.80615px;baseline-shift:sub;stroke-width:0.264583"
   id="tspan131">4</tspan></tspan></text><text
       xml:space="preserve"
       style="font-size:5.85561px;line-height:90%;font-family:sans-serif;text-decoration-color:#000000;fill:#000000;stroke-width:0.264583;-inkscape-stroke:none;stop-color:#000000"
       x="48.518497"
       y="101.19572"
       id="text134"><tspan
         sodipodi:role="line"
         id="tspan134"
         style="font-style:italic;stroke-width:0.264583"
         x="48.518497"
         y="101.19572">y<tspan
   style="font-size:3.80615px;baseline-shift:sub;stroke-width:0.264583"
   id="tspan133">4</tspan></tspan></text><g
       id="g136"
       transform="translate(129.31395,-12.100516)"><path
         d="m 21.34819,83.904871 h 3.017018 c 1.584546,0 2.869054,1.545719 2.869054,3.452475 v 1.9591 h -8.755126 v -1.9591 c 0,-1.906756 1.284508,-3.452475 2.869054,-3.452475 z"
         fill="#6a6a6a"
         fill-rule="evenodd"
         id="path134"
         style="fill:#989898;fill-opacity:1;stroke-width:0.0486747" /><path
         d="m 19.827195,81.052495 c 0,-1.673148 1.356375,-3.029505 3.029504,-3.029505 1.67313,0 3.029505,1.356357 3.029505,3.029505 0,1.673129 -1.356375,3.029504 -3.029505,3.029504 -1.673129,0 -3.029504,-1.356375 -3.029504,-3.029504 z"
         fill="#6a6a6a"
         fill-rule="evenodd"
         id="path136"
         style="fill:#989898;fill-opacity:1;stroke-width:0.0486747" /></g><circle
       style="fill:none;fill-opacity:1;stroke:#000000;stroke-width:0.8;stroke-dasharray:none;stroke-opacity:1"
       id="circle136"
       cx="171.20834"
       cy="85.75708"
       r="32.618832" /><g
       id="g138"
       transform="translate(148.26624,-18.872308)"><path
         d="m 21.34819,83.904871 h 3.017018 c 1.584546,0 2.869054,1.545719 2.869054,3.452475 v 1.9591 h -8.755126 v -1.9591 c 0,-1.906756 1.284508,-3.452475 2.869054,-3.452475 z"
         fill="#6a6a6a"
         fill-rule="evenodd"
         id="path137"
         style="fill:#989898;fill-opacity:1;stroke-width:0.0486747" /><path
         d="m 19.827195,81.052495 c 0,-1.673148 1.356375,-3.029505 3.029504,-3.029505 1.67313,0 3.029505,1.356357 3.029505,3.029505 0,1.673129 -1.356375,3.029504 -3.029505,3.029504 -1.673129,0 -3.029504,-1.356375 -3.029504,-3.029504 z"
         fill="#6a6a6a"
         fill-rule="evenodd"
         id="path138"
         style="fill:#989898;fill-opacity:1;stroke-width:0.0486747" /></g><g
       id="g140"
       transform="translate(167.21853,-12.100516)"><path
         d="m 21.34819,83.904871 h 3.017018 c 1.584546,0 2.869054,1.545719 2.869054,3.452475 v 1.9591 h -8.755126 v -1.9591 c 0,-1.906756 1.284508,-3.452475 2.869054,-3.452475 z"
         fill="#6a6a6a"
         fill-rule="evenodd"
         id="path139"
         style="fill:#989898;fill-opacity:1;stroke-width:0.0486747" /><path
         d="m 19.827195,81.052495 c 0,-1.673148 1.356375,-3.029505 3.029504,-3.029505 1.67313,0 3.029505,1.356357 3.029505,3.029505 0,1.673129 -1.356375,3.029504 -3.029505,3.029504 -1.673129,0 -3.029504,-1.356375 -3.029504,-3.029504 z"
         fill="#6a6a6a"
         fill-rule="evenodd"
         id="path140"
         style="fill:#989898;fill-opacity:1;stroke-width:0.0486747" /></g><g
       id="g142"
       transform="translate(129.31395,8.0078174)"><path
         d="m 21.34819,83.904871 h 3.017018 c 1.584546,0 2.869054,1.545719 2.869054,3.452475 v 1.9591 h -8.755126 v -1.9591 c 0,-1.906756 1.284508,-3.452475 2.869054,-3.452475 z"
         fill="#6a6a6a"
         fill-rule="evenodd"
         id="path141"
         style="fill:#989898;fill-opacity:1;stroke-width:0.0486747" /><path
         d="m 19.827195,81.052495 c 0,-1.673148 1.356375,-3.029505 3.029504,-3.029505 1.67313,0 3.029505,1.356357 3.029505,3.029505 0,1.673129 -1.356375,3.029504 -3.029505,3.029504 -1.673129,0 -3.029504,-1.356375 -3.029504,-3.029504 z"
         fill="#6a6a6a"
         fill-rule="evenodd"
         id="path142"
         style="fill:#989898;fill-opacity:1;stroke-width:0.0486747" /></g><g
       id="g144"
       transform="translate(148.26624,1.2360257)"><path
         d="m 21.34819,83.904871 h 3.017018 c 1.584546,0 2.869054,1.545719 2.869054,3.452475 v 1.9591 h -8.755126 v -1.9591 c 0,-1.906756 1.284508,-3.452475 2.869054,-3.452475 z"
         fill="#6a6a6a"
         fill-rule="evenodd"
         id="path143"
         style="fill:#989898;fill-opacity:1;stroke-width:0.0486747" /><path
         d="m 19.827195,81.052495 c 0,-1.673148 1.356375,-3.029505 3.029504,-3.029505 1.67313,0 3.029505,1.356357 3.029505,3.029505 0,1.673129 -1.356375,3.029504 -3.029505,3.029504 -1.673129,0 -3.029504,-1.356375 -3.029504,-3.029504 z"
         fill="#6a6a6a"
         fill-rule="evenodd"
         id="path144"
         style="fill:#989898;fill-opacity:1;stroke-width:0.0486747" /></g><g
       id="g146"
       transform="translate(167.21853,8.0078174)"><path
         d="m 21.34819,83.904871 h 3.017018 c 1.584546,0 2.869054,1.545719 2.869054,3.452475 v 1.9591 h -8.755126 v -1.9591 c 0,-1.906756 1.284508,-3.452475 2.869054,-3.452475 z"
         fill="#6a6a6a"
         fill-rule="evenodd"
         id="path145"
         style="fill:#989898;fill-opacity:1;stroke-width:0.0486747" /><path
         d="m 19.827195,81.052495 c 0,-1.673148 1.356375,-3.029505 3.029504,-3.029505 1.67313,0 3.029505,1.356357 3.029505,3.029505 0,1.673129 -1.356375,3.029504 -3.029505,3.029504 -1.673129,0 -3.029504,-1.356375 -3.029504,-3.029504 z"
         fill="#6a6a6a"
         fill-rule="evenodd"
         id="path146"
         style="fill:#989898;fill-opacity:1;stroke-width:0.0486747" /></g><g
       id="g148"
       transform="translate(148.26624,19.227694)"><path
         d="m 21.34819,83.904871 h 3.017018 c 1.584546,0 2.869054,1.545719 2.869054,3.452475 v 1.9591 h -8.755126 v -1.9591 c 0,-1.906756 1.284508,-3.452475 2.869054,-3.452475 z"
         fill="#6a6a6a"
         fill-rule="evenodd"
         id="path147"
         style="fill:#989898;fill-opacity:1;stroke-width:0.0486747" /><path
         d="m 19.827195,81.052495 c 0,-1.673148 1.356375,-3.029505 3.029504,-3.029505 1.67313,0 3.029505,1.356357 3.029505,3.029505 0,1.673129 -1.356375,3.029504 -3.029505,3.029504 -1.673129,0 -3.029504,-1.356375 -3.029504,-3.029504 z"
         fill="#6a6a6a"
         fill-rule="evenodd"
         id="path148"
         style="fill:#989898;fill-opacity:1;stroke-width:0.0486747" /></g><path
       style="fill:none;stroke:#000000;stroke-width:0.4;stroke-dasharray:none"
       d="m 157.58672,166.62369 h 3.34314"
       id="path175" /><path
       style="fill:none;stroke:#000000;stroke-width:0.4;stroke-dasharray:none"
       d="m 170.72026,193.00812 h 3.34314"
       id="path176" /><path
       style="fill:none;stroke:#000000;stroke-width:0.4;stroke-dasharray:none"
       d="m 192.94528,193.00812 h 3.34314"
       id="path177" /></g></svg>
